<?xml version="1.0" encoding="UTF-8"?><!DOCTYPE svg PUBLIC "-//W3C//DTD SVG 1.1//EN" "http://www.w3.org/Graphics/SVG/1.1/DTD/svg11.dtd"><svg xmlns="http://www.w3.org/2000/svg" xmlns:xlink="http://www.w3.org/1999/xlink"><defs/><symbol id="_sprite"/><symbol id="arrow-down" viewBox="0 0 491.996 491.996">
<g>
	<g>
		<path d="M484.132,124.986l-16.116-16.228c-5.072-5.068-11.82-7.86-19.032-7.86c-7.208,0-13.964,2.792-19.036,7.86l-183.84,183.848
			L62.056,108.554c-5.064-5.068-11.82-7.856-19.028-7.856s-13.968,2.788-19.036,7.856l-16.12,16.128
			c-10.496,10.488-10.496,27.572,0,38.06l219.136,219.924c5.064,5.064,11.812,8.632,19.084,8.632h0.084
			c7.212,0,13.96-3.572,19.024-8.632l218.932-219.328c5.072-5.064,7.856-12.016,7.864-19.224
			C491.996,136.902,489.204,130.046,484.132,124.986z"/>
	</g>
</g>
<g>
</g>
<g>
</g>
<g>
</g>
<g>
</g>
<g>
</g>
<g>
</g>
<g>
</g>
<g>
</g>
<g>
</g>
<g>
</g>
<g>
</g>
<g>
</g>
<g>
</g>
<g>
</g>
<g>
</g>
</symbol><symbol id="arrow" viewBox="0 0 512.008 512.008">
<path d="M263.556,3.123c-4.165-4.164-10.917-4.164-15.083,0L45.807,205.79
	c-21.838,21.838-21.838,57.245,0,79.083s57.245,21.838,79.083,0l77.781-77.781v251.584c0,29.455,23.878,53.333,53.333,53.333
	c29.455,0,53.333-23.878,53.333-53.333V207.091l77.781,77.781c21.838,21.838,57.245,21.838,79.083,0s21.838-57.245,0-79.083
	L263.556,3.123z"/>
<g>
</g>
<g>
</g>
<g>
</g>
<g>
</g>
<g>
</g>
<g>
</g>
<g>
</g>
<g>
</g>
<g>
</g>
<g>
</g>
<g>
</g>
<g>
</g>
<g>
</g>
<g>
</g>
<g>
</g>
</symbol><symbol id="click-location" viewBox="0 0 511.998 511.998">
<g transform="translate(0 -1)">
	<g>
		<g>
			<path d="M167.974,351.473c21.086,29.73,42.138,56.32,56.09,73.446c2.031,2.492,3.934,4.804,5.777,7.031h-42.103
				c-4.713,0-8.533,3.82-8.533,8.533s3.82,8.533,8.533,8.533H324.27c4.713,0,8.533-3.82,8.533-8.533s-3.82-8.533-8.533-8.533
				h-42.103c1.843-2.227,3.746-4.54,5.786-7.031c13.943-17.067,34.987-43.716,56.081-73.446
				c20.929-28.905,39.767-59.267,56.371-90.854c17.425-34.219,26.266-62.626,26.266-84.437
				c0.058-45.321-17.926-88.801-49.98-120.841c-2.141-2.22-5.313-3.112-8.297-2.333c-2.984,0.779-5.316,3.107-6.099,6.09
				c-0.783,2.983,0.104,6.156,2.321,8.3c28.852,28.844,45.039,67.985,44.988,108.783c0,19.098-8.209,44.902-24.405,76.689
				c-16.229,30.855-34.64,60.513-55.091,88.747c-20.804,29.346-41.6,55.637-55.381,72.533c-4.582,5.615-8.704,10.581-12.22,14.78
				c-1.641,1.874-4.011,2.948-6.502,2.948c-2.491,0-4.861-1.075-6.502-2.948c-3.516-4.198-7.637-9.165-12.22-14.78
				c-13.781-16.887-34.577-43.179-55.381-72.533c-20.451-28.234-38.862-57.892-55.091-88.747
				c-16.213-31.787-24.405-57.591-24.405-76.689c-0.005-61.809,36.959-117.627,93.867-141.747
				c38.238-16.034,81.314-16.034,119.552,0c2.808,1.19,6.037,0.793,8.472-1.044c2.435-1.836,3.705-4.832,3.332-7.859
				c-0.373-3.027-2.332-5.625-5.14-6.815c-86.898-36.652-187.056,4.062-223.735,90.948c-8.895,21.046-13.457,43.669-13.414,66.517
				c0,21.811,8.841,50.219,26.266,84.48C128.208,292.234,147.047,322.582,167.974,351.473z"/>
			<path d="M256.003,99.151c4.713,0,8.533-3.82,8.533-8.533s-3.82-8.533-8.533-8.533c-40.71-0.001-75.752,28.757-83.695,68.685
				c-7.943,39.928,13.426,79.906,51.037,95.486c37.611,15.58,80.99,2.421,103.608-31.428
				c22.618-33.849,18.175-78.962-10.611-107.749c-2.143-2.218-5.315-3.108-8.299-2.327c-2.983,0.781-5.313,3.111-6.094,6.094
				c-0.781,2.984,0.109,6.156,2.327,8.299c23.03,23.029,26.585,59.118,8.492,86.198c-18.093,27.08-52.796,37.608-82.885,25.146
				c-30.089-12.462-47.185-44.444-40.833-76.387S223.435,99.152,256.003,99.151z"/>
			<path d="M508.786,470.957l-52.48-93.867c-4.745-8.34-13.624-13.466-23.219-13.406H372.27c-4.713,0-8.533,3.82-8.533,8.533
				s3.82,8.533,8.533,8.533h60.817c3.416-0.066,6.603,1.715,8.337,4.659l52.463,93.867c1.429,2.442,1.399,5.471-0.077,7.885
				c-1.743,2.88-4.895,4.605-8.26,4.523H26.457c-3.362,0.08-6.51-1.646-8.252-4.523c-1.476-2.414-1.505-5.443-0.077-7.885
				l52.463-93.867c1.731-2.943,4.915-4.724,8.328-4.659h60.817c4.713,0,8.533-3.82,8.533-8.533s-3.82-8.533-8.533-8.533H78.92
				c-9.6-0.063-18.486,5.063-23.236,13.406L3.212,470.957c-4.375,7.728-4.274,17.208,0.265,24.841
				c4.782,8.128,13.551,13.071,22.98,12.954H485.55c9.426,0.114,18.192-4.828,22.972-12.954
				C513.061,488.164,513.162,478.685,508.786,470.957z"/>
			<path d="M418.137,406.351h-34.133c-1.685,0.003-3.332,0.501-4.736,1.434l-25.6,17.067c-3.921,2.616-4.979,7.915-2.364,11.836
				c2.616,3.921,7.915,4.979,11.836,2.364l23.424-15.633h31.573c4.713,0,8.533-3.821,8.533-8.533
				C426.67,410.171,422.85,406.351,418.137,406.351z"/>
			<path d="M366.937,466.084c0,4.713,3.82,8.533,8.533,8.533h68.267c4.713,0,8.533-3.82,8.533-8.533s-3.82-8.533-8.533-8.533H375.47
				C370.757,457.551,366.937,461.371,366.937,466.084z"/>
			<path d="M153.603,440.484c3.762,0.005,7.083-2.455,8.176-6.055c1.093-3.6-0.301-7.491-3.431-9.578l-25.6-17.067
				c-1.406-0.934-3.057-1.433-4.745-1.434H93.87c-4.713,0-8.533,3.821-8.533,8.533c0,4.713,3.821,8.533,8.533,8.533h31.573
				l23.45,15.633C150.288,439.981,151.927,440.48,153.603,440.484z"/>
			<path d="M68.27,457.551c-4.713,0-8.533,3.82-8.533,8.533s3.82,8.533,8.533,8.533h68.267c4.713,0,8.533-3.82,8.533-8.533
				s-3.82-8.533-8.533-8.533H68.27z"/>
		</g>
	</g>
</g>
<g>
</g>
<g>
</g>
<g>
</g>
<g>
</g>
<g>
</g>
<g>
</g>
<g>
</g>
<g>
</g>
<g>
</g>
<g>
</g>
<g>
</g>
<g>
</g>
<g>
</g>
<g>
</g>
<g>
</g>
</symbol><symbol id="close" viewBox="0 0 492 492">
<g>
	<g>
		<path d="M300.188,246L484.14,62.04c5.06-5.064,7.852-11.82,7.86-19.024c0-7.208-2.792-13.972-7.86-19.028L468.02,7.872
			c-5.068-5.076-11.824-7.856-19.036-7.856c-7.2,0-13.956,2.78-19.024,7.856L246.008,191.82L62.048,7.872
			c-5.06-5.076-11.82-7.856-19.028-7.856c-7.2,0-13.96,2.78-19.02,7.856L7.872,23.988c-10.496,10.496-10.496,27.568,0,38.052
			L191.828,246L7.872,429.952c-5.064,5.072-7.852,11.828-7.852,19.032c0,7.204,2.788,13.96,7.852,19.028l16.124,16.116
			c5.06,5.072,11.824,7.856,19.02,7.856c7.208,0,13.968-2.784,19.028-7.856l183.96-183.952l183.952,183.952
			c5.068,5.072,11.824,7.856,19.024,7.856h0.008c7.204,0,13.96-2.784,19.028-7.856l16.12-16.116
			c5.06-5.064,7.852-11.824,7.852-19.028c0-7.204-2.792-13.96-7.852-19.028L300.188,246z"/>
	</g>
</g>
<g>
</g>
<g>
</g>
<g>
</g>
<g>
</g>
<g>
</g>
<g>
</g>
<g>
</g>
<g>
</g>
<g>
</g>
<g>
</g>
<g>
</g>
<g>
</g>
<g>
</g>
<g>
</g>
<g>
</g>
</symbol><symbol id="confirm" viewBox="0 -46 417.81333 417"><path d="m159.988281 318.582031c-3.988281 4.011719-9.429687 6.25-15.082031 6.25s-11.09375-2.238281-15.082031-6.25l-120.449219-120.46875c-12.5-12.5-12.5-32.769531 0-45.246093l15.082031-15.085938c12.503907-12.5 32.75-12.5 45.25 0l75.199219 75.203125 203.199219-203.203125c12.503906-12.5 32.769531-12.5 45.25 0l15.082031 15.085938c12.5 12.5 12.5 32.765624 0 45.246093zm0 0"/></symbol><symbol id="duplicate" viewBox="0 0 55.699 55.699">
<g>
	<path d="M51.51,18.001c-0.006-0.085-0.022-0.167-0.05-0.248c-0.012-0.034-0.02-0.067-0.035-0.1
		c-0.049-0.106-0.109-0.206-0.194-0.291v-0.001l0,0c0,0-0.001-0.001-0.001-0.002L34.161,0.293c-0.086-0.087-0.188-0.148-0.295-0.197
		c-0.027-0.013-0.057-0.02-0.086-0.03c-0.086-0.029-0.174-0.048-0.265-0.053C33.494,0.011,33.475,0,33.453,0H22.177
		c-3.678,0-6.669,2.992-6.669,6.67v1.674h-4.663c-3.678,0-6.67,2.992-6.67,6.67V49.03c0,3.678,2.992,6.669,6.67,6.669h22.677
		c3.677,0,6.669-2.991,6.669-6.669v-1.675h4.664c3.678,0,6.669-2.991,6.669-6.669V18.069C51.524,18.045,51.512,18.025,51.51,18.001z
		 M34.454,3.414l13.655,13.655h-8.985c-2.575,0-4.67-2.095-4.67-4.67V3.414z M38.191,49.029c0,2.574-2.095,4.669-4.669,4.669H10.845
		c-2.575,0-4.67-2.095-4.67-4.669V15.014c0-2.575,2.095-4.67,4.67-4.67h5.663h4.614v10.399c0,3.678,2.991,6.669,6.668,6.669h10.4
		v18.942L38.191,49.029L38.191,49.029z M36.777,25.412h-8.986c-2.574,0-4.668-2.094-4.668-4.669v-8.985L36.777,25.412z
		 M44.855,45.355h-4.664V26.412c0-0.023-0.012-0.044-0.014-0.067c-0.006-0.085-0.021-0.167-0.049-0.249
		c-0.012-0.033-0.021-0.066-0.036-0.1c-0.048-0.105-0.109-0.205-0.194-0.29l0,0l0,0c0-0.001-0.001-0.002-0.001-0.002L22.829,8.637
		c-0.087-0.086-0.188-0.147-0.295-0.196c-0.029-0.013-0.058-0.021-0.088-0.031c-0.086-0.03-0.172-0.048-0.263-0.053
		c-0.021-0.002-0.04-0.013-0.062-0.013h-4.614V6.67c0-2.575,2.095-4.67,4.669-4.67h10.277v10.4c0,3.678,2.992,6.67,6.67,6.67h10.399
		v21.616C49.524,43.26,47.429,45.355,44.855,45.355z"/>
</g>
<g>
</g>
<g>
</g>
<g>
</g>
<g>
</g>
<g>
</g>
<g>
</g>
<g>
</g>
<g>
</g>
<g>
</g>
<g>
</g>
<g>
</g>
<g>
</g>
<g>
</g>
<g>
</g>
<g>
</g>
</symbol><symbol id="earth" viewBox="-2 0 402 402.77333"><path d="m317.273438 204.800781c0 67.863281-55.015626 122.878907-122.878907 122.878907s-122.878906-55.015626-122.878906-122.878907c0-67.867187 55.015625-122.878906 122.878906-122.878906s122.878907 55.011719 122.878907 122.878906zm0 0" fill="#94c1ff" fill-rule="evenodd"/><path d="m194.394531 334.507812c-71.519531 0-129.707031-58.1875-129.707031-129.707031s58.1875-129.707031 129.707031-129.707031 129.707031 58.1875 129.707031 129.707031-58.1875 129.707031-129.707031 129.707031zm0-245.761718c-63.992187 0-116.054687 52.0625-116.054687 116.054687 0 63.992188 52.0625 116.050781 116.054687 116.050781 63.992188 0 116.054688-52.058593 116.054688-116.050781 0-63.992187-52.0625-116.054687-116.054688-116.054687zm0 0" fill="#0e65e5"/><path d="m163.898438 121.027344c-2.851563 0-5.511719-1.800782-6.46875-4.65625-1.203126-3.574219.71875-7.441406 4.292968-8.644532 17.445313-5.867187 36.605469-6.894531 54.613282-2.96875 3.683593.804688 6.015624 4.441407 5.214843 8.125-.808593 3.683594-4.464843 6.011719-8.128906 5.214844-15.59375-3.402344-32.230469-2.515625-47.347656 2.570313-.71875.242187-1.457031.359375-2.175781.359375zm0 0" fill="#fff"/><path d="m76.390625 170.542969c10.582031 2.242187 20.5 5.679687 23.121094 10.925781 6.222656 12.441406 18.667969 12.441406 31.109375 0 12.445312-12.445312 31.109375-24.886719 12.445312-43.554688-9.316406-9.3125-12.378906-24.683593-13.109375-37.742187-25.636719 15.820313-44.996093 40.796875-53.566406 70.371094zm0 0" fill="#d7e9ff" fill-rule="evenodd"/><path d="m112.695312 197.625c-1.089843 0-2.167968-.085938-3.230468-.257812-6.765625-1.097657-12.46875-5.660157-16.0625-12.847657-.015625-.035156-2.089844-3.839843-18.425782-7.292969-1.855468-.394531-3.464843-1.542968-4.445312-3.171874-.972656-1.625-1.230469-3.585938-.699219-5.410157 8.964844-30.929687 29.046875-57.3125 56.539063-74.28125 2.046875-1.269531 4.609375-1.355469 6.746094-.242187 2.132812 1.109375 3.523437 3.269531 3.65625 5.671875.597656 10.714843 3.015624 25.191406 11.117187 33.300781 6.671875 6.667969 10 13.605469 9.894531 20.617188-.175781 11.632812-9.457031 20.371093-17.648437 28.085937-1.601563 1.507813-3.191407 3.003906-4.6875 4.5-7.390625 7.390625-15.355469 11.328125-22.753907 11.328125zm-27.550781-31.972656c11.144531 3.140625 17.722657 7.265625 20.472657 12.761718 1.621093 3.25 3.652343 5.089844 6.03125 5.476563 3.746093.625 8.925781-2.03125 14.144531-7.25 1.589843-1.589844 3.28125-3.183594 4.984375-4.789063 6.523437-6.144531 13.269531-12.492187 13.355468-18.347656.046876-3.179687-1.9375-6.800781-5.894531-10.761718-7.015625-7.015626-11.652343-17.246094-13.839843-30.503907-18.027344 13.628907-31.648438 32.144531-39.253907 53.414063zm0 0" fill="#0e65e5"/><path d="m161.730469 299.683594s12.441406-37.332032 0-43.554688c-12.445313-6.222656-24.886719 0-31.109375-18.664062-6.222656-18.667969 0-24.886719 18.664062-31.109375 18.664063-6.222657 43.550782 0 49.773438 24.886719 6.222656 24.886718-6.222656 37.328124-12.441406 62.21875-4.527344 18.109374-24.886719 6.222656-24.886719 6.222656zm0 0" fill="#d7e9ff" fill-rule="evenodd"/><path d="m174.808594 310.328125c-8.078125 0-15.472656-4.136719-16.519532-4.746094-2.789062-1.628906-4.054687-4.992187-3.035156-8.054687 5.582032-16.789063 6.5625-33.722656 3.421875-35.292969-3.140625-1.566406-6.476562-2.160156-10.007812-2.78125-8.476563-1.492187-19.03125-3.351563-24.523438-19.832031-2.582031-7.75-4.828125-17.730469.796875-26.164063 4.660156-6.988281 13.417969-10.652343 22.191406-13.578125 12.894532-4.300781 27.265626-3.203125 38.433594 2.925782 10.175782 5.582031 17.128906 14.84375 20.117188 26.78125 4.757812 19.03125-.289063 31.863281-5.632813 45.453124-2.421875 6.15625-4.925781 12.527344-6.808593 20.078126-2.128907 8.5-7.058594 12.171874-10.820313 13.757812-2.488281 1.050781-5.085937 1.453125-7.613281 1.453125zm-13.078125-10.644531h.066406zm8.316406-3.832032c2.59375.796876 5.347656 1.175782 7.085937.4375.480469-.203124 1.949219-.832031 2.859376-4.484374 2.105468-8.40625 4.890624-15.5 7.351562-21.761719 5.101562-12.976563 8.789062-22.355469 5.09375-37.144531-2.066406-8.269532-6.589844-14.363282-13.441406-18.125-7.898438-4.335938-18.210938-5.0625-27.550782-1.941407-8.605468 2.867188-13.277343 5.398438-15.144531 8.199219-1.132812 1.699219-2.285156 5.027344.796875 14.273438 2.917969 8.761718 6.371094 9.371093 13.9375 10.703124 4.136719.726563 8.828125 1.554688 13.75 4.015626 13.976563 6.988281 9.105469 32.210937 5.261719 45.828124zm0 0" fill="#0e65e5"/><path d="m257.976562 99.632812c-18.570312 18.160157-38.753906 40.855469-27.808593 44.503907 18.667969 6.222656 31.109375 12.445312 31.109375 12.445312s-6.222656 18.664063-24.886719 18.664063-43.550781 0-43.550781 6.222656 37.328125 31.109375 37.328125 37.332031c0 6.21875 8.046875 32.929688 12.445312 37.328125 6.222657 6.222656 24.886719 12.445313 31.109375-12.441406s0-43.554688 12.441406-49.777344c6.957032-3.476562 15.855469-20.40625 22.351563-34.664062-9.960937-24.933594-27.828125-45.851563-50.539063-59.613282zm0 0" fill="#d7e9ff" fill-rule="evenodd"/><path d="m256.203125 268.519531c-7.414063 0-14.382813-3.527343-18.417969-7.5625-5.765625-5.769531-13.558594-31.925781-14.371094-40.828125-2.0625-2.902344-10.558593-9.984375-16.28125-14.753906-15.648437-13.035156-21.125-18.117188-21.125-23.910156 0-12.441406 18.203126-13.046875 50.382813-13.046875 7.882813 0 12.800781-4.667969 15.550781-8.621094-5.308594-2.328125-13.679687-5.769531-23.929687-9.1875-3.878907-1.292969-6.601563-4.183594-7.464844-7.933594-1.484375-6.453125 1.230469-17.199219 32.65625-47.925781 2.222656-2.179688 5.644531-2.570312 8.3125-.957031 23.992187 14.539062 42.9375 36.882812 53.34375 62.917969.6875 1.730468.640625 3.667968-.132813 5.367187-13.324218 29.238281-20.941406 35.65625-25.507812 37.941406-3.828125 1.90625-4.484375 6.636719-5.265625 18.660157-.480469 7.375-1.082031 16.558593-3.609375 26.664062-3.84375 15.390625-12.039062 20.667969-18.234375 22.382812-1.96875.550782-3.953125.792969-5.90625.792969zm-53.523437-85.0625c3.558593 3.402344 9.089843 8.007813 13.191406 11.433594 15.648437 13.035156 21.125 18.113281 21.125 23.910156 0 4.894531 7.402344 28.867188 10.523437 32.585938 1.917969 1.914062 6.796875 4.320312 10.941407 3.1875 4.882812-1.355469 7.390624-7.566407 8.636718-12.546875 2.230469-8.910156 2.757813-17.050782 3.230469-24.238282.816406-12.539062 1.589844-24.386718 12.78125-29.980468.625-.316406 6.289063-3.714844 17.957031-28.707032-8.816406-20.53125-23.609375-38.328124-42.164062-50.78125-18.328125 18.375-23.21875 26.824219-24.527344 30.03125 17.765625 6.0625 29.449219 11.871094 29.953125 12.125 3.039063 1.519532 4.5 5.042969 3.425781 8.261719-.316406.953125-8.042968 23.335938-31.363281 23.335938-8.835937 0-25.328125 0-33.710937 1.382812zm0 0" fill="#0e65e5"/><path d="m31.71875 398.792969c-9.5625 0-17.40625-2.601563-23.058594-8.261719-31.953125-31.949219 37.433594-126.996094 59.460938-155.367188 2.316406-2.980468 6.597656-3.515624 9.578125-1.207031 2.976562 2.3125 3.515625 6.601563 1.207031 9.578125-59.441406 76.558594-73.078125 124.859375-60.59375 137.34375 17.53125 17.546875 105.65625-19.746094 219.039062-133.117187 113.378907-113.378907 150.675782-201.480469 133.121094-219.042969-12.460937-12.445312-60.640625 1.113281-137.007812 60.332031-2.96875 2.3125-7.273438 1.777344-9.574219-1.210937-2.3125-2.980469-1.769531-7.265625 1.210937-9.574219 28.304688-21.949219 123.144532-91.070313 155.027344-59.199219 34.171875 34.171875-43.082031 148.304688-133.121094 238.347656-75.140624 75.136719-167.0625 141.378907-215.289062 141.378907zm0 0" fill="#0e65e5"/><path d="m357.066406 398.792969c-48.21875.007812-140.140625-66.234375-215.285156-141.378907-90.042969-90.042968-167.292969-204.175781-133.121094-238.347656 31.882813-31.890625 126.722656 37.246094 155.027344 59.199219 2.980469 2.308594 3.519531 6.59375 1.207031 9.574219-2.308593 2.988281-6.597656 3.523437-9.574219 1.210937-76.363281-59.21875-124.542968-72.777343-137.007812-60.332031-17.554688 17.5625 19.746094 105.664062 133.121094 219.042969 113.386718 113.378906 201.484375 150.660156 219.039062 133.117187 12.484375-12.480468-1.152344-60.785156-60.589844-137.34375-2.3125-2.976562-1.773437-7.265625 1.203126-9.578125 2.972656-2.3125 7.269531-1.773437 9.582031 1.207031 22.023437 28.371094 91.410156 123.417969 59.460937 155.367188-5.65625 5.65625-13.503906 8.257812-23.0625 8.261719zm0 0" fill="#0e65e5"/><path d="m392.367188 88.746094c0 15.082031-12.226563 27.308594-27.304688 27.308594-15.082031 0-27.308594-12.226563-27.308594-27.308594 0-15.082032 12.226563-27.304688 27.308594-27.304688 15.078125 0 27.304688 12.222656 27.304688 27.304688zm0 0" fill="#94c1ff" fill-rule="evenodd"/><path d="m365.0625 122.878906c-18.820312 0-34.136719-15.3125-34.136719-34.132812 0-18.820313 15.316407-34.132813 34.136719-34.132813 18.816406 0 34.132812 15.3125 34.132812 34.132813 0 18.820312-15.316406 34.132812-34.132812 34.132812zm0-54.613281c-11.292969 0-20.480469 9.1875-20.480469 20.480469 0 11.292968 9.1875 20.480468 20.480469 20.480468s20.476562-9.1875 20.476562-20.480468c0-11.292969-9.183593-20.480469-20.476562-20.480469zm0 0" fill="#0e65e5"/><path d="m160.261719 238.933594c0 15.082031-12.226563 27.304687-27.308594 27.304687-15.078125 0-27.304687-12.222656-27.304687-27.304687 0-15.082032 12.226562-27.308594 27.304687-27.308594 15.082031 0 27.308594 12.226562 27.308594 27.308594zm0 0" fill="#d7e9ff" fill-rule="evenodd"/><g fill="#0e65e5"><path d="m132.953125 273.066406c-18.816406 0-34.132813-15.3125-34.132813-34.132812 0-18.820313 15.316407-34.132813 34.132813-34.132813 18.820313 0 34.132813 15.3125 34.132813 34.132813 0 18.820312-15.3125 34.132812-34.132813 34.132812zm0-54.613281c-11.292969 0-20.480469 9.1875-20.480469 20.480469 0 11.292968 9.1875 20.480468 20.480469 20.480468s20.480469-9.1875 20.480469-20.480468c0-11.292969-9.1875-20.480469-20.480469-20.480469zm0 0"/><path d="m119.300781 40.960938c0 15.082031-12.226562 27.304687-27.304687 27.304687-15.082032 0-27.308594-12.222656-27.308594-27.304687 0-15.082032 12.226562-27.308594 27.308594-27.308594 15.078125 0 27.304687 12.226562 27.304687 27.308594zm0 0" fill-rule="evenodd"/><path d="m91.996094 75.09375c-18.820313 0-34.136719-15.3125-34.136719-34.132812 0-18.820313 15.316406-34.132813 34.136719-34.132813 18.816406 0 34.132812 15.3125 34.132812 34.132813 0 18.820312-15.316406 34.132812-34.132812 34.132812zm0-54.613281c-11.292969 0-20.480469 9.1875-20.480469 20.480469 0 11.292968 9.1875 20.480468 20.480469 20.480468 11.292968 0 20.476562-9.1875 20.476562-20.480468 0-11.292969-9.183594-20.480469-20.476562-20.480469zm0 0"/><path d="m324.101562 368.640625c0 15.082031-12.226562 27.304687-27.308593 27.304687-15.078125 0-27.304688-12.222656-27.304688-27.304687s12.226563-27.308594 27.304688-27.308594c15.082031 0 27.308593 12.226563 27.308593 27.308594zm0 0" fill-rule="evenodd"/><path d="m296.792969 402.773438c-18.816407 0-34.132813-15.3125-34.132813-34.132813s15.316406-34.132813 34.132813-34.132813c18.820312 0 34.132812 15.3125 34.132812 34.132813s-15.3125 34.132813-34.132812 34.132813zm0-54.613282c-11.292969 0-20.480469 9.1875-20.480469 20.480469s9.1875 20.480469 20.480469 20.480469 20.480469-9.1875 20.480469-20.480469-9.1875-20.480469-20.480469-20.480469zm0 0"/><path d="m228.527344 40.960938c-3.769532 0-6.828125-3.058594-6.828125-6.828126v-27.304687c0-3.773437 3.058593-6.828125 6.828125-6.828125 3.769531 0 6.828125 3.054688 6.828125 6.828125v27.304687c0 3.769532-3.058594 6.828126-6.828125 6.828126zm0 0"/><path d="m242.179688 27.308594h-27.304688c-3.769531 0-6.828125-3.058594-6.828125-6.828125s3.058594-6.828125 6.828125-6.828125h27.304688c3.769531 0 6.828124 3.058594 6.828124 6.828125s-3.058593 6.828125-6.828124 6.828125zm0 0"/><path d="m64.6875 361.8125c-3.769531 0-6.828125-3.054688-6.828125-6.824219v-27.308593c0-3.769532 3.058594-6.828126 6.828125-6.828126s6.828125 3.058594 6.828125 6.828126v27.308593c0 3.769531-3.058594 6.824219-6.828125 6.824219zm0 0"/><path d="m78.339844 348.160156h-27.304688c-3.769531 0-6.828125-3.058594-6.828125-6.828125s3.058594-6.824219 6.828125-6.824219h27.304688c3.769531 0 6.828125 3.054688 6.828125 6.824219s-3.058594 6.828125-6.828125 6.828125zm0 0"/></g></symbol><symbol id="ellipsis" viewBox="0 0 408 408">
<g>
	<g id="keyboard-control">
		<path d="M51,153c-28.05,0-51,22.95-51,51s22.95,51,51,51s51-22.95,51-51S79.05,153,51,153z M357,153c-28.05,0-51,22.95-51,51
			s22.95,51,51,51s51-22.95,51-51S385.05,153,357,153z M204,153c-28.05,0-51,22.95-51,51s22.95,51,51,51s51-22.95,51-51
			S232.05,153,204,153z"/>
	</g>
</g>
<g>
</g>
<g>
</g>
<g>
</g>
<g>
</g>
<g>
</g>
<g>
</g>
<g>
</g>
<g>
</g>
<g>
</g>
<g>
</g>
<g>
</g>
<g>
</g>
<g>
</g>
<g>
</g>
<g>
</g>
</symbol><symbol id="expand" viewBox="0 0 490.667 490.667">
<g>
	<g>
		<path d="M423.531,67.136c-4.16-4.16-10.923-4.16-15.083,0L259.115,216.469c-4.16,4.16-4.16,10.923,0,15.083
			c2.091,2.069,4.821,3.115,7.552,3.115c2.731,0,5.461-1.045,7.531-3.115L423.531,82.219
			C427.691,78.059,427.691,71.296,423.531,67.136z"/>
	</g>
</g>
<g>
	<g>
		<path d="M416,64c-5.888,0-10.667,4.779-10.667,10.667v128c0,5.888,4.779,10.667,10.667,10.667c5.888,0,10.667-4.779,10.667-10.667
			v-128C426.667,68.779,421.888,64,416,64z"/>
	</g>
</g>
<g>
	<g>
		<path d="M416,64H288c-5.888,0-10.667,4.779-10.667,10.667S282.112,85.333,288,85.333h128c5.888,0,10.667-4.779,10.667-10.667
			S421.888,64,416,64z"/>
	</g>
</g>
<g>
	<g>
		<path d="M231.531,259.136c-4.16-4.16-10.923-4.16-15.083,0L67.115,408.469c-4.16,4.16-4.16,10.923,0,15.083
			c2.091,2.069,4.821,3.115,7.552,3.115c2.731,0,5.461-1.045,7.531-3.115l149.333-149.333
			C235.691,270.059,235.691,263.296,231.531,259.136z"/>
	</g>
</g>
<g>
	<g>
		<path d="M74.667,277.333C68.779,277.333,64,282.112,64,288v128c0,5.888,4.779,10.667,10.667,10.667S85.333,421.888,85.333,416V288
			C85.333,282.112,80.555,277.333,74.667,277.333z"/>
	</g>
</g>
<g>
	<g>
		<path d="M202.667,405.333h-128C68.779,405.333,64,410.112,64,416c0,5.888,4.779,10.667,10.667,10.667h128
			c5.888,0,10.667-4.779,10.667-10.667C213.333,410.112,208.555,405.333,202.667,405.333z"/>
	</g>
</g>
<g>
	<g>
		<path d="M458.667,0H32C14.357,0,0,14.357,0,32v426.667c0,17.643,14.357,32,32,32h426.667c17.643,0,32-14.357,32-32V32
			C490.667,14.357,476.309,0,458.667,0z M469.333,458.667c0,5.867-4.8,10.667-10.667,10.667H32c-5.867,0-10.667-4.8-10.667-10.667
			V32c0-5.867,4.8-10.667,10.667-10.667h426.667c5.867,0,10.667,4.8,10.667,10.667V458.667z"/>
	</g>
</g>
<g>
</g>
<g>
</g>
<g>
</g>
<g>
</g>
<g>
</g>
<g>
</g>
<g>
</g>
<g>
</g>
<g>
</g>
<g>
</g>
<g>
</g>
<g>
</g>
<g>
</g>
<g>
</g>
<g>
</g>
</symbol><symbol id="folder" viewBox="0 0 468.293 468.293">
<path style="fill:#3A3931;" d="M443.317,413.9H24.976C11.182,413.9,0,402.718,0,388.924V79.368
	c0-13.794,11.182-24.976,24.976-24.976h118.096c9.023,0,17.345,4.867,21.769,12.732l13.773,24.487
	c4.423,7.865,12.745,12.732,21.769,12.732h242.936c13.794,0,24.976,11.182,24.976,24.976v259.605
	C468.293,402.718,457.111,413.9,443.317,413.9z"/>
<path style="fill:#888888;" d="M24.976,413.9h418.341c13.794,0,24.976-11.182,24.976-24.976V129.32
	c0-13.794-11.182-24.976-24.976-24.976H262.782c-9.023,0-17.345,4.867-21.769,12.732l-13.773,24.487
	c-4.423,7.865-12.745,12.732-21.769,12.732H24.976C11.182,154.295,0,165.477,0,179.271v209.653C0,402.718,11.182,413.9,24.976,413.9
	z"/>
<path style="fill:#3A3931;" d="M453.559,106.59c1.414,3.132,2.245,6.582,2.245,10.242v259.604c0,13.793-11.182,24.976-24.976,24.976
	H12.488c-3.66,0-7.11-0.831-10.242-2.245c3.916,8.671,12.597,14.733,22.73,14.733h418.341c13.794,0,24.976-11.182,24.976-24.976
	V129.32C468.293,119.186,462.232,110.506,453.559,106.59z"/>
<g>
</g>
<g>
</g>
<g>
</g>
<g>
</g>
<g>
</g>
<g>
</g>
<g>
</g>
<g>
</g>
<g>
</g>
<g>
</g>
<g>
</g>
<g>
</g>
<g>
</g>
<g>
</g>
<g>
</g>
</symbol><symbol id="home" viewBox="0 0 512.001 512.001">
<g>
	<g>
		<path d="M503.402,228.885L273.684,19.567c-10.083-9.189-25.288-9.188-35.367-0.001L8.598,228.886
			c-8.077,7.36-10.745,18.7-6.799,28.889c3.947,10.189,13.557,16.772,24.484,16.772h36.69v209.721
			c0,8.315,6.742,15.057,15.057,15.057h125.914c8.315,0,15.057-6.741,15.057-15.057V356.932h74.002v127.337
			c0,8.315,6.742,15.057,15.057,15.057h125.908c8.315,0,15.057-6.741,15.057-15.057V274.547h36.697
			c10.926,0,20.537-6.584,24.484-16.772C514.147,247.585,511.479,236.246,503.402,228.885z"/>
	</g>
</g>
<g>
	<g>
		<path d="M445.092,42.73H343.973l116.176,105.636v-90.58C460.149,49.471,453.408,42.73,445.092,42.73z"/>
	</g>
</g>
<g>
</g>
<g>
</g>
<g>
</g>
<g>
</g>
<g>
</g>
<g>
</g>
<g>
</g>
<g>
</g>
<g>
</g>
<g>
</g>
<g>
</g>
<g>
</g>
<g>
</g>
<g>
</g>
<g>
</g>
</symbol><symbol id="kmz" viewBox="0 0 399.633 550.801">
<g>
	<g>
		<path d="m399.495,132c-0.031,-2.529 -0.828,-5.023 -2.562,-6.995l-106.208,-121.311c-0.021,-0.031 -0.053,-0.042 -0.085,-0.074c-0.633,-0.709 -1.36,-1.292 -2.141,-1.803c-0.232,-0.153 -0.464,-0.288 -0.707,-0.422c-0.686,-0.369 -1.392,-0.67 -2.13,-0.892c-0.2,-0.061 -0.38,-0.14 -0.58,-0.195c-0.812,-0.189 -1.634,-0.308 -2.478,-0.308l-261.004,0c-11.907,0 -21.6,9.695 -21.6,21.601l0,507.6c0,11.913 9.692,21.601 21.6,21.601l356.4,0c11.918,0 21.6,-9.688 21.6,-21.601l0,-395.991c0,-0.406 -0.063,-0.812 -0.105,-1.21zm-305.601,380.947l-27.383,-48.283l-9.621,11.781l0,36.508l-25.057,0l0,-111.85l25.057,0l0,49.449l0.501,0c2.489,-4.314 5.142,-8.301 7.636,-12.277l25.387,-37.172l31.031,0l-37.006,47.624l38.995,64.22l-29.54,0zm136.06,0l-1.655,-42.82c-0.496,-13.431 -1.002,-29.699 -1.002,-45.952l-0.497,0c-3.491,14.265 -8.126,30.185 -12.445,43.306l-13.605,43.643l-19.746,0l-11.944,-43.316c-3.652,-13.109 -7.465,-29.035 -10.125,-43.632l-0.335,0c-0.665,15.093 -1.163,32.342 -1.988,46.285l-1.993,42.482l-23.398,0l7.14,-111.845l33.684,0l10.95,37.336c3.483,12.941 6.966,26.885 9.458,39.983l0.496,0c3.153,-12.936 6.971,-27.706 10.62,-40.151l11.947,-37.173l33.022,0l6.138,111.845l-24.722,0l0,0.009zm123.936,0l-86.948,0l0,-13.615l53.262,-76.655l0,-0.664l-48.284,0l0,-20.909l81.143,0l0,14.602l-52.106,75.669l0,0.664l52.935,0l0,20.908l-0.002,0zm-332.29,-146.189l0,-345.153l250.204,0l0,110.519c0,5.961 4.83,10.8 10.8,10.8l95.396,0l0.011,223.834l-356.411,0z"/>
		<g>
			<path d="m199.692,64.505c72.449,-0.276 132.889,59.034 132.746,132.92c-0.138,72.101 -59.537,133.046 -133.854,132.492c-72.838,-0.564 -131.661,-61.617 -131.424,-133.317c0.243,-72.463 59.983,-132.301 132.532,-132.095zm-117.568,96.691c0.433,0.309 0.865,0.606 1.295,0.912c1.312,-0.794 2.734,-1.463 3.91,-2.418c2.618,-2.138 5.07,-4.498 7.673,-6.657c15.617,-12.968 32.616,-16.757 51.371,-7.317c6.344,3.19 12.696,6.516 18.602,10.437c26.109,17.328 51.674,35.521 78.205,52.165c20.999,13.181 43.875,22.61 68.46,27.382c3.797,0.741 5.506,-0.253 6.223,-3.644c0.991,-4.617 1.571,-9.337 2.821,-13.877c0.828,-2.987 -0.274,-4.095 -2.811,-4.688c-13.078,-3.082 -25.07,-8.878 -35.495,-17.01c-19.074,-14.881 -37.605,-30.478 -56.083,-46.105c-12.794,-10.826 -24.943,-22.409 -37.689,-33.302c-17.305,-14.769 -37.589,-17.497 -59.173,-13.176c-5.329,1.062 -11.588,2.252 -15.325,5.664c-12.852,11.752 -23.042,25.716 -29.133,42.282c-1.119,3.051 -1.913,6.236 -2.851,9.352zm219.053,105.403c-0.496,-0.529 -0.981,-1.046 -1.477,-1.576c-1.566,0.396 -3.144,0.757 -4.699,1.184c-16.675,4.567 -33.597,8.564 -50.904,7.699c-14.935,-0.751 -29.916,-2.787 -44.621,-5.579c-25.423,-4.831 -48.977,-15.414 -72.792,-25.196c-7.538,-3.093 -15.704,-5.762 -23.738,-6.308c-10.747,-0.732 -16.648,10.136 -11.541,19.42c12.01,21.821 29.049,38.586 51.073,50.229c1.767,0.928 3.786,1.371 6.692,2.399c-0.583,-2.896 -0.838,-4.52 -1.237,-6.097c-2.916,-11.585 1.814,-16.437 13.688,-13.99c1.653,0.343 3.312,0.675 4.954,1.107c28.569,7.372 57.431,10.821 86.867,6.381c15.567,-2.352 30.786,-5.374 40.531,-19.723c2.3,-3.395 4.799,-6.646 7.204,-9.95zm-136.58,-186.851c0.087,0.707 0.172,1.405 0.259,2.112c1.236,0.206 2.463,0.546 3.699,0.604c6.415,0.358 12.83,0.585 19.24,0.973c23.453,1.421 44.146,9.851 60.057,27.108c12.351,13.387 22.739,28.582 34.383,42.654c5.136,6.225 10.811,12.139 16.948,17.378c4.62,3.937 10.173,3.375 14.075,0.192c4.267,-3.478 4.952,-6.787 2.769,-13.239c-7.688,-22.805 -21.146,-41.7 -40.136,-56.252c-27.527,-21.12 -58.726,-30.048 -93.377,-25.444c-6.03,0.797 -11.949,2.585 -17.917,3.914z"/>
		</g>
	</g>
</g>
<g>
</g>
<g>
</g>
<g>
</g>
<g>
</g>
<g>
</g>
<g>
</g>
<g>
</g>
<g>
</g>
<g>
</g>
<g>
</g>
<g>
</g>
<g>
</g>
<g>
</g>
<g>
</g>
<g>
</g>
</symbol><symbol id="layers" viewBox="0 0 510.818 510.818"><g><path d="m475.412 277.586c4.441-1.966 7.311-6.374 7.311-11.23s-2.87-9.265-7.311-11.23l-69.766-30.879v-32.771l69.766-30.879c4.441-1.966 7.311-6.374 7.311-11.23s-2.87-9.265-7.311-11.23l-69.766-30.879v-99.758c0-4.142-3.358-7.5-7.5-7.5s-7.5 3.358-7.5 7.5v93.117l-130.267-57.657c-3.158-1.397-6.781-1.397-9.941 0l-54.536 24.138c-3.788 1.677-5.499 6.106-3.823 9.894s6.107 5.499 9.894 3.823l53.436-23.651 135.237 59.857v19.837c0 4.142 3.358 7.5 7.5 7.5s7.5-3.358 7.5-7.5v-13.198l58.078 25.706-113.629 50.293-34.026-15.06c-3.788-1.676-8.217.036-9.894 3.823-1.676 3.788.035 8.217 3.823 9.894l21.566 9.545-76.155 33.707-76.155-33.707 21.566-9.545c3.788-1.677 5.499-6.106 3.823-9.894-1.677-3.788-6.105-5.499-9.894-3.823l-34.026 15.06-113.629-50.293 59.078-26.148v13.64c0 4.142 3.358 7.5 7.5 7.5s7.5-3.358 7.5-7.5v-20.279l50.946-22.549c3.788-1.677 5.499-6.106 3.823-9.894-1.677-3.788-6.108-5.5-9.894-3.823l-44.875 19.862v-92.675c0-4.142-3.358-7.5-7.5-7.5s-7.5 3.358-7.5 7.5v99.314l-70.766 31.322c-4.441 1.966-7.311 6.374-7.311 11.23s2.87 9.265 7.311 11.23l70.766 31.322v31.886l-70.766 31.322c-4.441 1.966-7.311 6.374-7.311 11.23s2.87 9.265 7.311 11.23l70.766 31.322v37.198l-70.766 31.322c-4.441 1.966-7.311 6.374-7.311 11.23s2.87 9.265 7.311 11.23l70.766 31.322v57.28l-14.841-10.918c-3.337-2.454-8.032-1.74-10.486 1.597-2.455 3.337-1.739 8.031 1.597 10.486l26.786 19.704c1.322.972 2.883 1.458 4.444 1.458s3.123-.486 4.444-1.458l26.786-19.704c3.336-2.455 4.052-7.149 1.597-10.486-2.455-3.336-7.149-4.051-10.486-1.597l-14.841 10.918v-50.641l129.267 57.214c1.579.699 3.275 1.048 4.97 1.048s3.391-.35 4.971-1.048l48.706-21.557c3.788-1.677 5.499-6.106 3.823-9.894-1.677-3.788-6.106-5.498-9.894-3.823l-47.605 21.07-208.316-92.201 59.078-26.148v21.466c0 4.142 3.358 7.5 7.5 7.5s7.5-3.358 7.5-7.5v-28.106l45.553-20.162 83.714 37.052c1.579.699 3.274 1.048 4.97 1.048 1.695 0 3.391-.35 4.971-1.048l83.714-37.052 46.553 20.604v27.662c0 4.142 3.358 7.5 7.5 7.5s7.5-3.358 7.5-7.5v-21.023l58.078 25.706-130.854 57.917c-3.788 1.677-5.499 6.106-3.823 9.894 1.24 2.801 3.985 4.466 6.862 4.466 1.014 0 2.045-.207 3.032-.644l51.706-22.885v51.084l-14.841-10.918c-3.337-2.454-8.031-1.74-10.486 1.597s-1.739 8.031 1.597 10.486l26.786 19.704c1.322.972 2.883 1.458 4.444 1.458s3.123-.486 4.444-1.458l26.786-19.704c3.336-2.455 4.052-7.149 1.597-10.486-2.455-3.336-7.149-4.051-10.486-1.597l-14.841 10.918v-57.723l69.766-30.879c4.441-1.966 7.311-6.374 7.311-11.23s-2.87-9.265-7.311-11.23l-69.766-30.879v-38.083zm-84.766-79.472v19.493l-22.02-9.746zm-269.474.443 21.02 9.304-21.02 9.304zm0 140.909v-23.92l27.022 11.96zm134.237 19.091-70.153-31.05 15.565-6.889c3.788-1.677 5.499-6.106 3.823-9.894-1.677-3.788-6.107-5.498-9.894-3.823l-28.024 12.404-50.106-22.177c-.014-.006-.027-.012-.041-.018l-69.483-30.754 59.078-26.148v25.658c0 4.142 3.358 7.5 7.5 7.5s7.5-3.358 7.5-7.5v-32.297l39.551-17.506 89.715 39.708c1.579.699 3.274 1.048 4.97 1.048 1.695 0 3.391-.35 4.971-1.048l89.715-39.708 40.551 17.948v31.854c0 4.142 3.358 7.5 7.5 7.5s7.5-3.358 7.5-7.5v-25.215l58.078 25.706-119.63 52.949-28.024-12.404c-3.788-1.677-8.217.036-9.894 3.823-1.676 3.788.035 8.217 3.823 9.894l15.565 6.889zm135.237-18.648-28.022-12.403 28.022-12.403z"/><path d="m237.881 181.912 17.528-7.758 17.528 7.758c.987.437 2.017.644 3.032.644 2.877 0 5.623-1.666 6.862-4.466 1.676-3.788-.035-8.217-3.823-9.894l-18.629-8.245c-3.158-1.397-6.781-1.398-9.941 0l-18.628 8.245c-3.788 1.677-5.499 6.106-3.823 9.894 1.676 3.787 6.107 5.495 9.894 3.822z"/><path d="m279.008 290.497-18.626-8.244c-3.16-1.4-6.785-1.399-9.943-.001l-18.628 8.245c-3.788 1.676-5.5 6.106-3.823 9.894 1.677 3.789 6.107 5.5 9.894 3.823l17.528-7.758 17.528 7.758c.987.437 2.017.644 3.031.644 2.877 0 5.623-1.666 6.862-4.467 1.676-3.788-.035-8.218-3.823-9.894z"/></g></symbol><symbol id="link" viewBox="0 0 477.389 477.389">
<g>
	<g>
		<path d="M451.209,68.647c-16.787-16.799-39.564-26.234-63.312-26.226v0c-23.739-0.056-46.516,9.376-63.266,26.197L209.056,184.194
			c-22.867,22.903-31.609,56.356-22.869,87.518c2.559,9.072,11.988,14.352,21.06,11.793c9.072-2.559,14.352-11.988,11.793-21.06
			c-5.388-19.271,0.018-39.95,14.148-54.118L348.763,92.768c21.608-21.613,56.646-21.617,78.259-0.008
			c21.613,21.608,21.617,56.646,0.009,78.259L311.456,286.594c-7.574,7.584-17.193,12.797-27.682,15.002
			c-9.228,1.921-15.151,10.959-13.23,20.187c1.652,7.935,8.657,13.613,16.762,13.588c1.193,0.001,2.383-0.125,3.55-0.375
			c16.951-3.575,32.494-12.007,44.732-24.269l115.576-115.558C486.114,160.243,486.134,103.598,451.209,68.647z"/>
	</g>
</g>
<g>
	<g>
		<path d="M290.702,206.142c-2.559-9.072-11.988-14.352-21.06-11.793s-14.352,11.988-11.793,21.06
			c5.388,19.271-0.018,39.95-14.148,54.118L128.125,385.103c-21.608,21.613-56.646,21.617-78.259,0.008
			c-21.613-21.608-21.617-56.646-0.009-78.259l115.576-115.593c7.562-7.582,17.17-12.795,27.648-15.002
			c9.243-1.849,15.237-10.84,13.388-20.082s-10.84-15.237-20.082-13.388c-0.113,0.023-0.225,0.046-0.337,0.071
			c-16.954,3.579-32.502,12.011-44.749,24.269L25.725,282.703c-34.676,35.211-34.242,91.865,0.969,126.541
			c34.827,34.297,90.731,34.301,125.563,0.008l115.575-115.593C290.7,270.756,299.442,237.303,290.702,206.142z"/>
	</g>
</g>
<g>
</g>
<g>
</g>
<g>
</g>
<g>
</g>
<g>
</g>
<g>
</g>
<g>
</g>
<g>
</g>
<g>
</g>
<g>
</g>
<g>
</g>
<g>
</g>
<g>
</g>
<g>
</g>
<g>
</g>
</symbol><symbol id="location" viewBox="-119 -21 682 682.66669"><path d="m216.210938 0c-122.664063 0-222.460938 99.796875-222.460938 222.460938 0 154.175781 222.679688 417.539062 222.679688 417.539062s222.242187-270.945312 222.242187-417.539062c0-122.664063-99.792969-222.460938-222.460937-222.460938zm67.121093 287.597656c-18.507812 18.503906-42.8125 27.757813-67.121093 27.757813-24.304688 0-48.617188-9.253907-67.117188-27.757813-37.011719-37.007812-37.011719-97.226562 0-134.238281 17.921875-17.929687 41.761719-27.804687 67.117188-27.804687 25.355468 0 49.191406 9.878906 67.121093 27.804687 37.011719 37.011719 37.011719 97.230469 0 134.238281zm0 0"/></symbol><symbol id="navigation" viewBox="0 0 51.636 51.636">
<path d="M51.353,0.914c-0.295-0.305-0.75-0.39-1.135-0.213L0.583,23.481c-0.399,0.184-0.632,0.605-0.574,1.041
	s0.393,0.782,0.826,0.854l22.263,3.731l2.545,21.038c0.054,0.438,0.389,0.791,0.824,0.865c0.057,0.01,0.113,0.015,0.169,0.015
	c0.375,0,0.726-0.211,0.896-0.556l24-48.415C51.72,1.675,51.648,1.218,51.353,0.914z M27.226,46.582l-2.232-18.457
	c-0.054-0.44-0.391-0.793-0.828-0.866L4.374,23.941L48.485,3.697L27.226,46.582z"/>
<g>
</g>
<g>
</g>
<g>
</g>
<g>
</g>
<g>
</g>
<g>
</g>
<g>
</g>
<g>
</g>
<g>
</g>
<g>
</g>
<g>
</g>
<g>
</g>
<g>
</g>
<g>
</g>
<g>
</g>
</symbol><symbol id="pencil" viewBox="0 0 128 128"><path d="m122.922 23.474-18.4-18.4a1.75 1.75 0 0 0 -2.474 0l-85 85a1.649 1.649 0 0 0 -.119.146c-.026.032-.054.061-.078.095a1.746 1.746 0 0 0 -.191.349l-6.919 17.563v.006l-5.054 12.809a1.751 1.751 0 0 0 2.271 2.271l12.809-5.052 17.559-6.925a1.773 1.773 0 0 0 .349-.191c.034-.024.063-.052.1-.078a1.794 1.794 0 0 0 .145-.119l61.73-61.728 23.267-23.268a1.75 1.75 0 0 0 .005-2.478zm-24.507 22.032-15.921-15.921 4.982-4.985 15.92 15.92zm-61.726 61.726-3.5-3.5 59.248-59.254 3.5 3.5zm-9.944-9.944 59.255-59.251 3.963 3.963-59.251 59.255zm-5.977-5.977 59.251-59.251 3.5 3.5-59.248 59.254zm-8.757 20.7 3.977 3.977-6.567 2.59zm7.526 2.577-6.126-6.126 5.532-14.028 4.088 4.088 6.436 6.436 4.088 4.088zm86.334-76.538-15.921-15.921 13.339-13.338 15.921 15.92z"/></symbol><symbol id="plus" viewBox="0 0 448 448"><path d="m408 184h-136c-4.417969 0-8-3.582031-8-8v-136c0-22.089844-17.910156-40-40-40s-40 17.910156-40 40v136c0 4.417969-3.582031 8-8 8h-136c-22.089844 0-40 17.910156-40 40s17.910156 40 40 40h136c4.417969 0 8 3.582031 8 8v136c0 22.089844 17.910156 40 40 40s40-17.910156 40-40v-136c0-4.417969 3.582031-8 8-8h136c22.089844 0 40-17.910156 40-40s-17.910156-40-40-40zm0 0"/></symbol><symbol id="trash" viewBox="-47 0 512 512"><path d="m416.875 114.441406-11.304688-33.886718c-4.304687-12.90625-16.339843-21.578126-29.941406-21.578126h-95.011718v-30.933593c0-15.460938-12.570313-28.042969-28.027344-28.042969h-87.007813c-15.453125 0-28.027343 12.582031-28.027343 28.042969v30.933593h-95.007813c-13.605469 0-25.640625 8.671876-29.945313 21.578126l-11.304687 33.886718c-2.574219 7.714844-1.2695312 16.257813 3.484375 22.855469 4.753906 6.597656 12.445312 10.539063 20.578125 10.539063h11.816406l26.007813 321.605468c1.933594 23.863282 22.183594 42.558594 46.109375 42.558594h204.863281c23.921875 0 44.175781-18.695312 46.105469-42.5625l26.007812-321.601562h6.542969c8.132812 0 15.824219-3.941407 20.578125-10.535157 4.753906-6.597656 6.058594-15.144531 3.484375-22.859375zm-249.320312-84.441406h83.0625v28.976562h-83.0625zm162.804687 437.019531c-.679687 8.402344-7.796875 14.980469-16.203125 14.980469h-204.863281c-8.40625 0-15.523438-6.578125-16.203125-14.980469l-25.816406-319.183593h288.898437zm-298.566406-349.183593 9.269531-27.789063c.210938-.640625.808594-1.070313 1.484375-1.070313h333.082031c.675782 0 1.269532.429688 1.484375 1.070313l9.269531 27.789063zm0 0"/><path d="m282.515625 465.957031c.265625.015625.527344.019531.792969.019531 7.925781 0 14.550781-6.210937 14.964844-14.21875l14.085937-270.398437c.429687-8.273437-5.929687-15.332031-14.199219-15.761719-8.292968-.441406-15.328125 5.925782-15.761718 14.199219l-14.082032 270.398437c-.429687 8.273438 5.925782 15.332032 14.199219 15.761719zm0 0"/><path d="m120.566406 451.792969c.4375 7.996093 7.054688 14.183593 14.964844 14.183593.273438 0 .554688-.007812.832031-.023437 8.269531-.449219 14.609375-7.519531 14.160157-15.792969l-14.753907-270.398437c-.449219-8.273438-7.519531-14.613281-15.792969-14.160157-8.269531.449219-14.609374 7.519532-14.160156 15.792969zm0 0"/><path d="m209.253906 465.976562c8.285156 0 15-6.714843 15-15v-270.398437c0-8.285156-6.714844-15-15-15s-15 6.714844-15 15v270.398437c0 8.285157 6.714844 15 15 15zm0 0"/></symbol><symbol id="animals" viewBox="0 -32 512.00011 512"><path d="m342.382812 239.351562c-23.039062-35.941406-62.277343-57.402343-104.964843-57.402343s-81.925781 21.460937-104.960938 57.402343l-55.515625 86.605469c-9.210937 14.367188-13.460937 30.96875-12.292968 47.996094 1.167968 17.03125 7.648437 32.890625 18.738281 45.875 11.097656 12.972656 25.761719 21.839844 42.40625 25.644531 16.644531 3.804688 33.707031 2.179688 49.339843-4.691406l1.046876-.464844c39.335937-16.945312 84.285156-16.789062 123.519531.464844 10.121093 4.449219 20.84375 6.699219 31.664062 6.699219 5.882813 0 11.800781-.667969 17.664063-2.003907 16.644531-3.800781 31.308594-12.667968 42.410156-25.644531 11.09375-12.972656 17.578125-28.835937 18.75-45.871093 1.171875-17.035157-3.078125-33.632813-12.289062-48.007813zm0 0"/><path d="m91.894531 239.238281c16.515625-6.34375 29.0625-19.652343 35.328125-37.476562 5.964844-16.960938 5.476563-36.109375-1.378906-53.921875-6.859375-17.800782-19.335938-32.332032-35.132812-40.921875-16.59375-9.019531-34.824219-10.488281-51.3125-4.132813-33.171876 12.753906-48.394532 53.746094-33.929688 91.398438 11.554688 29.96875 38.503906 48.886718 65.75 48.886718 6.957031 0 13.933594-1.234374 20.675781-3.832031zm0 0"/><path d="m199.613281 171.386719c41.46875 0 75.207031-38.4375 75.207031-85.683594 0-47.257813-33.738281-85.703125-75.207031-85.703125-41.464843 0-75.199219 38.445312-75.199219 85.703125 0 47.246094 33.734376 85.683594 75.199219 85.683594zm0 0"/><path d="m329.496094 192.4375h.003906c6.378906 2.117188 12.886719 3.128906 19.367188 3.128906 30.242187 0 59.714843-22.011718 70.960937-55.839844 6.476563-19.472656 6.050781-40.0625-1.199219-57.972656-7.585937-18.75-21.644531-32.359375-39.589844-38.324218-17.949218-5.964844-37.359374-3.476563-54.660156 7-16.527344 10.007812-29.191406 26.246093-35.660156 45.71875-13.652344 41.078124 4.640625 84.273437 40.777344 96.289062zm0 0"/><path d="m487.875 182.4375-.011719-.011719c-28.597656-21.125-71.367187-11.96875-95.347656 20.421875-23.957031 32.40625-20.210937 75.972656 8.34375 97.113282 10.414063 7.714843 22.71875 11.402343 35.3125 11.402343 21.949219 0 44.785156-11.203125 60.050781-31.804687 23.953125-32.40625 20.210938-75.972656-8.347656-97.121094zm0 0"/></symbol><symbol id="bar" viewBox="0 0 512 512"><g><path d="m393.421 186.017h-15.918v63.924h5.264c17.652 0 31.962 14.31 31.962 31.962v71.008c0 17.652-14.31 31.962-31.962 31.962h-5.264v63.924h15.918c47.073 0 85.232-38.16 85.232-85.232v-92.316c.001-47.072-38.159-85.232-85.232-85.232z"/><path d="m312.503 21.684c-12.014-.71-23.297 2.21-32.863 7.765-8.647 5.021-19.734 2.957-26.165-4.7-12.711-15.131-31.771-24.749-53.078-24.749-21.308 0-40.368 9.618-53.078 24.75-6.431 7.656-17.517 9.72-26.163 4.699-9.565-5.554-20.848-8.475-32.861-7.765-29.653 1.752-53.524 25.963-54.885 55.637-.824 17.963 6.462 34.239 18.501 45.493h65.304v84.449c0 17.652 14.31 31.962 31.962 31.962 17.652 0 31.962-14.31 31.962-31.962v-84.449h167.743c12.039-11.254 19.325-27.528 18.502-45.49-1.359-29.673-25.228-53.885-54.881-55.64z"/><path d="m211.14 207.263c0 34.166-27.796 61.962-61.962 61.962s-61.962-27.796-61.962-61.962v-54.448h-33.925v327.223c0 17.652 14.31 31.962 31.962 31.962h230.288c17.652 0 31.962-14.31 31.962-31.962v-327.223h-136.363z"/></g></symbol><symbol id="buddhism" viewBox="0 0 512 512">
<g>
	<g>
		<path d="M437.02,74.98C388.667,26.629,324.38,0,256,0S123.333,26.629,74.98,74.98C26.629,123.332,0,187.62,0,256
			s26.629,132.668,74.98,181.02C123.333,485.371,187.62,512,256,512s132.667-26.629,181.02-74.98
			C485.371,388.668,512,324.38,512,256S485.371,123.332,437.02,74.98z M481.504,241.217l-169.545-0.163l146.865-84.667
			C471.59,182.275,479.539,210.942,481.504,241.217z M443.804,130.417l-146.828,84.647l84.788-146.749
			C406.256,84.781,427.361,105.909,443.804,130.417z M271,30.51c30.271,1.994,58.93,9.971,84.807,22.762L271,200.054V30.51z
			 M241,30.51v169.112L156.97,52.886C182.643,40.318,211.032,32.484,241,30.51z M130.962,67.838l84.22,147.068L68.675,129.693
			C85.209,105.25,106.403,84.211,130.962,67.838z M53.563,155.609l146.535,85.23l-169.547-0.49
			C32.631,210.09,40.694,181.454,53.563,155.609z M30.468,270.349l169.544,0.49l-147.03,84.385
			C40.267,329.315,32.376,300.632,30.468,270.349z M67.957,381.22l146.987-84.361l-85.071,146.587
			C105.415,426.935,84.354,405.762,67.957,381.22z M240.566,481.462c-30.263-2.051-58.907-10.085-84.762-22.928l85.088-146.617
			L240.566,481.462z M229.98,256c0-14.348,11.673-26.02,26.02-26.02c14.348,0,26.021,11.672,26.021,26.02
			c0,14.348-11.673,26.021-26.021,26.021C241.652,282.021,229.98,270.348,229.98,256z M270.565,481.518l0.327-169.545
			l84.526,146.948C329.519,471.662,300.845,479.582,270.565,481.518z M381.4,443.924l-84.504-146.909l146.669,84.93
			C427.077,406.421,405.926,427.504,381.4,443.924z M458.631,356.002l-146.7-84.948l169.545,0.163
			C479.454,301.484,471.448,330.135,458.631,356.002z"/>
	</g>
</g>
<g>
</g>
<g>
</g>
<g>
</g>
<g>
</g>
<g>
</g>
<g>
</g>
<g>
</g>
<g>
</g>
<g>
</g>
<g>
</g>
<g>
</g>
<g>
</g>
<g>
</g>
<g>
</g>
<g>
</g>
</symbol><symbol id="building" viewBox="0 0 496 496"><path d="m433.551 464h-31.551v-392c0-8.837-7.163-16-16-16h-120v-40c0-8.837-7.163-16-16-16h-111c-8.837 0-16 7.163-16 16v40h-13c-8.837 0-16 7.163-16 16v392h-31.551c-8.618 0-16.03 6.626-16.431 15.234-.428 9.189 6.888 16.766 15.982 16.766h114c4.418 0 8-3.582 8-8v-92h-6.548c-8.615 0-16.028-6.621-16.434-15.226-.433-9.188 6.889-16.774 15.982-16.774 4.831 0 145.545 0 141.548 0 8.615 0 16.028 6.621 16.434 15.226.433 9.188-6.888 16.774-15.982 16.774h-7v92c0 4.418 3.582 8 8 8h114c9.094 0 16.41-7.577 15.982-16.766-.401-8.608-7.813-15.234-16.431-15.234zm-224.551-133h-18c-8.836 0-16-7.164-16-16s7.164-16 16-16h18c8.836 0 16 7.164 16 16s-7.164 16-16 16zm0-60h-18c-8.836 0-16-7.164-16-16s7.164-16 16-16h18c8.836 0 16 7.164 16 16s-7.164 16-16 16zm0-60h-18c-8.836 0-16-7.164-16-16s7.164-16 16-16h18c8.836 0 16 7.164 16 16s-7.164 16-16 16zm0-60h-18c-8.836 0-16-7.164-16-16s7.164-16 16-16h18c8.836 0 16 7.164 16 16s-7.164 16-16 16zm95 180h-18c-8.837 0-16-7.164-16-16s7.163-16 16-16h18c8.837 0 16 7.164 16 16s-7.163 16-16 16zm0-60h-18c-8.837 0-16-7.164-16-16s7.163-16 16-16h18c8.837 0 16 7.164 16 16s-7.163 16-16 16zm0-60h-18c-8.837 0-16-7.164-16-16s7.163-16 16-16h18c8.837 0 16 7.164 16 16s-7.163 16-16 16zm0-60h-18c-8.837 0-16-7.164-16-16s7.163-16 16-16h18c8.837 0 16 7.164 16 16s-7.163 16-16 16zm-88 337v-84c0-4.418 3.582-8 8-8h48c4.418 0 8 3.582 8 8v84c0 4.418-3.582 8-8 8h-48c-4.418 0-8-3.582-8-8z"/></symbol><symbol id="christianity" viewBox="0 0 512 512"><g><path d="m407.271 119.471h-119.532v-104.489c0-8.274-6.716-14.982-15-14.982h-33.478c-8.284 0-15 6.708-15 14.982v104.489h-119.532c-8.284 0-15 6.708-15 14.982v33.438c0 8.274 6.716 14.982 15 14.982h119.532v314.145c0 8.274 6.716 14.982 15 14.982h33.478c8.284 0 15-6.708 15-14.982v-314.145h119.532c8.284 0 15-6.708 15-14.982v-33.438c0-8.274-6.716-14.982-15-14.982z"/></g></symbol><symbol id="entertainment" viewBox="0 0 277.446 277.446">
<path id="_x30_6-Movie_Clapper" d="M59.488,117.299c-0.504-4.237-2.007-8.171-4.273-11.556l202.992-67.776L247.552,6.051
	c-1.549-4.638-6.566-7.141-11.201-5.594L15.54,74.182c-4.635,1.547-7.143,6.563-5.594,11.201l5.225,15.647
	c-5.216,4.843-8.488,11.752-8.488,19.415c0,9.924,5.486,18.586,13.582,23.127v125.02c0,4.891,3.967,8.853,8.854,8.853h232.793
	c4.885,0,8.852-3.963,8.852-8.853V117.299H59.488z M188.869,26.724l26.875-8.973l-6.467,26.14l-26.875,8.973L188.869,26.724z
	 M122.47,48.893l26.877-8.973l-6.467,26.139l-26.875,8.974L122.47,48.893z M33.181,133.946c-7.442,0-13.498-6.056-13.498-13.5
	c0-7.444,6.056-13.5,13.498-13.5c7.444,0,13.5,6.056,13.5,13.5C46.681,127.89,40.625,133.946,33.181,133.946z M56.074,71.062
	l26.877-8.973l-6.467,26.14l-26.877,8.974L56.074,71.062z M82.476,147.192H54.142l14.412-22.746h28.334L82.476,147.192z
	 M138.554,124.446h28.334l-14.412,22.746h-28.334L138.554,124.446z M131.599,234.372v-60l47.783,30L131.599,234.372z
	 M222.476,147.192h-28.334l14.412-22.746h28.334L222.476,147.192z"/>
<g>
</g>
<g>
</g>
<g>
</g>
<g>
</g>
<g>
</g>
<g>
</g>
<g>
</g>
<g>
</g>
<g>
</g>
<g>
</g>
<g>
</g>
<g>
</g>
<g>
</g>
<g>
</g>
<g>
</g>
</symbol><symbol id="exchange" viewBox="0 0 477.88 477.88">
<g>
	<g>
		<path d="M472.897,124.269c-0.01-0.01-0.02-0.02-0.03-0.031l-0.017,0.017l-68.267-68.267c-6.78-6.548-17.584-6.36-24.132,0.42
			c-6.388,6.614-6.388,17.099,0,23.713l39.151,39.151h-95.334c-65.948,0.075-119.391,53.518-119.467,119.467
			c-0.056,47.105-38.228,85.277-85.333,85.333h-102.4C7.641,324.072,0,331.713,0,341.139s7.641,17.067,17.067,17.067h102.4
			c65.948-0.075,119.391-53.518,119.467-119.467c0.056-47.105,38.228-85.277,85.333-85.333h95.334l-39.134,39.134
			c-6.78,6.548-6.968,17.353-0.419,24.132c6.548,6.78,17.353,6.968,24.132,0.419c0.142-0.137,0.282-0.277,0.419-0.419l68.267-68.267
			C479.54,141.748,479.553,130.942,472.897,124.269z"/>
	</g>
</g>
<g>
	<g>
		<path d="M472.897,329.069c-0.01-0.01-0.02-0.02-0.03-0.03l-0.017,0.017l-68.267-68.267c-6.78-6.548-17.584-6.36-24.132,0.42
			c-6.388,6.614-6.388,17.099,0,23.712l39.151,39.151h-95.334c-20.996,0.015-41.258-7.721-56.9-21.726
			c-7.081-6.222-17.864-5.525-24.086,1.555c-6.14,6.988-5.553,17.605,1.319,23.874c21.898,19.614,50.269,30.451,79.667,30.43h95.334
			l-39.134,39.134c-6.78,6.548-6.968,17.352-0.42,24.132c6.548,6.78,17.352,6.968,24.132,0.42c0.142-0.138,0.282-0.277,0.42-0.42
			l68.267-68.267C479.54,346.548,479.553,335.742,472.897,329.069z"/>
	</g>
</g>
<g>
	<g>
		<path d="M199.134,149.702c-21.898-19.614-50.269-30.451-79.667-30.43h-102.4C7.641,119.272,0,126.913,0,136.339
			c0,9.426,7.641,17.067,17.067,17.067h102.4c20.996-0.015,41.258,7.721,56.9,21.726c7.081,6.222,17.864,5.525,24.086-1.555
			C206.593,166.588,206.006,155.971,199.134,149.702z"/>
	</g>
</g>
<g>
</g>
<g>
</g>
<g>
</g>
<g>
</g>
<g>
</g>
<g>
</g>
<g>
</g>
<g>
</g>
<g>
</g>
<g>
</g>
<g>
</g>
<g>
</g>
<g>
</g>
<g>
</g>
<g>
</g>
</symbol><symbol id="finish" viewBox="0 0 58 58"><g id="Page-1" fill="none" fill-rule="evenodd"><g id="037---Waypoint-Flag" fill="rgb(0,0,0)" fill-rule="nonzero" transform="translate(0 -1)"><path id="Shape" d="m14.678 58.9507 1.0678-.2984c1.0270794-.287091 1.6269982-1.3523947 1.34-2.3795l-12.2083-43.6888c-.17227193-.6165569-.58242107-1.139423-1.14021438-1.4535673-.5577933-.3141444-1.21753647-.3938324-1.83408562-.2215327l-.1379.0385c-1.28397381.3587434-2.0340279 1.6904218-1.6753 2.9744l12.2086 43.6888c.2870014 1.0271063 1.3522895 1.6270863 2.3794 1.3401z"/><path id="Shape" d="m57.67 28.42c-3.8715209-1.930437-7.4530885-4.3944478-10.64-7.32-.2678864-.245221-.3726619-.6216366-.27-.97 1.579074-5.9738125 2.7517572-12.04771023 3.51-18.18.12-1.02-.43-1.32-1.01-.62-11.38 13.61-31.07-2.49-42.79 9.88.14070884.2634479.25140182.5418575.33.83l7.92 28.36c11.74-12.22 31.36 3.78 42.72-9.8.58-.7.69-1.98.23-2.18z"/></g></g></symbol><symbol id="food" viewBox="0 0 512 512">
<g>
	<g>
		<path d="M498.682,435.326L297.917,234.56L63.357,0H45.026l-3.743,9.511c-9.879,25.104-14.1,50.78-12.205,74.249
			c2.16,26.752,12.323,49.913,29.392,66.982L241.58,333.852l24.152-24.152l169.285,189.293c16.84,16.84,45.825,17.84,63.665,0
			C516.236,481.439,516.236,452.879,498.682,435.326z"/>
	</g>
</g>
<g>
	<g>
		<path d="M156.728,291.442L13.317,434.853c-17.552,17.552-17.552,46.113,0,63.665c16.674,16.674,45.519,18.146,63.665,0
			l143.412-143.412L156.728,291.442z"/>
	</g>
</g>
<g>
	<g>
		<path d="M490.253,85.249l-81.351,81.35l-21.223-21.222l81.351-81.351l-21.222-21.222l-81.35,81.35l-21.222-21.222l81.351-81.35
			L405.366,0.361L299.256,106.471c-12.981,12.981-20.732,30.217-21.828,48.535c-0.277,4.641-1.329,9.206-3.074,13.548l68.929,68.929
			c4.342-1.747,8.908-2.798,13.548-3.075c18.318-1.093,35.554-8.846,48.535-21.827l106.11-106.109L490.253,85.249z"/>
	</g>
</g>
<g>
</g>
<g>
</g>
<g>
</g>
<g>
</g>
<g>
</g>
<g>
</g>
<g>
</g>
<g>
</g>
<g>
</g>
<g>
</g>
<g>
</g>
<g>
</g>
<g>
</g>
<g>
</g>
<g>
</g>
</symbol><symbol id="gas" viewBox="0 0 512 512">
<g>
	<g>
		<path d="M466.208,67.125l-42.667-42.667c-4.167-4.167-10.917-4.167-15.083,0c-4.167,4.167-4.167,10.917,0,15.083l35.125,35.125
			l-35.125,35.125c-2,2-3.125,4.708-3.125,7.542v32C405.333,172.865,424.469,192,448,192v181.333
			c0,5.885-4.781,10.667-10.667,10.667c-5.885,0-10.667-4.781-10.667-10.667V352c0-17.646-14.354-32-32-32H384V42.667
			C384,19.135,364.865,0,341.333,0H128c-23.531,0-42.667,19.135-42.667,42.667v384c-23.531,0-42.667,19.135-42.667,42.667v32
			c0,5.896,4.771,10.667,10.667,10.667H416c5.896,0,10.667-4.771,10.667-10.667v-32c0-23.531-19.135-42.667-42.667-42.667v-85.333
			h10.667c5.885,0,10.667,4.781,10.667,10.667v21.333c0,17.646,14.354,32,32,32c17.646,0,32-14.354,32-32V74.667
			C469.333,71.833,468.208,69.125,466.208,67.125z M341.333,181.531c0,5.896-4.771,10.667-10.667,10.667h-192
			c-5.896,0-10.667-4.771-10.667-10.667V53.333c0-5.896,4.771-10.667,10.667-10.667h192c5.896,0,10.667,4.771,10.667,10.667V181.531
			z"/>
	</g>
</g>
<g>
</g>
<g>
</g>
<g>
</g>
<g>
</g>
<g>
</g>
<g>
</g>
<g>
</g>
<g>
</g>
<g>
</g>
<g>
</g>
<g>
</g>
<g>
</g>
<g>
</g>
<g>
</g>
<g>
</g>
</symbol><symbol id="hotel" viewBox="0 0 512 512"><g><circle cx="45" cy="256" r="45"/><path d="m0 331h512v60h-512z"/><path d="m437 211h-272c-41.355 0-75 33.645-75 75v15h422v-15c0-41.355-33.645-75-75-75z"/><path d="m0 481h30v-30h452v30h30v-60h-512z"/><path d="m246.729 121h84.271v-30h-35.729l30-60h-84.271v30h35.729z"/><path d="m126.729 181h84.271v-30h-35.729l30-60h-84.271v30h35.729z"/></g></symbol><symbol id="islam" viewBox="0 0 512 512">
<g>
	<g>
		<path d="M199.393,256c0-116.792,88.668-212.87,202.36-224.601C365.268,11.388,323.381,0,278.832,0c-141.385,0-256,114.615-256,256
			s114.615,256,256,256c44.549,0,86.435-11.388,122.921-31.399C288.062,468.871,199.393,372.792,199.393,256z"/>
	</g>
</g>
<g>
	<g>
		<polygon points="489.168,235.681 426.633,226.594 398.667,169.928 370.7,226.594 308.165,235.681 353.416,279.79 342.734,342.072 
			398.667,312.666 454.599,342.072 443.917,279.79 		"/>
	</g>
</g>
<g>
</g>
<g>
</g>
<g>
</g>
<g>
</g>
<g>
</g>
<g>
</g>
<g>
</g>
<g>
</g>
<g>
</g>
<g>
</g>
<g>
</g>
<g>
</g>
<g>
</g>
<g>
</g>
<g>
</g>
</symbol><symbol id="judaism" viewBox="0 0 512 512"><g><path d="m466.647 120.683h-95.775l61.036 104.633 47.786-81.918c5.874-10.07-1.39-22.715-13.047-22.715z"/><path d="m32.306 143.398 47.786 81.919 61.037-104.634h-95.776c-11.657 0-18.921 12.645-13.047 22.715z"/><path d="m269.047 504.506 47.989-82.268h-122.073l47.99 82.268c5.828 9.992 20.265 9.992 26.094 0z"/><path d="m45.353 391.317h95.775l-61.036-104.633-47.786 81.918c-5.874 10.07 1.39 22.715 13.047 22.715z"/><path d="m370.871 391.317h95.776c11.657 0 18.921-12.646 13.047-22.715l-47.786-81.918z"/><path d="m176.926 391.317h158.147l78.936-135.317-78.935-135.317h-158.148l-78.935 135.318z"/><path d="m242.953 7.494-47.989 82.268h122.073l-47.99-82.268c-5.829-9.992-20.266-9.992-26.094 0z"/></g></symbol><symbol id="medecine" viewBox="0 0 512 512"><g id="XMLID_125_"><path id="XMLID_1827_" d="m310.374 15.062h-108.748c-28.26 0-51.251 22.991-51.251 51.251v9.124h30v-9.124c0-11.718 9.533-21.251 21.251-21.251h108.748c11.718 0 21.251 9.533 21.251 21.251v9.124h30v-9.124c0-28.259-22.991-51.251-51.251-51.251z"/><path id="XMLID_1835_" d="m271.125 271.062v-45.25h-30.25v45.25c0 8.284-6.716 15-15 15h-45.25v30.25h45.25c8.284 0 15 6.716 15 15v45.25h30.25v-45.25c0-8.284 6.716-15 15-15h45.25v-30.25h-45.25c-8.284 0-15-6.715-15-15z"/><path id="XMLID_1836_" d="m0 181.687v239.002c0 36.91 26.365 67.771 61.249 74.759v-388.521c-34.884 6.988-61.249 37.849-61.249 74.76z"/><path id="XMLID_1837_" d="m450.751 106.927v388.521c34.884-6.988 61.249-37.849 61.249-74.76v-239.001c0-36.911-26.365-67.772-61.249-74.76z"/><path id="XMLID_1840_" d="m420.751 105.438h-329.502v391.5h329.502zm-59.376 225.874c0 8.284-6.716 15-15 15h-45.25v45.25c0 8.284-6.716 15-15 15h-60.25c-8.284 0-15-6.716-15-15v-45.25h-45.25c-8.284 0-15-6.716-15-15v-60.25c0-8.284 6.716-15 15-15h45.25v-45.25c0-8.284 6.716-15 15-15h60.25c8.284 0 15 6.716 15 15v45.25h45.25c8.284 0 15 6.716 15 15z"/></g></symbol><symbol id="mountain" viewBox="0 0 512 512"><g><path d="m220.146 90.76 32.955 28.813 33.93-31.02 37.989 28.722 25.139-18.79-94.159-98.485-96.302 100.666 25.243 19.427z"/><path d="m279.49 343.988h-46.98l-18.947 27.092h84.874z"/><path d="m296.536 401.08h-81.072l-19.623 31.276h120.318z"/><path d="m210.226 512v-49.644h-68.621l38.443-61.276h-24.074l39.928-57.092h-23.214l83.312-112.402 83.312 112.402h-23.214l39.928 57.092h-24.074l38.443 61.276h-68.621v49.644h210.226v-248.838l-140.62-143.085-46.463 34.731-36.067-27.27-35.303 32.275-33.87-29.613-33.992 28.321-47.17-36.302-138.515 140.943v248.838z"/><path d="m240.226 462.356h31.547v49.644h-31.547z"/><path d="m256 281.967-23.733 32.021h47.466z"/></g></symbol><symbol id="museum" viewBox="0 0 512 512.00025"><path d="m396.425781 268.34375h59.996094v143.65625h-59.996094zm0 0"/><path d="m282.808594 268.34375h60v143.65625h-60zm0 0"/><path d="m169.191406 268.34375h60v143.65625h-60zm0 0"/><path d="m55.578125 268.34375h59.996094v143.65625h-59.996094zm0 0"/><path d="m476.425781 223.34375v-15h-440.847656v15c0 8.285156 6.714844 15 15 15h410.847656c8.28125 0 15-6.714844 15-15zm0 0"/><path d="m496.992188 442h-481.976563c-8.285156 0-15 6.714844-15 15v40c0 8.285156 6.714844 15 15 15h481.976563c8.285156 0 15-6.714844 15-15v-40c0-8.285156-6.714844-15-15-15zm0 0"/><path d="m15 178.34375h482c6.710938 0 12.605469-4.457031 14.433594-10.914062 1.824218-6.457032-.855469-13.34375-6.570313-16.859376l-241-148.34375c-4.820312-2.96875-10.902343-2.96875-15.726562 0l-241 148.34375c-5.714844 3.519532-8.394531 10.402344-6.566407 16.859376 1.828126 6.457031 7.722657 10.914062 14.429688 10.914062zm230.804688-90.117188h20.394531c8.285156 0 15 6.714844 15 15 0 8.285157-6.714844 15-15 15h-20.394531c-8.285157 0-15-6.714843-15-15 0-8.285156 6.714843-15 15-15zm0 0"/></symbol><symbol id="none" viewBox="0 0 426.667 426.667">
<g>
	<g>
		<g>
			<path d="M213.333,0C95.68,0,0,95.68,0,213.333s95.68,213.333,213.333,213.333s213.333-95.68,213.333-213.333S330.987,0,213.333,0
				z M213.333,384c-94.08,0-170.667-76.587-170.667-170.667S119.253,42.667,213.333,42.667S384,119.253,384,213.333
				S307.413,384,213.333,384z"/>
			<path d="M213.333,149.333c-35.307,0-64,28.693-64,64s28.693,64,64,64s64-28.693,64-64S248.64,149.333,213.333,149.333z"/>
		</g>
	</g>
</g>
<g>
</g>
<g>
</g>
<g>
</g>
<g>
</g>
<g>
</g>
<g>
</g>
<g>
</g>
<g>
</g>
<g>
</g>
<g>
</g>
<g>
</g>
<g>
</g>
<g>
</g>
<g>
</g>
<g>
</g>
</symbol><symbol id="park" viewBox="0 0 128 128"><g><path d="M121.693,119.943H102.356V92.991a9.677,9.677,0,0,0,1.12.071,9.8,9.8,0,0,0,9.783-9.784v-.094A9.788,9.788,0,0,0,120.13,68.12a9.776,9.776,0,0,0-1.016-15.453,9.772,9.772,0,0,0-4.783-11.961,9.571,9.571,0,0,0,.146-1.663,9.792,9.792,0,0,0-8-9.61,9.783,9.783,0,0,0-19.554-.013,9.662,9.662,0,0,0-1.65.479l0,0a11.506,11.506,0,0,0,.229-2.278,11.659,11.659,0,0,0-9.851-11.5,11.648,11.648,0,0,0-23.3-.013A11.667,11.667,0,0,0,42.5,27.619,11.506,11.506,0,0,0,42.73,29.9l0,0a9.507,9.507,0,0,0-1.65-.475,9.783,9.783,0,0,0-19.553,0,9.8,9.8,0,0,0-8,9.621,9.571,9.571,0,0,0,.146,1.663A9.772,9.772,0,0,0,8.886,52.667,9.776,9.776,0,0,0,7.87,68.12a9.788,9.788,0,0,0,6.871,15.064v.094a9.8,9.8,0,0,0,9.783,9.784,9.677,9.677,0,0,0,1.12-.071v26.952H6.307a1.75,1.75,0,0,0,0,3.5H121.693a1.75,1.75,0,0,0,0-3.5ZM90.1,32.151a1.751,1.751,0,0,0,.4-1.406,6.136,6.136,0,0,1-.084-.966,6.283,6.283,0,1,1,12.566,0,6.136,6.136,0,0,1-.084.966,1.767,1.767,0,0,0,.434,1.4,1.817,1.817,0,0,0,1.361.61,6.264,6.264,0,0,1,5.91,8.4,1.751,1.751,0,0,0,1.132,2.264,6.272,6.272,0,0,1,3.6,9.126,1.749,1.749,0,0,0,.821,2.477,6.279,6.279,0,0,1,.585,11.237,1.75,1.75,0,0,0-.371,2.767,6.281,6.281,0,0,1-4.423,10.744c-.171,0-.339-.013-.506-.027a1.749,1.749,0,0,0-1.845,2.132,6.385,6.385,0,0,1,.163,1.4,6.278,6.278,0,0,1-11.583,3.364,1.751,1.751,0,0,0-2.953,0,6.265,6.265,0,0,1-11.457-2.2A11.656,11.656,0,0,0,84,82.126c0-.158,0-.316-.011-.476a11.651,11.651,0,0,0,8.342-18.273,11.639,11.639,0,0,0-1.2-18.806,11.655,11.655,0,0,0-2.1-11.836A1.819,1.819,0,0,0,90.1,32.151ZM72.349,93.774a11.635,11.635,0,0,0,9.522-4.96,9.828,9.828,0,0,0,8.053,4.248,9.659,9.659,0,0,0,1.119-.071v26.952H70.563V93.623A11.633,11.633,0,0,0,72.349,93.774ZM46.4,31.735a1.749,1.749,0,0,0,.083-1.373,8.131,8.131,0,0,1,7.578-10.894,1.843,1.843,0,0,0,1.5-.605,1.753,1.753,0,0,0,.4-1.407,8.02,8.02,0,0,1-.108-1.251,8.148,8.148,0,1,1,16.3,0,8.02,8.02,0,0,1-.108,1.251,1.772,1.772,0,0,0,.441,1.405,1.835,1.835,0,0,0,1.37.61,8.128,8.128,0,0,1,7.664,10.891,1.752,1.752,0,0,0,1.132,2.263A8.135,8.135,0,0,1,87.315,44.46a1.751,1.751,0,0,0,.822,2.478A8.143,8.143,0,0,1,88.9,61.51a1.751,1.751,0,0,0-.372,2.767,8.146,8.146,0,0,1-5.734,13.934c-.223,0-.44-.017-.658-.034a1.75,1.75,0,0,0-1.845,2.134,8.139,8.139,0,0,1-14.809,6.178,1.75,1.75,0,0,0-2.954,0,8.135,8.135,0,0,1-14.809-6.178,1.75,1.75,0,0,0-1.845-2.134c-.218.017-.435.034-.658.034a8.145,8.145,0,0,1-5.734-13.934A1.751,1.751,0,0,0,39.1,61.51a8.143,8.143,0,0,1,.758-14.572,1.751,1.751,0,0,0,.822-2.478,8.135,8.135,0,0,1,4.668-11.835A1.751,1.751,0,0,0,46.4,31.735ZM38.076,93.062a9.828,9.828,0,0,0,8.053-4.248,11.483,11.483,0,0,0,11.308,4.809v26.32H36.957V92.991A9.659,9.659,0,0,0,38.076,93.062ZM18.241,83.278a6.385,6.385,0,0,1,.163-1.4,1.749,1.749,0,0,0-1.845-2.132c-.167.014-.335.027-.506.027A6.281,6.281,0,0,1,11.63,69.027a1.75,1.75,0,0,0-.371-2.767,6.279,6.279,0,0,1,.585-11.237,1.749,1.749,0,0,0,.821-2.477,6.272,6.272,0,0,1,3.6-9.126A1.751,1.751,0,0,0,17.4,41.156a6.267,6.267,0,0,1,5.824-8.4,1.834,1.834,0,0,0,1.48-.606,1.751,1.751,0,0,0,.4-1.406,6.136,6.136,0,0,1-.084-.966,6.283,6.283,0,0,1,12.566,0,6.136,6.136,0,0,1-.084.966,1.767,1.767,0,0,0,.434,1.4,1.788,1.788,0,0,0,1.05.577,11.653,11.653,0,0,0-2.111,11.844,11.639,11.639,0,0,0-1.2,18.806A11.65,11.65,0,0,0,44.013,81.65c-.007.16-.011.318-.011.476a11.656,11.656,0,0,0,.232,2.311,6.265,6.265,0,0,1-11.457,2.2,1.751,1.751,0,0,0-2.953,0,6.278,6.278,0,0,1-11.583-3.364Zm10.9,36.665V91.9A9.745,9.745,0,0,0,31.3,90.331,9.693,9.693,0,0,0,33.457,91.9v28.044Zm31.793,0V92.5A11.61,11.61,0,0,0,64,90.241,11.61,11.61,0,0,0,67.063,92.5v27.447Zm33.606,0V91.9A9.693,9.693,0,0,0,96.7,90.331,9.745,9.745,0,0,0,98.856,91.9v28.044Z"/><path d="M72.05,33.15a1.75,1.75,0,0,0,1.129,2.2,1.73,1.73,0,0,0,.537.085,1.752,1.752,0,0,0,1.666-1.214,5.408,5.408,0,0,0-1.613-5.989,1.75,1.75,0,0,0-2.393,2.555A1.966,1.966,0,0,1,72.05,33.15Z"/><path d="M75.441,71.371h-.007a1.75,1.75,0,0,0-1.743,1.757c.008,1.755-.17,1.946-1.024,2.862a1.75,1.75,0,0,0,2.561,2.386c1.459-1.565,1.975-2.6,1.963-5.263A1.75,1.75,0,0,0,75.441,71.371Z"/><path d="M75.418,39.083a1.75,1.75,0,0,0,.468,2.43c.025.017,2.494,1.752,2.743,4.205a6.975,6.975,0,0,1-1.9,5.385,1.751,1.751,0,0,0,2.4,2.548,10.56,10.56,0,0,0,2.977-8.286c-.417-4.1-4.106-6.644-4.262-6.75A1.75,1.75,0,0,0,75.418,39.083Z"/></g></symbol><symbol id="parking" viewBox="0 0 384 384">
<g>
	<g>
		<path d="M202.667,0H53.333v384h85.333V256h64c70.72,0,128-57.28,128-128S273.387,0,202.667,0z M206.933,170.667h-68.267V85.333
			h68.267c23.573,0,42.667,19.093,42.667,42.667S230.507,170.667,206.933,170.667z"/>
	</g>
</g>
<g>
</g>
<g>
</g>
<g>
</g>
<g>
</g>
<g>
</g>
<g>
</g>
<g>
</g>
<g>
</g>
<g>
</g>
<g>
</g>
<g>
</g>
<g>
</g>
<g>
</g>
<g>
</g>
<g>
</g>
</symbol><symbol id="shop" viewBox="0 -31 512.00033 512"><path d="m166 300.003906h271.003906c6.710938 0 12.597656-4.4375 14.414063-10.882812l60.003906-210.003906c1.289063-4.527344.40625-9.390626-2.433594-13.152344-2.84375-3.75-7.265625-5.964844-11.984375-5.964844h-365.632812l-10.722656-48.25c-1.523438-6.871094-7.617188-11.75-14.648438-11.75h-91c-8.289062 0-15 6.710938-15 15 0 8.292969 6.710938 15 15 15h78.960938l54.167968 243.75c-15.9375 6.929688-27.128906 22.792969-27.128906 41.253906 0 24.8125 20.1875 45 45 45h271.003906c8.292969 0 15-6.707031 15-15 0-8.289062-6.707031-15-15-15h-271.003906c-8.261719 0-15-6.722656-15-15s6.738281-15 15-15zm0 0"/><path d="m151 405.003906c0 24.816406 20.1875 45 45.003906 45 24.8125 0 45-20.183594 45-45 0-24.8125-20.1875-45-45-45-24.816406 0-45.003906 20.1875-45.003906 45zm0 0"/><path d="m362.003906 405.003906c0 24.816406 20.1875 45 45 45 24.816406 0 45-20.183594 45-45 0-24.8125-20.183594-45-45-45-24.8125 0-45 20.1875-45 45zm0 0"/></symbol><symbol id="sights" viewBox="0 0 512 512">
<g>
	<g>
		<path d="M508.778,369.783l-68.271-256.895c-3.208-12.685-11.594-24.143-23.771-32.626c-1.344-11.92-8.099-23.08-19.019-31.126
			C386.659,40.987,372.198,36.5,357,36.5s-29.659,4.487-40.718,12.636C304.028,58.165,297,71.112,297,84.658
			c0,4.789,0.87,9.524,2.555,14.047C294.651,106.716,292,115.61,292,124.71v16.79c-10.562-4.542-23.04-7-36-7
			c-12.96,0-25.438,2.458-36,7v-16.79c0-9.1-2.651-17.994-7.555-26.006C214.13,94.182,215,89.447,215,84.658
			c0-13.545-7.028-26.493-19.282-35.522C184.659,40.987,170.198,36.5,155,36.5s-29.659,4.487-40.718,12.636
			c-10.92,8.046-17.675,19.207-19.019,31.126c-12.177,8.484-20.563,19.941-23.771,32.626L3.222,369.783
			C1.627,374.8,0,386.083,0,390.5c0,23.585,12.049,45.453,33.927,61.573C54.43,467.18,81.446,475.5,110,475.5
			s55.57-8.32,76.073-23.427C207.951,435.953,220,414.085,220,390.5v-44.031c8.217,10.94,21.295,18.031,36,18.031
			s27.783-7.091,36-18.031V390.5c0,23.585,12.049,45.453,33.927,61.573C346.43,467.18,373.446,475.5,402,475.5
			c28.554,0,55.57-8.32,76.073-23.427C499.951,435.953,512,414.085,512,390.5C512,386.083,510.373,374.8,508.778,369.783z
			 M168.277,427.922C152.894,439.257,132.196,445.5,110,445.5s-42.894-6.243-58.277-17.578C37.715,417.6,30,404.31,30,390.5
			c0-30.333,39.667-55,80-55c22.196,0,42.893,6.243,58.277,17.578C182.285,363.4,190,376.69,190,390.5
			S182.285,417.6,168.277,427.922z M256,334.5c-8.271,0-15-6.729-15-15s6.729-15,15-15s15,6.729,15,15S264.271,334.5,256,334.5z
			 M460.277,427.922C444.894,439.257,424.196,445.5,402,445.5c-22.196,0-42.894-6.243-58.277-17.578
			C329.715,417.6,322,404.31,322,390.5s7.715-27.1,21.723-37.422C359.107,341.743,379.804,335.5,402,335.5c40.333,0,80,24.667,80,55
			C482,404.31,474.285,417.6,460.277,427.922z"/>
	</g>
</g>
<g>
</g>
<g>
</g>
<g>
</g>
<g>
</g>
<g>
</g>
<g>
</g>
<g>
</g>
<g>
</g>
<g>
</g>
<g>
</g>
<g>
</g>
<g>
</g>
<g>
</g>
<g>
</g>
<g>
</g>
</symbol><symbol id="sport" viewBox="0 0 480 480"><path d="m240 0c-132.546875 0-240 107.453125-240 240s107.453125 240 240 240 240-107.453125 240-240c-.148438-132.484375-107.515625-239.851562-240-240zm8.566406 69.191406 83.433594-33.351562c9.46875 4.285156 18.628906 9.222656 27.414062 14.777344l.21875.136718c8.632813 5.46875 16.882813 11.519532 24.695313 18.109375l.671875.585938c3.503906 2.984375 6.910156 6.074219 10.222656 9.261719.417969.410156.855469.800781 1.273438 1.21875 3.472656 3.390624 6.835937 6.886718 10.089844 10.484374.269531.304688.527343.625.796874.929688 2.855469 3.199219 5.601563 6.511719 8.265626 9.878906.640624.800782 1.28125 1.601563 1.902343 2.402344 2.890625 3.742188 5.6875 7.550781 8.328125 11.480469l-16.632812 70.703125-81.832032 27.28125-78.828124-63.074219zm-186.125 34.480469c.621094-.800781 1.253906-1.601563 1.894532-2.398437 2.632812-3.339844 5.355468-6.597657 8.167968-9.777344.304688-.335938.585938-.679688.886719-1.015625 3.234375-3.605469 6.582031-7.097657 10.050781-10.480469.398438-.390625.796875-.800781 1.214844-1.160156 3.285156-3.167969 6.664062-6.238282 10.136719-9.207032l.800781-.671874c7.742188-6.542969 15.914062-12.554688 24.460938-18l.3125-.199219c8.734374-5.542969 17.835937-10.472657 27.25-14.761719l83.816406 33.191406v80.800782l-78.832032 63.0625-81.832031-27.230469-16.632812-70.703125c2.664062-3.921875 5.429687-7.722656 8.304687-11.449219zm-9.640625 259.089844c-2.351562-3.585938-4.601562-7.238281-6.746093-10.960938l-.519532-.898437c-2.132812-3.703125-4.152344-7.46875-6.054687-11.292969l-.066407-.121094c-4.007812-8.046875-7.527343-16.328125-10.535156-24.800781v-.078125c-1.421875-4-2.71875-8.097656-3.917968-12.21875l-.433594-1.519531c-1.097656-3.871094-2.09375-7.785156-2.984375-11.742188-.078125-.386718-.175781-.753906-.253907-1.136718-1.964843-8.9375-3.375-17.984376-4.226562-27.097657l48.839844-58.605469 81.265625 27.085938 23.585937 94.335938-38.753906 51.5625zm240.472657 94.78125c-4 .992187-8.105469 1.847656-12.210938 2.617187-.574219.113282-1.160156.207032-1.734375.3125-3.496094.625-7.03125 1.160156-10.574219 1.597656-.945312.121094-1.882812.25-2.824218.363282-3.289063.382812-6.609376.671875-9.9375.910156-1.046876.070312-2.082032.175781-3.128907.242188-4.253906.261718-8.542969.414062-12.863281.414062-3.957031 0-7.890625-.105469-11.800781-.3125-.472657 0-.925781-.078125-1.398438-.113281-3.480469-.199219-6.945312-.460938-10.402343-.796875l-.398438-.074219c-7.574219-.820313-15.105469-2.023437-22.558594-3.597656l-47.320312-74.089844 38.144531-50.863281h111.46875l38.769531 51.199218zm165.496093-169.542969c-.082031.382812-.175781.753906-.257812 1.136719-.894531 3.953125-1.890625 7.867187-2.984375 11.742187l-.429688 1.519532c-1.203125 4.121093-2.496094 8.203124-3.921875 12.21875v.078124c-3.007812 8.472657-6.523437 16.753907-10.535156 24.800782l-.066406.121094c-1.914063 3.828124-3.929688 7.59375-6.054688 11.292968l-.519531.898438c-2.132812 3.734375-4.378906 7.378906-6.734375 10.945312l-78.929687 12.445313-39.023438-51.519531 23.574219-94.3125 81.265625-27.085938 48.839844 58.605469c-.847657 9.117187-2.257813 18.171875-4.222657 27.113281zm0 0"/></symbol><symbol id="swim" viewBox="0 0 512 512"><g><path d="m361.88 321.716-24.599-39.647c25.816 32.077 73.585 33.671 101.473 4.016 25.464-27.077 24.164-69.6-2.916-95.068-27.066-25.456-69.598-24.165-95.067 2.917-19.566 20.806-23.115 50.389-12.099 74.259l-59.504-95.904 88.302-25.481c27.423-7.913 40.383-39.303 26.45-64.27-10.117-18.128-31.115-26.77-51.059-21.014l-133.684 38.576c-34.661 10.003-50.183 50.295-31.151 80.971l40.406 65.123-70.863 43.969c85.253 1.959 146.851 27.916 224.311 31.553z"/><path d="m19.105 365.89c193.797-55.09 266.988 56.126 481.68.085 8.016-2.092 12.817-10.287 10.725-18.302s-10.287-12.816-18.302-10.725c-206.264 53.844-279.556-57.55-482.306.085-7.968 2.265-12.592 10.561-10.327 18.53 2.266 7.97 10.565 12.592 18.53 10.327z"/><path d="m493.208 406.948c-206.643 53.942-279.154-57.666-482.306.085-7.968 2.265-12.592 10.561-10.327 18.53s10.564 12.593 18.53 10.327c193.797-55.09 266.988 56.126 481.68.085 8.016-2.092 12.817-10.287 10.725-18.302-2.092-8.016-10.287-12.817-18.302-10.725z"/></g></symbol><symbol id="transport" viewBox="0 0 512 512">
<g>
	<g>
		<rect x="86" y="153.929" width="41" height="26.654"/>
	</g>
</g>
<g>
	<g>
		<path d="M483.947,207.356H260.581c-26.157,0-47.438-21.281-47.438-47.438V94.011H0v271.826h419.757
			c50.863,0,92.243-41.38,92.243-92.243C512,248.381,501.727,224.573,483.947,207.356z M157,210.587H56v-86.654h101V210.587z
			 M274.333,270.653h-30v-30h30V270.653z M330,270.653h-30v-30h30V270.653z M385.667,270.653h-30v-30h30V270.653z"/>
	</g>
</g>
<g>
	<g>
		<path d="M351.471,115.627c-20.8-14.141-45.089-21.615-70.241-21.615h-38.088v65.906c0.001,9.615,7.824,17.438,17.439,17.438
			h181.687L351.471,115.627z"/>
	</g>
</g>
<g>
	<g>
		<rect y="387.989" width="425" height="30"/>
	</g>
</g>
<g>
</g>
<g>
</g>
<g>
</g>
<g>
</g>
<g>
</g>
<g>
</g>
<g>
</g>
<g>
</g>
<g>
</g>
<g>
</g>
<g>
</g>
<g>
</g>
<g>
</g>
<g>
</g>
<g>
</g>
</symbol><symbol id="viewpoint" viewBox="0 0 64 64"><g><path d="m5 33h20c1.103 0 2-.897 2-2s-.897-2-2-2-2 .897-2 2h-2c0-1.383.706-2.603 1.776-3.322-.549-1.586-2.04-2.678-3.776-2.678-.133 0-.26.021-.388.039l-.862.114-.309-.667c-.98-2.118-3.116-3.486-5.441-3.486-3.309 0-6 2.691-6 6 0 .048.009.097.01.145 1.715.451 2.99 2.001 2.99 3.855h-2c0-1.103-.897-2-2-2s-2 .897-2 2 .897 2 2 2z"/><path d="m46.559 18.486-.309.667-.86-.114c-.129-.018-.257-.039-.39-.039-1.736 0-3.227 1.092-3.776 2.678 1.07.719 1.776 1.939 1.776 3.322h-2c0-1.103-.897-2-2-2s-2 .897-2 2 .897 2 2 2h20c1.103 0 2-.897 2-2s-.897-2-2-2-2 .897-2 2h-2c0-1.854 1.275-3.404 2.99-3.855.001-.048.01-.097.01-.145 0-3.309-2.691-6-6-6-2.325 0-4.461 1.368-5.441 3.486z"/><path d="m49.436 41c2.951-3.423 4.776-7.547 5.353-12h-15.789c-2.206 0-4-1.794-4-4s1.794-4 4-4c.114 0 .221.024.332.034.82-2.388 3.059-4.034 5.668-4.034.026 0 .053 0 .079.001 1.254-2.167 3.466-3.624 5.935-3.935-4.262-6.247-11.392-10.066-19.014-10.066-10.114 0-19.071 6.734-21.993 16.262.638-.165 1.304-.262 1.993-.262 2.858 0 5.502 1.549 6.921 4.001.026-.001.053-.001.079-.001 2.609 0 4.848 1.646 5.668 4.034.111-.01.218-.034.332-.034 2.206 0 4 1.794 4 4s-1.794 4-4 4h-14.15c.925 2.176 2.157 4.194 3.714 6h-13.564v2h62v-2zm-33.307-25.45-1.67-1.101c.479-.727 1.012-1.434 1.582-2.1l1.52 1.301c-.516.603-.998 1.242-1.432 1.9zm34.273 15.201 1.937.498c-.162.631-.407 1.317-.728 2.039l-1.828-.813c.276-.62.484-1.2.619-1.724zm-1.482 3.419 1.739.987c-.321.566-.686 1.159-1.084 1.762l-1.669-1.103c.373-.564.715-1.118 1.014-1.646zm-2.132 3.239 1.604 1.193c-.431.58-.86 1.124-1.268 1.615l-1.54-1.276c.388-.466.795-.983 1.204-1.532zm-27.355-25.659-1.323-1.5c3.836-3.386 8.769-5.25 13.89-5.25v2c-4.633 0-9.097 1.687-12.567 4.75z"/><path d="m5 45h54v2h-54z"/><path d="m9 49h46v2h-46z"/><path d="m13 53h38v2h-38z"/><path d="m17 57h30v2h-30z"/><path d="m21 61h22v2h-22z"/></g></symbol><symbol id="water" viewBox="0 0 248.151 248.151">
<g>
	<g>
		<path d="M134.475,8.551c-6.8-11.6-14-11.2-20.8,0c-31.2,46.4-78.4,116-78.4,150.8c0,24.4,10,46.8,26,62.8s38.4,26,62.8,26
			c24.4,0,46.8-10,62.8-26s26-38.4,26-62.8C212.875,124.151,165.675,54.951,134.475,8.551z M188.075,198.951
			c-6.4,10.4-15.6,19.6-26.8,26c-5.2,2.8-11.6,1.2-14.4-4c-3.2-5.6-1.2-12,4-14.8c8-4.4,14.4-10.8,19.2-18.4
			c4.8-7.6,7.6-16.4,8-25.6c0.4-6,5.2-10.4,11.2-10c6,0.4,10.4,5.2,10,11.2C198.475,176.151,194.475,188.151,188.075,198.951z"/>
	</g>
</g>
<g>
</g>
<g>
</g>
<g>
</g>
<g>
</g>
<g>
</g>
<g>
</g>
<g>
</g>
<g>
</g>
<g>
</g>
<g>
</g>
<g>
</g>
<g>
</g>
<g>
</g>
<g>
</g>
<g>
</g>
</symbol></svg>
