<svg height="402pt" viewBox="-2 0 402 402.77333" width="402pt" xmlns="http://www.w3.org/2000/svg"><path d="m317.273438 204.800781c0 67.863281-55.015626 122.878907-122.878907 122.878907s-122.878906-55.015626-122.878906-122.878907c0-67.867187 55.015625-122.878906 122.878906-122.878906s122.878907 55.011719 122.878907 122.878906zm0 0" fill="#94c1ff" fill-rule="evenodd"/><path d="m194.394531 334.507812c-71.519531 0-129.707031-58.1875-129.707031-129.707031s58.1875-129.707031 129.707031-129.707031 129.707031 58.1875 129.707031 129.707031-58.1875 129.707031-129.707031 129.707031zm0-245.761718c-63.992187 0-116.054687 52.0625-116.054687 116.054687 0 63.992188 52.0625 116.050781 116.054687 116.050781 63.992188 0 116.054688-52.058593 116.054688-116.050781 0-63.992187-52.0625-116.054687-116.054688-116.054687zm0 0" fill="#0e65e5"/><path d="m163.898438 121.027344c-2.851563 0-5.511719-1.800782-6.46875-4.65625-1.203126-3.574219.71875-7.441406 4.292968-8.644532 17.445313-5.867187 36.605469-6.894531 54.613282-2.96875 3.683593.804688 6.015624 4.441407 5.214843 8.125-.808593 3.683594-4.464843 6.011719-8.128906 5.214844-15.59375-3.402344-32.230469-2.515625-47.347656 2.570313-.71875.242187-1.457031.359375-2.175781.359375zm0 0" fill="#fff"/><path d="m76.390625 170.542969c10.582031 2.242187 20.5 5.679687 23.121094 10.925781 6.222656 12.441406 18.667969 12.441406 31.109375 0 12.445312-12.445312 31.109375-24.886719 12.445312-43.554688-9.316406-9.3125-12.378906-24.683593-13.109375-37.742187-25.636719 15.820313-44.996093 40.796875-53.566406 70.371094zm0 0" fill="#d7e9ff" fill-rule="evenodd"/><path d="m112.695312 197.625c-1.089843 0-2.167968-.085938-3.230468-.257812-6.765625-1.097657-12.46875-5.660157-16.0625-12.847657-.015625-.035156-2.089844-3.839843-18.425782-7.292969-1.855468-.394531-3.464843-1.542968-4.445312-3.171874-.972656-1.625-1.230469-3.585938-.699219-5.410157 8.964844-30.929687 29.046875-57.3125 56.539063-74.28125 2.046875-1.269531 4.609375-1.355469 6.746094-.242187 2.132812 1.109375 3.523437 3.269531 3.65625 5.671875.597656 10.714843 3.015624 25.191406 11.117187 33.300781 6.671875 6.667969 10 13.605469 9.894531 20.617188-.175781 11.632812-9.457031 20.371093-17.648437 28.085937-1.601563 1.507813-3.191407 3.003906-4.6875 4.5-7.390625 7.390625-15.355469 11.328125-22.753907 11.328125zm-27.550781-31.972656c11.144531 3.140625 17.722657 7.265625 20.472657 12.761718 1.621093 3.25 3.652343 5.089844 6.03125 5.476563 3.746093.625 8.925781-2.03125 14.144531-7.25 1.589843-1.589844 3.28125-3.183594 4.984375-4.789063 6.523437-6.144531 13.269531-12.492187 13.355468-18.347656.046876-3.179687-1.9375-6.800781-5.894531-10.761718-7.015625-7.015626-11.652343-17.246094-13.839843-30.503907-18.027344 13.628907-31.648438 32.144531-39.253907 53.414063zm0 0" fill="#0e65e5"/><path d="m161.730469 299.683594s12.441406-37.332032 0-43.554688c-12.445313-6.222656-24.886719 0-31.109375-18.664062-6.222656-18.667969 0-24.886719 18.664062-31.109375 18.664063-6.222657 43.550782 0 49.773438 24.886719 6.222656 24.886718-6.222656 37.328124-12.441406 62.21875-4.527344 18.109374-24.886719 6.222656-24.886719 6.222656zm0 0" fill="#d7e9ff" fill-rule="evenodd"/><path d="m174.808594 310.328125c-8.078125 0-15.472656-4.136719-16.519532-4.746094-2.789062-1.628906-4.054687-4.992187-3.035156-8.054687 5.582032-16.789063 6.5625-33.722656 3.421875-35.292969-3.140625-1.566406-6.476562-2.160156-10.007812-2.78125-8.476563-1.492187-19.03125-3.351563-24.523438-19.832031-2.582031-7.75-4.828125-17.730469.796875-26.164063 4.660156-6.988281 13.417969-10.652343 22.191406-13.578125 12.894532-4.300781 27.265626-3.203125 38.433594 2.925782 10.175782 5.582031 17.128906 14.84375 20.117188 26.78125 4.757812 19.03125-.289063 31.863281-5.632813 45.453124-2.421875 6.15625-4.925781 12.527344-6.808593 20.078126-2.128907 8.5-7.058594 12.171874-10.820313 13.757812-2.488281 1.050781-5.085937 1.453125-7.613281 1.453125zm-13.078125-10.644531h.066406zm8.316406-3.832032c2.59375.796876 5.347656 1.175782 7.085937.4375.480469-.203124 1.949219-.832031 2.859376-4.484374 2.105468-8.40625 4.890624-15.5 7.351562-21.761719 5.101562-12.976563 8.789062-22.355469 5.09375-37.144531-2.066406-8.269532-6.589844-14.363282-13.441406-18.125-7.898438-4.335938-18.210938-5.0625-27.550782-1.941407-8.605468 2.867188-13.277343 5.398438-15.144531 8.199219-1.132812 1.699219-2.285156 5.027344.796875 14.273438 2.917969 8.761718 6.371094 9.371093 13.9375 10.703124 4.136719.726563 8.828125 1.554688 13.75 4.015626 13.976563 6.988281 9.105469 32.210937 5.261719 45.828124zm0 0" fill="#0e65e5"/><path d="m257.976562 99.632812c-18.570312 18.160157-38.753906 40.855469-27.808593 44.503907 18.667969 6.222656 31.109375 12.445312 31.109375 12.445312s-6.222656 18.664063-24.886719 18.664063-43.550781 0-43.550781 6.222656 37.328125 31.109375 37.328125 37.332031c0 6.21875 8.046875 32.929688 12.445312 37.328125 6.222657 6.222656 24.886719 12.445313 31.109375-12.441406s0-43.554688 12.441406-49.777344c6.957032-3.476562 15.855469-20.40625 22.351563-34.664062-9.960937-24.933594-27.828125-45.851563-50.539063-59.613282zm0 0" fill="#d7e9ff" fill-rule="evenodd"/><path d="m256.203125 268.519531c-7.414063 0-14.382813-3.527343-18.417969-7.5625-5.765625-5.769531-13.558594-31.925781-14.371094-40.828125-2.0625-2.902344-10.558593-9.984375-16.28125-14.753906-15.648437-13.035156-21.125-18.117188-21.125-23.910156 0-12.441406 18.203126-13.046875 50.382813-13.046875 7.882813 0 12.800781-4.667969 15.550781-8.621094-5.308594-2.328125-13.679687-5.769531-23.929687-9.1875-3.878907-1.292969-6.601563-4.183594-7.464844-7.933594-1.484375-6.453125 1.230469-17.199219 32.65625-47.925781 2.222656-2.179688 5.644531-2.570312 8.3125-.957031 23.992187 14.539062 42.9375 36.882812 53.34375 62.917969.6875 1.730468.640625 3.667968-.132813 5.367187-13.324218 29.238281-20.941406 35.65625-25.507812 37.941406-3.828125 1.90625-4.484375 6.636719-5.265625 18.660157-.480469 7.375-1.082031 16.558593-3.609375 26.664062-3.84375 15.390625-12.039062 20.667969-18.234375 22.382812-1.96875.550782-3.953125.792969-5.90625.792969zm-53.523437-85.0625c3.558593 3.402344 9.089843 8.007813 13.191406 11.433594 15.648437 13.035156 21.125 18.113281 21.125 23.910156 0 4.894531 7.402344 28.867188 10.523437 32.585938 1.917969 1.914062 6.796875 4.320312 10.941407 3.1875 4.882812-1.355469 7.390624-7.566407 8.636718-12.546875 2.230469-8.910156 2.757813-17.050782 3.230469-24.238282.816406-12.539062 1.589844-24.386718 12.78125-29.980468.625-.316406 6.289063-3.714844 17.957031-28.707032-8.816406-20.53125-23.609375-38.328124-42.164062-50.78125-18.328125 18.375-23.21875 26.824219-24.527344 30.03125 17.765625 6.0625 29.449219 11.871094 29.953125 12.125 3.039063 1.519532 4.5 5.042969 3.425781 8.261719-.316406.953125-8.042968 23.335938-31.363281 23.335938-8.835937 0-25.328125 0-33.710937 1.382812zm0 0" fill="#0e65e5"/><path d="m31.71875 398.792969c-9.5625 0-17.40625-2.601563-23.058594-8.261719-31.953125-31.949219 37.433594-126.996094 59.460938-155.367188 2.316406-2.980468 6.597656-3.515624 9.578125-1.207031 2.976562 2.3125 3.515625 6.601563 1.207031 9.578125-59.441406 76.558594-73.078125 124.859375-60.59375 137.34375 17.53125 17.546875 105.65625-19.746094 219.039062-133.117187 113.378907-113.378907 150.675782-201.480469 133.121094-219.042969-12.460937-12.445312-60.640625 1.113281-137.007812 60.332031-2.96875 2.3125-7.273438 1.777344-9.574219-1.210937-2.3125-2.980469-1.769531-7.265625 1.210937-9.574219 28.304688-21.949219 123.144532-91.070313 155.027344-59.199219 34.171875 34.171875-43.082031 148.304688-133.121094 238.347656-75.140624 75.136719-167.0625 141.378907-215.289062 141.378907zm0 0" fill="#0e65e5"/><path d="m357.066406 398.792969c-48.21875.007812-140.140625-66.234375-215.285156-141.378907-90.042969-90.042968-167.292969-204.175781-133.121094-238.347656 31.882813-31.890625 126.722656 37.246094 155.027344 59.199219 2.980469 2.308594 3.519531 6.59375 1.207031 9.574219-2.308593 2.988281-6.597656 3.523437-9.574219 1.210937-76.363281-59.21875-124.542968-72.777343-137.007812-60.332031-17.554688 17.5625 19.746094 105.664062 133.121094 219.042969 113.386718 113.378906 201.484375 150.660156 219.039062 133.117187 12.484375-12.480468-1.152344-60.785156-60.589844-137.34375-2.3125-2.976562-1.773437-7.265625 1.203126-9.578125 2.972656-2.3125 7.269531-1.773437 9.582031 1.207031 22.023437 28.371094 91.410156 123.417969 59.460937 155.367188-5.65625 5.65625-13.503906 8.257812-23.0625 8.261719zm0 0" fill="#0e65e5"/><path d="m392.367188 88.746094c0 15.082031-12.226563 27.308594-27.304688 27.308594-15.082031 0-27.308594-12.226563-27.308594-27.308594 0-15.082032 12.226563-27.304688 27.308594-27.304688 15.078125 0 27.304688 12.222656 27.304688 27.304688zm0 0" fill="#94c1ff" fill-rule="evenodd"/><path d="m365.0625 122.878906c-18.820312 0-34.136719-15.3125-34.136719-34.132812 0-18.820313 15.316407-34.132813 34.136719-34.132813 18.816406 0 34.132812 15.3125 34.132812 34.132813 0 18.820312-15.316406 34.132812-34.132812 34.132812zm0-54.613281c-11.292969 0-20.480469 9.1875-20.480469 20.480469 0 11.292968 9.1875 20.480468 20.480469 20.480468s20.476562-9.1875 20.476562-20.480468c0-11.292969-9.183593-20.480469-20.476562-20.480469zm0 0" fill="#0e65e5"/><path d="m160.261719 238.933594c0 15.082031-12.226563 27.304687-27.308594 27.304687-15.078125 0-27.304687-12.222656-27.304687-27.304687 0-15.082032 12.226562-27.308594 27.304687-27.308594 15.082031 0 27.308594 12.226562 27.308594 27.308594zm0 0" fill="#d7e9ff" fill-rule="evenodd"/><g fill="#0e65e5"><path d="m132.953125 273.066406c-18.816406 0-34.132813-15.3125-34.132813-34.132812 0-18.820313 15.316407-34.132813 34.132813-34.132813 18.820313 0 34.132813 15.3125 34.132813 34.132813 0 18.820312-15.3125 34.132812-34.132813 34.132812zm0-54.613281c-11.292969 0-20.480469 9.1875-20.480469 20.480469 0 11.292968 9.1875 20.480468 20.480469 20.480468s20.480469-9.1875 20.480469-20.480468c0-11.292969-9.1875-20.480469-20.480469-20.480469zm0 0"/><path d="m119.300781 40.960938c0 15.082031-12.226562 27.304687-27.304687 27.304687-15.082032 0-27.308594-12.222656-27.308594-27.304687 0-15.082032 12.226562-27.308594 27.308594-27.308594 15.078125 0 27.304687 12.226562 27.304687 27.308594zm0 0" fill-rule="evenodd"/><path d="m91.996094 75.09375c-18.820313 0-34.136719-15.3125-34.136719-34.132812 0-18.820313 15.316406-34.132813 34.136719-34.132813 18.816406 0 34.132812 15.3125 34.132812 34.132813 0 18.820312-15.316406 34.132812-34.132812 34.132812zm0-54.613281c-11.292969 0-20.480469 9.1875-20.480469 20.480469 0 11.292968 9.1875 20.480468 20.480469 20.480468 11.292968 0 20.476562-9.1875 20.476562-20.480468 0-11.292969-9.183594-20.480469-20.476562-20.480469zm0 0"/><path d="m324.101562 368.640625c0 15.082031-12.226562 27.304687-27.308593 27.304687-15.078125 0-27.304688-12.222656-27.304688-27.304687s12.226563-27.308594 27.304688-27.308594c15.082031 0 27.308593 12.226563 27.308593 27.308594zm0 0" fill-rule="evenodd"/><path d="m296.792969 402.773438c-18.816407 0-34.132813-15.3125-34.132813-34.132813s15.316406-34.132813 34.132813-34.132813c18.820312 0 34.132812 15.3125 34.132812 34.132813s-15.3125 34.132813-34.132812 34.132813zm0-54.613282c-11.292969 0-20.480469 9.1875-20.480469 20.480469s9.1875 20.480469 20.480469 20.480469 20.480469-9.1875 20.480469-20.480469-9.1875-20.480469-20.480469-20.480469zm0 0"/><path d="m228.527344 40.960938c-3.769532 0-6.828125-3.058594-6.828125-6.828126v-27.304687c0-3.773437 3.058593-6.828125 6.828125-6.828125 3.769531 0 6.828125 3.054688 6.828125 6.828125v27.304687c0 3.769532-3.058594 6.828126-6.828125 6.828126zm0 0"/><path d="m242.179688 27.308594h-27.304688c-3.769531 0-6.828125-3.058594-6.828125-6.828125s3.058594-6.828125 6.828125-6.828125h27.304688c3.769531 0 6.828124 3.058594 6.828124 6.828125s-3.058593 6.828125-6.828124 6.828125zm0 0"/><path d="m64.6875 361.8125c-3.769531 0-6.828125-3.054688-6.828125-6.824219v-27.308593c0-3.769532 3.058594-6.828126 6.828125-6.828126s6.828125 3.058594 6.828125 6.828126v27.308593c0 3.769531-3.058594 6.824219-6.828125 6.824219zm0 0"/><path d="m78.339844 348.160156h-27.304688c-3.769531 0-6.828125-3.058594-6.828125-6.828125s3.058594-6.824219 6.828125-6.824219h27.304688c3.769531 0 6.828125 3.054688 6.828125 6.824219s-3.058594 6.828125-6.828125 6.828125zm0 0"/></g></svg>