<?xml version="1.0" encoding="iso-8859-1"?>
<!-- Generator: Adobe Illustrator 16.0.0, SVG Export Plug-In . SVG Version: 6.00 Build 0)  -->
<!DOCTYPE svg PUBLIC "-//W3C//DTD SVG 1.1//EN" "http://www.w3.org/Graphics/SVG/1.1/DTD/svg11.dtd">
<svg version="1.1" id="Capa_1" xmlns="http://www.w3.org/2000/svg" xmlns:xlink="http://www.w3.org/1999/xlink" x="0px" y="0px"
	 width="399.633px" height="550.801px" viewBox="0 0 399.633 550.801" style="enable-background:new 0 0 399.633 550.801;"
	 xml:space="preserve">
<g>
	<g>
		<path  d="m399.495,132c-0.031,-2.529 -0.828,-5.023 -2.562,-6.995l-106.208,-121.311c-0.021,-0.031 -0.053,-0.042 -0.085,-0.074c-0.633,-0.709 -1.36,-1.292 -2.141,-1.803c-0.232,-0.153 -0.464,-0.288 -0.707,-0.422c-0.686,-0.369 -1.392,-0.67 -2.13,-0.892c-0.2,-0.061 -0.38,-0.14 -0.58,-0.195c-0.812,-0.189 -1.634,-0.308 -2.478,-0.308l-261.004,0c-11.907,0 -21.6,9.695 -21.6,21.601l0,507.6c0,11.913 9.692,21.601 21.6,21.601l356.4,0c11.918,0 21.6,-9.688 21.6,-21.601l0,-395.991c0,-0.406 -0.063,-0.812 -0.105,-1.21zm-305.601,380.947l-27.383,-48.283l-9.621,11.781l0,36.508l-25.057,0l0,-111.85l25.057,0l0,49.449l0.501,0c2.489,-4.314 5.142,-8.301 7.636,-12.277l25.387,-37.172l31.031,0l-37.006,47.624l38.995,64.22l-29.54,0zm136.06,0l-1.655,-42.82c-0.496,-13.431 -1.002,-29.699 -1.002,-45.952l-0.497,0c-3.491,14.265 -8.126,30.185 -12.445,43.306l-13.605,43.643l-19.746,0l-11.944,-43.316c-3.652,-13.109 -7.465,-29.035 -10.125,-43.632l-0.335,0c-0.665,15.093 -1.163,32.342 -1.988,46.285l-1.993,42.482l-23.398,0l7.14,-111.845l33.684,0l10.95,37.336c3.483,12.941 6.966,26.885 9.458,39.983l0.496,0c3.153,-12.936 6.971,-27.706 10.62,-40.151l11.947,-37.173l33.022,0l6.138,111.845l-24.722,0l0,0.009zm123.936,0l-86.948,0l0,-13.615l53.262,-76.655l0,-0.664l-48.284,0l0,-20.909l81.143,0l0,14.602l-52.106,75.669l0,0.664l52.935,0l0,20.908l-0.002,0zm-332.29,-146.189l0,-345.153l250.204,0l0,110.519c0,5.961 4.83,10.8 10.8,10.8l95.396,0l0.011,223.834l-356.411,0z"/>
		<g>
			<path d="m199.692,64.505c72.449,-0.276 132.889,59.034 132.746,132.92c-0.138,72.101 -59.537,133.046 -133.854,132.492c-72.838,-0.564 -131.661,-61.617 -131.424,-133.317c0.243,-72.463 59.983,-132.301 132.532,-132.095zm-117.568,96.691c0.433,0.309 0.865,0.606 1.295,0.912c1.312,-0.794 2.734,-1.463 3.91,-2.418c2.618,-2.138 5.07,-4.498 7.673,-6.657c15.617,-12.968 32.616,-16.757 51.371,-7.317c6.344,3.19 12.696,6.516 18.602,10.437c26.109,17.328 51.674,35.521 78.205,52.165c20.999,13.181 43.875,22.61 68.46,27.382c3.797,0.741 5.506,-0.253 6.223,-3.644c0.991,-4.617 1.571,-9.337 2.821,-13.877c0.828,-2.987 -0.274,-4.095 -2.811,-4.688c-13.078,-3.082 -25.07,-8.878 -35.495,-17.01c-19.074,-14.881 -37.605,-30.478 -56.083,-46.105c-12.794,-10.826 -24.943,-22.409 -37.689,-33.302c-17.305,-14.769 -37.589,-17.497 -59.173,-13.176c-5.329,1.062 -11.588,2.252 -15.325,5.664c-12.852,11.752 -23.042,25.716 -29.133,42.282c-1.119,3.051 -1.913,6.236 -2.851,9.352zm219.053,105.403c-0.496,-0.529 -0.981,-1.046 -1.477,-1.576c-1.566,0.396 -3.144,0.757 -4.699,1.184c-16.675,4.567 -33.597,8.564 -50.904,7.699c-14.935,-0.751 -29.916,-2.787 -44.621,-5.579c-25.423,-4.831 -48.977,-15.414 -72.792,-25.196c-7.538,-3.093 -15.704,-5.762 -23.738,-6.308c-10.747,-0.732 -16.648,10.136 -11.541,19.42c12.01,21.821 29.049,38.586 51.073,50.229c1.767,0.928 3.786,1.371 6.692,2.399c-0.583,-2.896 -0.838,-4.52 -1.237,-6.097c-2.916,-11.585 1.814,-16.437 13.688,-13.99c1.653,0.343 3.312,0.675 4.954,1.107c28.569,7.372 57.431,10.821 86.867,6.381c15.567,-2.352 30.786,-5.374 40.531,-19.723c2.3,-3.395 4.799,-6.646 7.204,-9.95zm-136.58,-186.851c0.087,0.707 0.172,1.405 0.259,2.112c1.236,0.206 2.463,0.546 3.699,0.604c6.415,0.358 12.83,0.585 19.24,0.973c23.453,1.421 44.146,9.851 60.057,27.108c12.351,13.387 22.739,28.582 34.383,42.654c5.136,6.225 10.811,12.139 16.948,17.378c4.62,3.937 10.173,3.375 14.075,0.192c4.267,-3.478 4.952,-6.787 2.769,-13.239c-7.688,-22.805 -21.146,-41.7 -40.136,-56.252c-27.527,-21.12 -58.726,-30.048 -93.377,-25.444c-6.03,0.797 -11.949,2.585 -17.917,3.914z"/>
		</g>
	</g>
</g>
<g>
</g>
<g>
</g>
<g>
</g>
<g>
</g>
<g>
</g>
<g>
</g>
<g>
</g>
<g>
</g>
<g>
</g>
<g>
</g>
<g>
</g>
<g>
</g>
<g>
</g>
<g>
</g>
<g>
</g>
</svg>
