<?xml version="1.0" encoding="iso-8859-1"?>
<!-- Generator: Adobe Illustrator 19.0.0, SVG Export Plug-In . SVG Version: 6.00 Build 0)  -->
<svg version="1.1" id="Capa_1" xmlns="http://www.w3.org/2000/svg" xmlns:xlink="http://www.w3.org/1999/xlink" x="0px" y="0px"
	 viewBox="0 0 512 512" style="enable-background:new 0 0 512 512;" xml:space="preserve">
<g>
	<g>
		<path d="M437.02,74.98C388.667,26.629,324.38,0,256,0S123.333,26.629,74.98,74.98C26.629,123.332,0,187.62,0,256
			s26.629,132.668,74.98,181.02C123.333,485.371,187.62,512,256,512s132.667-26.629,181.02-74.98
			C485.371,388.668,512,324.38,512,256S485.371,123.332,437.02,74.98z M481.504,241.217l-169.545-0.163l146.865-84.667
			C471.59,182.275,479.539,210.942,481.504,241.217z M443.804,130.417l-146.828,84.647l84.788-146.749
			C406.256,84.781,427.361,105.909,443.804,130.417z M271,30.51c30.271,1.994,58.93,9.971,84.807,22.762L271,200.054V30.51z
			 M241,30.51v169.112L156.97,52.886C182.643,40.318,211.032,32.484,241,30.51z M130.962,67.838l84.22,147.068L68.675,129.693
			C85.209,105.25,106.403,84.211,130.962,67.838z M53.563,155.609l146.535,85.23l-169.547-0.49
			C32.631,210.09,40.694,181.454,53.563,155.609z M30.468,270.349l169.544,0.49l-147.03,84.385
			C40.267,329.315,32.376,300.632,30.468,270.349z M67.957,381.22l146.987-84.361l-85.071,146.587
			C105.415,426.935,84.354,405.762,67.957,381.22z M240.566,481.462c-30.263-2.051-58.907-10.085-84.762-22.928l85.088-146.617
			L240.566,481.462z M229.98,256c0-14.348,11.673-26.02,26.02-26.02c14.348,0,26.021,11.672,26.021,26.02
			c0,14.348-11.673,26.021-26.021,26.021C241.652,282.021,229.98,270.348,229.98,256z M270.565,481.518l0.327-169.545
			l84.526,146.948C329.519,471.662,300.845,479.582,270.565,481.518z M381.4,443.924l-84.504-146.909l146.669,84.93
			C427.077,406.421,405.926,427.504,381.4,443.924z M458.631,356.002l-146.7-84.948l169.545,0.163
			C479.454,301.484,471.448,330.135,458.631,356.002z"/>
	</g>
</g>
<g>
</g>
<g>
</g>
<g>
</g>
<g>
</g>
<g>
</g>
<g>
</g>
<g>
</g>
<g>
</g>
<g>
</g>
<g>
</g>
<g>
</g>
<g>
</g>
<g>
</g>
<g>
</g>
<g>
</g>
</svg>
