<?xml version="1.0" encoding="iso-8859-1"?>
<!-- Generator: Adobe Illustrator 19.0.0, SVG Export Plug-In . SVG Version: 6.00 Build 0)  -->
<svg version="1.1" id="Capa_1" xmlns="http://www.w3.org/2000/svg" xmlns:xlink="http://www.w3.org/1999/xlink" x="0px" y="0px"
	 viewBox="0 0 512 512" style="enable-background:new 0 0 512 512;" xml:space="preserve">
<g>
	<g>
		<path d="M508.778,369.783l-68.271-256.895c-3.208-12.685-11.594-24.143-23.771-32.626c-1.344-11.92-8.099-23.08-19.019-31.126
			C386.659,40.987,372.198,36.5,357,36.5s-29.659,4.487-40.718,12.636C304.028,58.165,297,71.112,297,84.658
			c0,4.789,0.87,9.524,2.555,14.047C294.651,106.716,292,115.61,292,124.71v16.79c-10.562-4.542-23.04-7-36-7
			c-12.96,0-25.438,2.458-36,7v-16.79c0-9.1-2.651-17.994-7.555-26.006C214.13,94.182,215,89.447,215,84.658
			c0-13.545-7.028-26.493-19.282-35.522C184.659,40.987,170.198,36.5,155,36.5s-29.659,4.487-40.718,12.636
			c-10.92,8.046-17.675,19.207-19.019,31.126c-12.177,8.484-20.563,19.941-23.771,32.626L3.222,369.783
			C1.627,374.8,0,386.083,0,390.5c0,23.585,12.049,45.453,33.927,61.573C54.43,467.18,81.446,475.5,110,475.5
			s55.57-8.32,76.073-23.427C207.951,435.953,220,414.085,220,390.5v-44.031c8.217,10.94,21.295,18.031,36,18.031
			s27.783-7.091,36-18.031V390.5c0,23.585,12.049,45.453,33.927,61.573C346.43,467.18,373.446,475.5,402,475.5
			c28.554,0,55.57-8.32,76.073-23.427C499.951,435.953,512,414.085,512,390.5C512,386.083,510.373,374.8,508.778,369.783z
			 M168.277,427.922C152.894,439.257,132.196,445.5,110,445.5s-42.894-6.243-58.277-17.578C37.715,417.6,30,404.31,30,390.5
			c0-30.333,39.667-55,80-55c22.196,0,42.893,6.243,58.277,17.578C182.285,363.4,190,376.69,190,390.5
			S182.285,417.6,168.277,427.922z M256,334.5c-8.271,0-15-6.729-15-15s6.729-15,15-15s15,6.729,15,15S264.271,334.5,256,334.5z
			 M460.277,427.922C444.894,439.257,424.196,445.5,402,445.5c-22.196,0-42.894-6.243-58.277-17.578
			C329.715,417.6,322,404.31,322,390.5s7.715-27.1,21.723-37.422C359.107,341.743,379.804,335.5,402,335.5c40.333,0,80,24.667,80,55
			C482,404.31,474.285,417.6,460.277,427.922z"/>
	</g>
</g>
<g>
</g>
<g>
</g>
<g>
</g>
<g>
</g>
<g>
</g>
<g>
</g>
<g>
</g>
<g>
</g>
<g>
</g>
<g>
</g>
<g>
</g>
<g>
</g>
<g>
</g>
<g>
</g>
<g>
</g>
</svg>
