<?xml version="1.0" encoding="iso-8859-1"?>
<!-- Generator: Adobe Illustrator 19.0.0, SVG Export Plug-In . SVG Version: 6.00 Build 0)  -->
<svg version="1.1" id="Capa_1" xmlns="http://www.w3.org/2000/svg" xmlns:xlink="http://www.w3.org/1999/xlink" x="0px" y="0px"
	 viewBox="0 0 512 512" style="enable-background:new 0 0 512 512;" xml:space="preserve">
<g>
	<g>
		<rect x="86" y="153.929" width="41" height="26.654"/>
	</g>
</g>
<g>
	<g>
		<path d="M483.947,207.356H260.581c-26.157,0-47.438-21.281-47.438-47.438V94.011H0v271.826h419.757
			c50.863,0,92.243-41.38,92.243-92.243C512,248.381,501.727,224.573,483.947,207.356z M157,210.587H56v-86.654h101V210.587z
			 M274.333,270.653h-30v-30h30V270.653z M330,270.653h-30v-30h30V270.653z M385.667,270.653h-30v-30h30V270.653z"/>
	</g>
</g>
<g>
	<g>
		<path d="M351.471,115.627c-20.8-14.141-45.089-21.615-70.241-21.615h-38.088v65.906c0.001,9.615,7.824,17.438,17.439,17.438
			h181.687L351.471,115.627z"/>
	</g>
</g>
<g>
	<g>
		<rect y="387.989" width="425" height="30"/>
	</g>
</g>
<g>
</g>
<g>
</g>
<g>
</g>
<g>
</g>
<g>
</g>
<g>
</g>
<g>
</g>
<g>
</g>
<g>
</g>
<g>
</g>
<g>
</g>
<g>
</g>
<g>
</g>
<g>
</g>
<g>
</g>
</svg>
