<svg id="Layer_5" enable-background="new 0 0 64 64" height="512" viewBox="0 0 64 64" width="512" xmlns="http://www.w3.org/2000/svg"><g><path d="m5 33h20c1.103 0 2-.897 2-2s-.897-2-2-2-2 .897-2 2h-2c0-1.383.706-2.603 1.776-3.322-.549-1.586-2.04-2.678-3.776-2.678-.133 0-.26.021-.388.039l-.862.114-.309-.667c-.98-2.118-3.116-3.486-5.441-3.486-3.309 0-6 2.691-6 6 0 .048.009.097.01.145 1.715.451 2.99 2.001 2.99 3.855h-2c0-1.103-.897-2-2-2s-2 .897-2 2 .897 2 2 2z"/><path d="m46.559 18.486-.309.667-.86-.114c-.129-.018-.257-.039-.39-.039-1.736 0-3.227 1.092-3.776 2.678 1.07.719 1.776 1.939 1.776 3.322h-2c0-1.103-.897-2-2-2s-2 .897-2 2 .897 2 2 2h20c1.103 0 2-.897 2-2s-.897-2-2-2-2 .897-2 2h-2c0-1.854 1.275-3.404 2.99-3.855.001-.048.01-.097.01-.145 0-3.309-2.691-6-6-6-2.325 0-4.461 1.368-5.441 3.486z"/><path d="m49.436 41c2.951-3.423 4.776-7.547 5.353-12h-15.789c-2.206 0-4-1.794-4-4s1.794-4 4-4c.114 0 .221.024.332.034.82-2.388 3.059-4.034 5.668-4.034.026 0 .053 0 .079.001 1.254-2.167 3.466-3.624 5.935-3.935-4.262-6.247-11.392-10.066-19.014-10.066-10.114 0-19.071 6.734-21.993 16.262.638-.165 1.304-.262 1.993-.262 2.858 0 5.502 1.549 6.921 4.001.026-.001.053-.001.079-.001 2.609 0 4.848 1.646 5.668 4.034.111-.01.218-.034.332-.034 2.206 0 4 1.794 4 4s-1.794 4-4 4h-14.15c.925 2.176 2.157 4.194 3.714 6h-13.564v2h62v-2zm-33.307-25.45-1.67-1.101c.479-.727 1.012-1.434 1.582-2.1l1.52 1.301c-.516.603-.998 1.242-1.432 1.9zm34.273 15.201 1.937.498c-.162.631-.407 1.317-.728 2.039l-1.828-.813c.276-.62.484-1.2.619-1.724zm-1.482 3.419 1.739.987c-.321.566-.686 1.159-1.084 1.762l-1.669-1.103c.373-.564.715-1.118 1.014-1.646zm-2.132 3.239 1.604 1.193c-.431.58-.86 1.124-1.268 1.615l-1.54-1.276c.388-.466.795-.983 1.204-1.532zm-27.355-25.659-1.323-1.5c3.836-3.386 8.769-5.25 13.89-5.25v2c-4.633 0-9.097 1.687-12.567 4.75z"/><path d="m5 45h54v2h-54z"/><path d="m9 49h46v2h-46z"/><path d="m13 53h38v2h-38z"/><path d="m17 57h30v2h-30z"/><path d="m21 61h22v2h-22z"/></g></svg>