<?xml version="1.0" encoding="UTF-8"?><!DOCTYPE svg PUBLIC "-//W3C//DTD SVG 1.1//EN" "http://www.w3.org/Graphics/SVG/1.1/DTD/svg11.dtd"><svg xmlns="http://www.w3.org/2000/svg" xmlns:xlink="http://www.w3.org/1999/xlink"><defs/><symbol id="_sprite"/><symbol id="arrow-down" viewBox="0 0 491.996 491.996">
<g>
	<g>
		<path d="M484.132,124.986l-16.116-16.228c-5.072-5.068-11.82-7.86-19.032-7.86c-7.208,0-13.964,2.792-19.036,7.86l-183.84,183.848
			L62.056,108.554c-5.064-5.068-11.82-7.856-19.028-7.856s-13.968,2.788-19.036,7.856l-16.12,16.128
			c-10.496,10.488-10.496,27.572,0,38.06l219.136,219.924c5.064,5.064,11.812,8.632,19.084,8.632h0.084
			c7.212,0,13.96-3.572,19.024-8.632l218.932-219.328c5.072-5.064,7.856-12.016,7.864-19.224
			C491.996,136.902,489.204,130.046,484.132,124.986z"/>
	</g>
</g>
<g>
</g>
<g>
</g>
<g>
</g>
<g>
</g>
<g>
</g>
<g>
</g>
<g>
</g>
<g>
</g>
<g>
</g>
<g>
</g>
<g>
</g>
<g>
</g>
<g>
</g>
<g>
</g>
<g>
</g>
</symbol><symbol id="click-location" viewBox="0 0 511.998 511.998">
<g transform="translate(0 -1)">
	<g>
		<g>
			<path d="M167.974,351.473c21.086,29.73,42.138,56.32,56.09,73.446c2.031,2.492,3.934,4.804,5.777,7.031h-42.103
				c-4.713,0-8.533,3.82-8.533,8.533s3.82,8.533,8.533,8.533H324.27c4.713,0,8.533-3.82,8.533-8.533s-3.82-8.533-8.533-8.533
				h-42.103c1.843-2.227,3.746-4.54,5.786-7.031c13.943-17.067,34.987-43.716,56.081-73.446
				c20.929-28.905,39.767-59.267,56.371-90.854c17.425-34.219,26.266-62.626,26.266-84.437
				c0.058-45.321-17.926-88.801-49.98-120.841c-2.141-2.22-5.313-3.112-8.297-2.333c-2.984,0.779-5.316,3.107-6.099,6.09
				c-0.783,2.983,0.104,6.156,2.321,8.3c28.852,28.844,45.039,67.985,44.988,108.783c0,19.098-8.209,44.902-24.405,76.689
				c-16.229,30.855-34.64,60.513-55.091,88.747c-20.804,29.346-41.6,55.637-55.381,72.533c-4.582,5.615-8.704,10.581-12.22,14.78
				c-1.641,1.874-4.011,2.948-6.502,2.948c-2.491,0-4.861-1.075-6.502-2.948c-3.516-4.198-7.637-9.165-12.22-14.78
				c-13.781-16.887-34.577-43.179-55.381-72.533c-20.451-28.234-38.862-57.892-55.091-88.747
				c-16.213-31.787-24.405-57.591-24.405-76.689c-0.005-61.809,36.959-117.627,93.867-141.747
				c38.238-16.034,81.314-16.034,119.552,0c2.808,1.19,6.037,0.793,8.472-1.044c2.435-1.836,3.705-4.832,3.332-7.859
				c-0.373-3.027-2.332-5.625-5.14-6.815c-86.898-36.652-187.056,4.062-223.735,90.948c-8.895,21.046-13.457,43.669-13.414,66.517
				c0,21.811,8.841,50.219,26.266,84.48C128.208,292.234,147.047,322.582,167.974,351.473z"/>
			<path d="M256.003,99.151c4.713,0,8.533-3.82,8.533-8.533s-3.82-8.533-8.533-8.533c-40.71-0.001-75.752,28.757-83.695,68.685
				c-7.943,39.928,13.426,79.906,51.037,95.486c37.611,15.58,80.99,2.421,103.608-31.428
				c22.618-33.849,18.175-78.962-10.611-107.749c-2.143-2.218-5.315-3.108-8.299-2.327c-2.983,0.781-5.313,3.111-6.094,6.094
				c-0.781,2.984,0.109,6.156,2.327,8.299c23.03,23.029,26.585,59.118,8.492,86.198c-18.093,27.08-52.796,37.608-82.885,25.146
				c-30.089-12.462-47.185-44.444-40.833-76.387S223.435,99.152,256.003,99.151z"/>
			<path d="M508.786,470.957l-52.48-93.867c-4.745-8.34-13.624-13.466-23.219-13.406H372.27c-4.713,0-8.533,3.82-8.533,8.533
				s3.82,8.533,8.533,8.533h60.817c3.416-0.066,6.603,1.715,8.337,4.659l52.463,93.867c1.429,2.442,1.399,5.471-0.077,7.885
				c-1.743,2.88-4.895,4.605-8.26,4.523H26.457c-3.362,0.08-6.51-1.646-8.252-4.523c-1.476-2.414-1.505-5.443-0.077-7.885
				l52.463-93.867c1.731-2.943,4.915-4.724,8.328-4.659h60.817c4.713,0,8.533-3.82,8.533-8.533s-3.82-8.533-8.533-8.533H78.92
				c-9.6-0.063-18.486,5.063-23.236,13.406L3.212,470.957c-4.375,7.728-4.274,17.208,0.265,24.841
				c4.782,8.128,13.551,13.071,22.98,12.954H485.55c9.426,0.114,18.192-4.828,22.972-12.954
				C513.061,488.164,513.162,478.685,508.786,470.957z"/>
			<path d="M418.137,406.351h-34.133c-1.685,0.003-3.332,0.501-4.736,1.434l-25.6,17.067c-3.921,2.616-4.979,7.915-2.364,11.836
				c2.616,3.921,7.915,4.979,11.836,2.364l23.424-15.633h31.573c4.713,0,8.533-3.821,8.533-8.533
				C426.67,410.171,422.85,406.351,418.137,406.351z"/>
			<path d="M366.937,466.084c0,4.713,3.82,8.533,8.533,8.533h68.267c4.713,0,8.533-3.82,8.533-8.533s-3.82-8.533-8.533-8.533H375.47
				C370.757,457.551,366.937,461.371,366.937,466.084z"/>
			<path d="M153.603,440.484c3.762,0.005,7.083-2.455,8.176-6.055c1.093-3.6-0.301-7.491-3.431-9.578l-25.6-17.067
				c-1.406-0.934-3.057-1.433-4.745-1.434H93.87c-4.713,0-8.533,3.821-8.533,8.533c0,4.713,3.821,8.533,8.533,8.533h31.573
				l23.45,15.633C150.288,439.981,151.927,440.48,153.603,440.484z"/>
			<path d="M68.27,457.551c-4.713,0-8.533,3.82-8.533,8.533s3.82,8.533,8.533,8.533h68.267c4.713,0,8.533-3.82,8.533-8.533
				s-3.82-8.533-8.533-8.533H68.27z"/>
		</g>
	</g>
</g>
<g>
</g>
<g>
</g>
<g>
</g>
<g>
</g>
<g>
</g>
<g>
</g>
<g>
</g>
<g>
</g>
<g>
</g>
<g>
</g>
<g>
</g>
<g>
</g>
<g>
</g>
<g>
</g>
<g>
</g>
</symbol><symbol id="close" viewBox="0 0 492 492">
<g>
	<g>
		<path d="M300.188,246L484.14,62.04c5.06-5.064,7.852-11.82,7.86-19.024c0-7.208-2.792-13.972-7.86-19.028L468.02,7.872
			c-5.068-5.076-11.824-7.856-19.036-7.856c-7.2,0-13.956,2.78-19.024,7.856L246.008,191.82L62.048,7.872
			c-5.06-5.076-11.82-7.856-19.028-7.856c-7.2,0-13.96,2.78-19.02,7.856L7.872,23.988c-10.496,10.496-10.496,27.568,0,38.052
			L191.828,246L7.872,429.952c-5.064,5.072-7.852,11.828-7.852,19.032c0,7.204,2.788,13.96,7.852,19.028l16.124,16.116
			c5.06,5.072,11.824,7.856,19.02,7.856c7.208,0,13.968-2.784,19.028-7.856l183.96-183.952l183.952,183.952
			c5.068,5.072,11.824,7.856,19.024,7.856h0.008c7.204,0,13.96-2.784,19.028-7.856l16.12-16.116
			c5.06-5.064,7.852-11.824,7.852-19.028c0-7.204-2.792-13.96-7.852-19.028L300.188,246z"/>
	</g>
</g>
<g>
</g>
<g>
</g>
<g>
</g>
<g>
</g>
<g>
</g>
<g>
</g>
<g>
</g>
<g>
</g>
<g>
</g>
<g>
</g>
<g>
</g>
<g>
</g>
<g>
</g>
<g>
</g>
<g>
</g>
</symbol><symbol id="confirm" viewBox="0 -46 417.81333 417"><path d="m159.988281 318.582031c-3.988281 4.011719-9.429687 6.25-15.082031 6.25s-11.09375-2.238281-15.082031-6.25l-120.449219-120.46875c-12.5-12.5-12.5-32.769531 0-45.246093l15.082031-15.085938c12.503907-12.5 32.75-12.5 45.25 0l75.199219 75.203125 203.199219-203.203125c12.503906-12.5 32.769531-12.5 45.25 0l15.082031 15.085938c12.5 12.5 12.5 32.765624 0 45.246093zm0 0"/></symbol><symbol id="duplicate" viewBox="0 0 55.699 55.699">
<g>
	<path d="M51.51,18.001c-0.006-0.085-0.022-0.167-0.05-0.248c-0.012-0.034-0.02-0.067-0.035-0.1
		c-0.049-0.106-0.109-0.206-0.194-0.291v-0.001l0,0c0,0-0.001-0.001-0.001-0.002L34.161,0.293c-0.086-0.087-0.188-0.148-0.295-0.197
		c-0.027-0.013-0.057-0.02-0.086-0.03c-0.086-0.029-0.174-0.048-0.265-0.053C33.494,0.011,33.475,0,33.453,0H22.177
		c-3.678,0-6.669,2.992-6.669,6.67v1.674h-4.663c-3.678,0-6.67,2.992-6.67,6.67V49.03c0,3.678,2.992,6.669,6.67,6.669h22.677
		c3.677,0,6.669-2.991,6.669-6.669v-1.675h4.664c3.678,0,6.669-2.991,6.669-6.669V18.069C51.524,18.045,51.512,18.025,51.51,18.001z
		 M34.454,3.414l13.655,13.655h-8.985c-2.575,0-4.67-2.095-4.67-4.67V3.414z M38.191,49.029c0,2.574-2.095,4.669-4.669,4.669H10.845
		c-2.575,0-4.67-2.095-4.67-4.669V15.014c0-2.575,2.095-4.67,4.67-4.67h5.663h4.614v10.399c0,3.678,2.991,6.669,6.668,6.669h10.4
		v18.942L38.191,49.029L38.191,49.029z M36.777,25.412h-8.986c-2.574,0-4.668-2.094-4.668-4.669v-8.985L36.777,25.412z
		 M44.855,45.355h-4.664V26.412c0-0.023-0.012-0.044-0.014-0.067c-0.006-0.085-0.021-0.167-0.049-0.249
		c-0.012-0.033-0.021-0.066-0.036-0.1c-0.048-0.105-0.109-0.205-0.194-0.29l0,0l0,0c0-0.001-0.001-0.002-0.001-0.002L22.829,8.637
		c-0.087-0.086-0.188-0.147-0.295-0.196c-0.029-0.013-0.058-0.021-0.088-0.031c-0.086-0.03-0.172-0.048-0.263-0.053
		c-0.021-0.002-0.04-0.013-0.062-0.013h-4.614V6.67c0-2.575,2.095-4.67,4.669-4.67h10.277v10.4c0,3.678,2.992,6.67,6.67,6.67h10.399
		v21.616C49.524,43.26,47.429,45.355,44.855,45.355z"/>
</g>
<g>
</g>
<g>
</g>
<g>
</g>
<g>
</g>
<g>
</g>
<g>
</g>
<g>
</g>
<g>
</g>
<g>
</g>
<g>
</g>
<g>
</g>
<g>
</g>
<g>
</g>
<g>
</g>
<g>
</g>
</symbol><symbol id="earth" viewBox="-2 0 402 402.77333"><path d="m317.273438 204.800781c0 67.863281-55.015626 122.878907-122.878907 122.878907s-122.878906-55.015626-122.878906-122.878907c0-67.867187 55.015625-122.878906 122.878906-122.878906s122.878907 55.011719 122.878907 122.878906zm0 0" fill="#94c1ff" fill-rule="evenodd"/><path d="m194.394531 334.507812c-71.519531 0-129.707031-58.1875-129.707031-129.707031s58.1875-129.707031 129.707031-129.707031 129.707031 58.1875 129.707031 129.707031-58.1875 129.707031-129.707031 129.707031zm0-245.761718c-63.992187 0-116.054687 52.0625-116.054687 116.054687 0 63.992188 52.0625 116.050781 116.054687 116.050781 63.992188 0 116.054688-52.058593 116.054688-116.050781 0-63.992187-52.0625-116.054687-116.054688-116.054687zm0 0" fill="#0e65e5"/><path d="m163.898438 121.027344c-2.851563 0-5.511719-1.800782-6.46875-4.65625-1.203126-3.574219.71875-7.441406 4.292968-8.644532 17.445313-5.867187 36.605469-6.894531 54.613282-2.96875 3.683593.804688 6.015624 4.441407 5.214843 8.125-.808593 3.683594-4.464843 6.011719-8.128906 5.214844-15.59375-3.402344-32.230469-2.515625-47.347656 2.570313-.71875.242187-1.457031.359375-2.175781.359375zm0 0" fill="#fff"/><path d="m76.390625 170.542969c10.582031 2.242187 20.5 5.679687 23.121094 10.925781 6.222656 12.441406 18.667969 12.441406 31.109375 0 12.445312-12.445312 31.109375-24.886719 12.445312-43.554688-9.316406-9.3125-12.378906-24.683593-13.109375-37.742187-25.636719 15.820313-44.996093 40.796875-53.566406 70.371094zm0 0" fill="#d7e9ff" fill-rule="evenodd"/><path d="m112.695312 197.625c-1.089843 0-2.167968-.085938-3.230468-.257812-6.765625-1.097657-12.46875-5.660157-16.0625-12.847657-.015625-.035156-2.089844-3.839843-18.425782-7.292969-1.855468-.394531-3.464843-1.542968-4.445312-3.171874-.972656-1.625-1.230469-3.585938-.699219-5.410157 8.964844-30.929687 29.046875-57.3125 56.539063-74.28125 2.046875-1.269531 4.609375-1.355469 6.746094-.242187 2.132812 1.109375 3.523437 3.269531 3.65625 5.671875.597656 10.714843 3.015624 25.191406 11.117187 33.300781 6.671875 6.667969 10 13.605469 9.894531 20.617188-.175781 11.632812-9.457031 20.371093-17.648437 28.085937-1.601563 1.507813-3.191407 3.003906-4.6875 4.5-7.390625 7.390625-15.355469 11.328125-22.753907 11.328125zm-27.550781-31.972656c11.144531 3.140625 17.722657 7.265625 20.472657 12.761718 1.621093 3.25 3.652343 5.089844 6.03125 5.476563 3.746093.625 8.925781-2.03125 14.144531-7.25 1.589843-1.589844 3.28125-3.183594 4.984375-4.789063 6.523437-6.144531 13.269531-12.492187 13.355468-18.347656.046876-3.179687-1.9375-6.800781-5.894531-10.761718-7.015625-7.015626-11.652343-17.246094-13.839843-30.503907-18.027344 13.628907-31.648438 32.144531-39.253907 53.414063zm0 0" fill="#0e65e5"/><path d="m161.730469 299.683594s12.441406-37.332032 0-43.554688c-12.445313-6.222656-24.886719 0-31.109375-18.664062-6.222656-18.667969 0-24.886719 18.664062-31.109375 18.664063-6.222657 43.550782 0 49.773438 24.886719 6.222656 24.886718-6.222656 37.328124-12.441406 62.21875-4.527344 18.109374-24.886719 6.222656-24.886719 6.222656zm0 0" fill="#d7e9ff" fill-rule="evenodd"/><path d="m174.808594 310.328125c-8.078125 0-15.472656-4.136719-16.519532-4.746094-2.789062-1.628906-4.054687-4.992187-3.035156-8.054687 5.582032-16.789063 6.5625-33.722656 3.421875-35.292969-3.140625-1.566406-6.476562-2.160156-10.007812-2.78125-8.476563-1.492187-19.03125-3.351563-24.523438-19.832031-2.582031-7.75-4.828125-17.730469.796875-26.164063 4.660156-6.988281 13.417969-10.652343 22.191406-13.578125 12.894532-4.300781 27.265626-3.203125 38.433594 2.925782 10.175782 5.582031 17.128906 14.84375 20.117188 26.78125 4.757812 19.03125-.289063 31.863281-5.632813 45.453124-2.421875 6.15625-4.925781 12.527344-6.808593 20.078126-2.128907 8.5-7.058594 12.171874-10.820313 13.757812-2.488281 1.050781-5.085937 1.453125-7.613281 1.453125zm-13.078125-10.644531h.066406zm8.316406-3.832032c2.59375.796876 5.347656 1.175782 7.085937.4375.480469-.203124 1.949219-.832031 2.859376-4.484374 2.105468-8.40625 4.890624-15.5 7.351562-21.761719 5.101562-12.976563 8.789062-22.355469 5.09375-37.144531-2.066406-8.269532-6.589844-14.363282-13.441406-18.125-7.898438-4.335938-18.210938-5.0625-27.550782-1.941407-8.605468 2.867188-13.277343 5.398438-15.144531 8.199219-1.132812 1.699219-2.285156 5.027344.796875 14.273438 2.917969 8.761718 6.371094 9.371093 13.9375 10.703124 4.136719.726563 8.828125 1.554688 13.75 4.015626 13.976563 6.988281 9.105469 32.210937 5.261719 45.828124zm0 0" fill="#0e65e5"/><path d="m257.976562 99.632812c-18.570312 18.160157-38.753906 40.855469-27.808593 44.503907 18.667969 6.222656 31.109375 12.445312 31.109375 12.445312s-6.222656 18.664063-24.886719 18.664063-43.550781 0-43.550781 6.222656 37.328125 31.109375 37.328125 37.332031c0 6.21875 8.046875 32.929688 12.445312 37.328125 6.222657 6.222656 24.886719 12.445313 31.109375-12.441406s0-43.554688 12.441406-49.777344c6.957032-3.476562 15.855469-20.40625 22.351563-34.664062-9.960937-24.933594-27.828125-45.851563-50.539063-59.613282zm0 0" fill="#d7e9ff" fill-rule="evenodd"/><path d="m256.203125 268.519531c-7.414063 0-14.382813-3.527343-18.417969-7.5625-5.765625-5.769531-13.558594-31.925781-14.371094-40.828125-2.0625-2.902344-10.558593-9.984375-16.28125-14.753906-15.648437-13.035156-21.125-18.117188-21.125-23.910156 0-12.441406 18.203126-13.046875 50.382813-13.046875 7.882813 0 12.800781-4.667969 15.550781-8.621094-5.308594-2.328125-13.679687-5.769531-23.929687-9.1875-3.878907-1.292969-6.601563-4.183594-7.464844-7.933594-1.484375-6.453125 1.230469-17.199219 32.65625-47.925781 2.222656-2.179688 5.644531-2.570312 8.3125-.957031 23.992187 14.539062 42.9375 36.882812 53.34375 62.917969.6875 1.730468.640625 3.667968-.132813 5.367187-13.324218 29.238281-20.941406 35.65625-25.507812 37.941406-3.828125 1.90625-4.484375 6.636719-5.265625 18.660157-.480469 7.375-1.082031 16.558593-3.609375 26.664062-3.84375 15.390625-12.039062 20.667969-18.234375 22.382812-1.96875.550782-3.953125.792969-5.90625.792969zm-53.523437-85.0625c3.558593 3.402344 9.089843 8.007813 13.191406 11.433594 15.648437 13.035156 21.125 18.113281 21.125 23.910156 0 4.894531 7.402344 28.867188 10.523437 32.585938 1.917969 1.914062 6.796875 4.320312 10.941407 3.1875 4.882812-1.355469 7.390624-7.566407 8.636718-12.546875 2.230469-8.910156 2.757813-17.050782 3.230469-24.238282.816406-12.539062 1.589844-24.386718 12.78125-29.980468.625-.316406 6.289063-3.714844 17.957031-28.707032-8.816406-20.53125-23.609375-38.328124-42.164062-50.78125-18.328125 18.375-23.21875 26.824219-24.527344 30.03125 17.765625 6.0625 29.449219 11.871094 29.953125 12.125 3.039063 1.519532 4.5 5.042969 3.425781 8.261719-.316406.953125-8.042968 23.335938-31.363281 23.335938-8.835937 0-25.328125 0-33.710937 1.382812zm0 0" fill="#0e65e5"/><path d="m31.71875 398.792969c-9.5625 0-17.40625-2.601563-23.058594-8.261719-31.953125-31.949219 37.433594-126.996094 59.460938-155.367188 2.316406-2.980468 6.597656-3.515624 9.578125-1.207031 2.976562 2.3125 3.515625 6.601563 1.207031 9.578125-59.441406 76.558594-73.078125 124.859375-60.59375 137.34375 17.53125 17.546875 105.65625-19.746094 219.039062-133.117187 113.378907-113.378907 150.675782-201.480469 133.121094-219.042969-12.460937-12.445312-60.640625 1.113281-137.007812 60.332031-2.96875 2.3125-7.273438 1.777344-9.574219-1.210937-2.3125-2.980469-1.769531-7.265625 1.210937-9.574219 28.304688-21.949219 123.144532-91.070313 155.027344-59.199219 34.171875 34.171875-43.082031 148.304688-133.121094 238.347656-75.140624 75.136719-167.0625 141.378907-215.289062 141.378907zm0 0" fill="#0e65e5"/><path d="m357.066406 398.792969c-48.21875.007812-140.140625-66.234375-215.285156-141.378907-90.042969-90.042968-167.292969-204.175781-133.121094-238.347656 31.882813-31.890625 126.722656 37.246094 155.027344 59.199219 2.980469 2.308594 3.519531 6.59375 1.207031 9.574219-2.308593 2.988281-6.597656 3.523437-9.574219 1.210937-76.363281-59.21875-124.542968-72.777343-137.007812-60.332031-17.554688 17.5625 19.746094 105.664062 133.121094 219.042969 113.386718 113.378906 201.484375 150.660156 219.039062 133.117187 12.484375-12.480468-1.152344-60.785156-60.589844-137.34375-2.3125-2.976562-1.773437-7.265625 1.203126-9.578125 2.972656-2.3125 7.269531-1.773437 9.582031 1.207031 22.023437 28.371094 91.410156 123.417969 59.460937 155.367188-5.65625 5.65625-13.503906 8.257812-23.0625 8.261719zm0 0" fill="#0e65e5"/><path d="m392.367188 88.746094c0 15.082031-12.226563 27.308594-27.304688 27.308594-15.082031 0-27.308594-12.226563-27.308594-27.308594 0-15.082032 12.226563-27.304688 27.308594-27.304688 15.078125 0 27.304688 12.222656 27.304688 27.304688zm0 0" fill="#94c1ff" fill-rule="evenodd"/><path d="m365.0625 122.878906c-18.820312 0-34.136719-15.3125-34.136719-34.132812 0-18.820313 15.316407-34.132813 34.136719-34.132813 18.816406 0 34.132812 15.3125 34.132812 34.132813 0 18.820312-15.316406 34.132812-34.132812 34.132812zm0-54.613281c-11.292969 0-20.480469 9.1875-20.480469 20.480469 0 11.292968 9.1875 20.480468 20.480469 20.480468s20.476562-9.1875 20.476562-20.480468c0-11.292969-9.183593-20.480469-20.476562-20.480469zm0 0" fill="#0e65e5"/><path d="m160.261719 238.933594c0 15.082031-12.226563 27.304687-27.308594 27.304687-15.078125 0-27.304687-12.222656-27.304687-27.304687 0-15.082032 12.226562-27.308594 27.304687-27.308594 15.082031 0 27.308594 12.226562 27.308594 27.308594zm0 0" fill="#d7e9ff" fill-rule="evenodd"/><g fill="#0e65e5"><path d="m132.953125 273.066406c-18.816406 0-34.132813-15.3125-34.132813-34.132812 0-18.820313 15.316407-34.132813 34.132813-34.132813 18.820313 0 34.132813 15.3125 34.132813 34.132813 0 18.820312-15.3125 34.132812-34.132813 34.132812zm0-54.613281c-11.292969 0-20.480469 9.1875-20.480469 20.480469 0 11.292968 9.1875 20.480468 20.480469 20.480468s20.480469-9.1875 20.480469-20.480468c0-11.292969-9.1875-20.480469-20.480469-20.480469zm0 0"/><path d="m119.300781 40.960938c0 15.082031-12.226562 27.304687-27.304687 27.304687-15.082032 0-27.308594-12.222656-27.308594-27.304687 0-15.082032 12.226562-27.308594 27.308594-27.308594 15.078125 0 27.304687 12.226562 27.304687 27.308594zm0 0" fill-rule="evenodd"/><path d="m91.996094 75.09375c-18.820313 0-34.136719-15.3125-34.136719-34.132812 0-18.820313 15.316406-34.132813 34.136719-34.132813 18.816406 0 34.132812 15.3125 34.132812 34.132813 0 18.820312-15.316406 34.132812-34.132812 34.132812zm0-54.613281c-11.292969 0-20.480469 9.1875-20.480469 20.480469 0 11.292968 9.1875 20.480468 20.480469 20.480468 11.292968 0 20.476562-9.1875 20.476562-20.480468 0-11.292969-9.183594-20.480469-20.476562-20.480469zm0 0"/><path d="m324.101562 368.640625c0 15.082031-12.226562 27.304687-27.308593 27.304687-15.078125 0-27.304688-12.222656-27.304688-27.304687s12.226563-27.308594 27.304688-27.308594c15.082031 0 27.308593 12.226563 27.308593 27.308594zm0 0" fill-rule="evenodd"/><path d="m296.792969 402.773438c-18.816407 0-34.132813-15.3125-34.132813-34.132813s15.316406-34.132813 34.132813-34.132813c18.820312 0 34.132812 15.3125 34.132812 34.132813s-15.3125 34.132813-34.132812 34.132813zm0-54.613282c-11.292969 0-20.480469 9.1875-20.480469 20.480469s9.1875 20.480469 20.480469 20.480469 20.480469-9.1875 20.480469-20.480469-9.1875-20.480469-20.480469-20.480469zm0 0"/><path d="m228.527344 40.960938c-3.769532 0-6.828125-3.058594-6.828125-6.828126v-27.304687c0-3.773437 3.058593-6.828125 6.828125-6.828125 3.769531 0 6.828125 3.054688 6.828125 6.828125v27.304687c0 3.769532-3.058594 6.828126-6.828125 6.828126zm0 0"/><path d="m242.179688 27.308594h-27.304688c-3.769531 0-6.828125-3.058594-6.828125-6.828125s3.058594-6.828125 6.828125-6.828125h27.304688c3.769531 0 6.828124 3.058594 6.828124 6.828125s-3.058593 6.828125-6.828124 6.828125zm0 0"/><path d="m64.6875 361.8125c-3.769531 0-6.828125-3.054688-6.828125-6.824219v-27.308593c0-3.769532 3.058594-6.828126 6.828125-6.828126s6.828125 3.058594 6.828125 6.828126v27.308593c0 3.769531-3.058594 6.824219-6.828125 6.824219zm0 0"/><path d="m78.339844 348.160156h-27.304688c-3.769531 0-6.828125-3.058594-6.828125-6.828125s3.058594-6.824219 6.828125-6.824219h27.304688c3.769531 0 6.828125 3.054688 6.828125 6.824219s-3.058594 6.828125-6.828125 6.828125zm0 0"/></g></symbol><symbol id="ellipsis" viewBox="0 0 408 408">
<g>
	<g id="keyboard-control">
		<path d="M51,153c-28.05,0-51,22.95-51,51s22.95,51,51,51s51-22.95,51-51S79.05,153,51,153z M357,153c-28.05,0-51,22.95-51,51
			s22.95,51,51,51s51-22.95,51-51S385.05,153,357,153z M204,153c-28.05,0-51,22.95-51,51s22.95,51,51,51s51-22.95,51-51
			S232.05,153,204,153z"/>
	</g>
</g>
<g>
</g>
<g>
</g>
<g>
</g>
<g>
</g>
<g>
</g>
<g>
</g>
<g>
</g>
<g>
</g>
<g>
</g>
<g>
</g>
<g>
</g>
<g>
</g>
<g>
</g>
<g>
</g>
<g>
</g>
</symbol><symbol id="expand" viewBox="0 0 490.667 490.667">
<g>
	<g>
		<path d="M423.531,67.136c-4.16-4.16-10.923-4.16-15.083,0L259.115,216.469c-4.16,4.16-4.16,10.923,0,15.083
			c2.091,2.069,4.821,3.115,7.552,3.115c2.731,0,5.461-1.045,7.531-3.115L423.531,82.219
			C427.691,78.059,427.691,71.296,423.531,67.136z"/>
	</g>
</g>
<g>
	<g>
		<path d="M416,64c-5.888,0-10.667,4.779-10.667,10.667v128c0,5.888,4.779,10.667,10.667,10.667c5.888,0,10.667-4.779,10.667-10.667
			v-128C426.667,68.779,421.888,64,416,64z"/>
	</g>
</g>
<g>
	<g>
		<path d="M416,64H288c-5.888,0-10.667,4.779-10.667,10.667S282.112,85.333,288,85.333h128c5.888,0,10.667-4.779,10.667-10.667
			S421.888,64,416,64z"/>
	</g>
</g>
<g>
	<g>
		<path d="M231.531,259.136c-4.16-4.16-10.923-4.16-15.083,0L67.115,408.469c-4.16,4.16-4.16,10.923,0,15.083
			c2.091,2.069,4.821,3.115,7.552,3.115c2.731,0,5.461-1.045,7.531-3.115l149.333-149.333
			C235.691,270.059,235.691,263.296,231.531,259.136z"/>
	</g>
</g>
<g>
	<g>
		<path d="M74.667,277.333C68.779,277.333,64,282.112,64,288v128c0,5.888,4.779,10.667,10.667,10.667S85.333,421.888,85.333,416V288
			C85.333,282.112,80.555,277.333,74.667,277.333z"/>
	</g>
</g>
<g>
	<g>
		<path d="M202.667,405.333h-128C68.779,405.333,64,410.112,64,416c0,5.888,4.779,10.667,10.667,10.667h128
			c5.888,0,10.667-4.779,10.667-10.667C213.333,410.112,208.555,405.333,202.667,405.333z"/>
	</g>
</g>
<g>
	<g>
		<path d="M458.667,0H32C14.357,0,0,14.357,0,32v426.667c0,17.643,14.357,32,32,32h426.667c17.643,0,32-14.357,32-32V32
			C490.667,14.357,476.309,0,458.667,0z M469.333,458.667c0,5.867-4.8,10.667-10.667,10.667H32c-5.867,0-10.667-4.8-10.667-10.667
			V32c0-5.867,4.8-10.667,10.667-10.667h426.667c5.867,0,10.667,4.8,10.667,10.667V458.667z"/>
	</g>
</g>
<g>
</g>
<g>
</g>
<g>
</g>
<g>
</g>
<g>
</g>
<g>
</g>
<g>
</g>
<g>
</g>
<g>
</g>
<g>
</g>
<g>
</g>
<g>
</g>
<g>
</g>
<g>
</g>
<g>
</g>
</symbol><symbol id="folder" viewBox="0 0 468.293 468.293">
<path style="fill:#3A3931;" d="M443.317,413.9H24.976C11.182,413.9,0,402.718,0,388.924V79.368
	c0-13.794,11.182-24.976,24.976-24.976h118.096c9.023,0,17.345,4.867,21.769,12.732l13.773,24.487
	c4.423,7.865,12.745,12.732,21.769,12.732h242.936c13.794,0,24.976,11.182,24.976,24.976v259.605
	C468.293,402.718,457.111,413.9,443.317,413.9z"/>
<path style="fill:#888888;" d="M24.976,413.9h418.341c13.794,0,24.976-11.182,24.976-24.976V129.32
	c0-13.794-11.182-24.976-24.976-24.976H262.782c-9.023,0-17.345,4.867-21.769,12.732l-13.773,24.487
	c-4.423,7.865-12.745,12.732-21.769,12.732H24.976C11.182,154.295,0,165.477,0,179.271v209.653C0,402.718,11.182,413.9,24.976,413.9
	z"/>
<path style="fill:#3A3931;" d="M453.559,106.59c1.414,3.132,2.245,6.582,2.245,10.242v259.604c0,13.793-11.182,24.976-24.976,24.976
	H12.488c-3.66,0-7.11-0.831-10.242-2.245c3.916,8.671,12.597,14.733,22.73,14.733h418.341c13.794,0,24.976-11.182,24.976-24.976
	V129.32C468.293,119.186,462.232,110.506,453.559,106.59z"/>
<g>
</g>
<g>
</g>
<g>
</g>
<g>
</g>
<g>
</g>
<g>
</g>
<g>
</g>
<g>
</g>
<g>
</g>
<g>
</g>
<g>
</g>
<g>
</g>
<g>
</g>
<g>
</g>
<g>
</g>
</symbol><symbol id="home" viewBox="0 0 512.001 512.001">
<g>
	<g>
		<path d="M503.402,228.885L273.684,19.567c-10.083-9.189-25.288-9.188-35.367-0.001L8.598,228.886
			c-8.077,7.36-10.745,18.7-6.799,28.889c3.947,10.189,13.557,16.772,24.484,16.772h36.69v209.721
			c0,8.315,6.742,15.057,15.057,15.057h125.914c8.315,0,15.057-6.741,15.057-15.057V356.932h74.002v127.337
			c0,8.315,6.742,15.057,15.057,15.057h125.908c8.315,0,15.057-6.741,15.057-15.057V274.547h36.697
			c10.926,0,20.537-6.584,24.484-16.772C514.147,247.585,511.479,236.246,503.402,228.885z"/>
	</g>
</g>
<g>
	<g>
		<path d="M445.092,42.73H343.973l116.176,105.636v-90.58C460.149,49.471,453.408,42.73,445.092,42.73z"/>
	</g>
</g>
<g>
</g>
<g>
</g>
<g>
</g>
<g>
</g>
<g>
</g>
<g>
</g>
<g>
</g>
<g>
</g>
<g>
</g>
<g>
</g>
<g>
</g>
<g>
</g>
<g>
</g>
<g>
</g>
<g>
</g>
</symbol><symbol id="kmz" viewBox="0 0 550.801 550.801">
<g>
	<g>
		<path d="M475.095,132c-0.031-2.529-0.828-5.023-2.562-6.995L366.325,3.694c-0.021-0.031-0.053-0.042-0.085-0.074
			c-0.633-0.709-1.36-1.292-2.141-1.803c-0.232-0.153-0.464-0.288-0.707-0.422c-0.686-0.369-1.392-0.67-2.13-0.892
			c-0.2-0.061-0.38-0.14-0.58-0.195C359.87,0.119,359.048,0,358.204,0H97.2c-11.907,0-21.6,9.695-21.6,21.601v507.6
			c0,11.913,9.692,21.601,21.6,21.601h356.4c11.918,0,21.6-9.688,21.6-21.601V133.21C475.2,132.804,475.137,132.398,475.095,132z
			 M169.494,512.947l-27.383-48.283l-9.621,11.781v36.508h-25.057v-111.85h25.057v49.449h0.501
			c2.489-4.314,5.142-8.301,7.636-12.277l25.387-37.172h31.031l-37.006,47.624l38.995,64.22H169.494z M305.554,512.947l-1.655-42.82
			c-0.496-13.431-1.002-29.699-1.002-45.952H302.4c-3.491,14.265-8.126,30.185-12.445,43.306l-13.605,43.643h-19.746l-11.944-43.316
			c-3.652-13.109-7.465-29.035-10.125-43.632h-0.335c-0.665,15.093-1.163,32.342-1.988,46.285l-1.993,42.482h-23.398l7.14-111.845
			h33.684l10.95,37.336c3.483,12.941,6.966,26.885,9.458,39.983h0.496c3.153-12.936,6.971-27.706,10.62-40.151l11.947-37.173h33.022
			l6.138,111.845h-24.722V512.947z M429.49,512.947h-86.948v-13.615l53.262-76.655v-0.664H347.52v-20.909h81.143v14.602
			l-52.106,75.669v0.664h52.935V512.947z M97.2,366.758V21.605h250.204v110.519c0,5.961,4.83,10.8,10.8,10.8h95.396l0.011,223.834
			H97.2z"/>
		<g>
			<path d="M275.292,64.505c72.449-0.276,132.889,59.034,132.746,132.92c-0.138,72.101-59.537,133.046-133.854,132.492
				C201.346,329.353,142.523,268.3,142.76,196.6C143.003,124.137,202.743,64.299,275.292,64.505z M157.724,161.196
				c0.433,0.309,0.865,0.606,1.295,0.912c1.312-0.794,2.734-1.463,3.91-2.418c2.618-2.138,5.07-4.498,7.673-6.657
				c15.617-12.968,32.616-16.757,51.371-7.317c6.344,3.19,12.696,6.516,18.602,10.437c26.109,17.328,51.674,35.521,78.205,52.165
				c20.999,13.181,43.875,22.61,68.46,27.382c3.797,0.741,5.506-0.253,6.223-3.644c0.991-4.617,1.571-9.337,2.821-13.877
				c0.828-2.987-0.274-4.095-2.811-4.688c-13.078-3.082-25.07-8.878-35.495-17.01c-19.074-14.881-37.605-30.478-56.083-46.105
				c-12.794-10.826-24.943-22.409-37.689-33.302c-17.305-14.769-37.589-17.497-59.173-13.176
				c-5.329,1.062-11.588,2.252-15.325,5.664c-12.852,11.752-23.042,25.716-29.133,42.282
				C159.456,154.895,158.662,158.08,157.724,161.196z M376.777,266.599c-0.496-0.529-0.981-1.046-1.477-1.576
				c-1.566,0.396-3.144,0.757-4.699,1.184c-16.675,4.567-33.597,8.564-50.904,7.699c-14.935-0.751-29.916-2.787-44.621-5.579
				c-25.423-4.831-48.977-15.414-72.792-25.196c-7.538-3.093-15.704-5.762-23.738-6.308c-10.747-0.732-16.648,10.136-11.541,19.42
				c12.01,21.821,29.049,38.586,51.073,50.229c1.767,0.928,3.786,1.371,6.692,2.399c-0.583-2.896-0.838-4.52-1.237-6.097
				c-2.916-11.585,1.814-16.437,13.688-13.99c1.653,0.343,3.312,0.675,4.954,1.107c28.569,7.372,57.431,10.821,86.867,6.381
				c15.567-2.352,30.786-5.374,40.531-19.723C371.873,273.154,374.372,269.903,376.777,266.599z M240.197,79.748
				c0.087,0.707,0.172,1.405,0.259,2.112c1.236,0.206,2.463,0.546,3.699,0.604c6.415,0.358,12.83,0.585,19.24,0.973
				c23.453,1.421,44.146,9.851,60.057,27.108c12.351,13.387,22.739,28.582,34.383,42.654c5.136,6.225,10.811,12.139,16.948,17.378
				c4.62,3.937,10.173,3.375,14.075,0.192c4.267-3.478,4.952-6.787,2.769-13.239c-7.688-22.805-21.146-41.7-40.136-56.252
				c-27.527-21.12-58.726-30.048-93.377-25.444C252.084,76.631,246.165,78.419,240.197,79.748z"/>
		</g>
	</g>
</g>
<g>
</g>
<g>
</g>
<g>
</g>
<g>
</g>
<g>
</g>
<g>
</g>
<g>
</g>
<g>
</g>
<g>
</g>
<g>
</g>
<g>
</g>
<g>
</g>
<g>
</g>
<g>
</g>
<g>
</g>
</symbol><symbol id="layers" viewBox="0 0 510.818 510.818"><g><path d="m475.412 277.586c4.441-1.966 7.311-6.374 7.311-11.23s-2.87-9.265-7.311-11.23l-69.766-30.879v-32.771l69.766-30.879c4.441-1.966 7.311-6.374 7.311-11.23s-2.87-9.265-7.311-11.23l-69.766-30.879v-99.758c0-4.142-3.358-7.5-7.5-7.5s-7.5 3.358-7.5 7.5v93.117l-130.267-57.657c-3.158-1.397-6.781-1.397-9.941 0l-54.536 24.138c-3.788 1.677-5.499 6.106-3.823 9.894s6.107 5.499 9.894 3.823l53.436-23.651 135.237 59.857v19.837c0 4.142 3.358 7.5 7.5 7.5s7.5-3.358 7.5-7.5v-13.198l58.078 25.706-113.629 50.293-34.026-15.06c-3.788-1.676-8.217.036-9.894 3.823-1.676 3.788.035 8.217 3.823 9.894l21.566 9.545-76.155 33.707-76.155-33.707 21.566-9.545c3.788-1.677 5.499-6.106 3.823-9.894-1.677-3.788-6.105-5.499-9.894-3.823l-34.026 15.06-113.629-50.293 59.078-26.148v13.64c0 4.142 3.358 7.5 7.5 7.5s7.5-3.358 7.5-7.5v-20.279l50.946-22.549c3.788-1.677 5.499-6.106 3.823-9.894-1.677-3.788-6.108-5.5-9.894-3.823l-44.875 19.862v-92.675c0-4.142-3.358-7.5-7.5-7.5s-7.5 3.358-7.5 7.5v99.314l-70.766 31.322c-4.441 1.966-7.311 6.374-7.311 11.23s2.87 9.265 7.311 11.23l70.766 31.322v31.886l-70.766 31.322c-4.441 1.966-7.311 6.374-7.311 11.23s2.87 9.265 7.311 11.23l70.766 31.322v37.198l-70.766 31.322c-4.441 1.966-7.311 6.374-7.311 11.23s2.87 9.265 7.311 11.23l70.766 31.322v57.28l-14.841-10.918c-3.337-2.454-8.032-1.74-10.486 1.597-2.455 3.337-1.739 8.031 1.597 10.486l26.786 19.704c1.322.972 2.883 1.458 4.444 1.458s3.123-.486 4.444-1.458l26.786-19.704c3.336-2.455 4.052-7.149 1.597-10.486-2.455-3.336-7.149-4.051-10.486-1.597l-14.841 10.918v-50.641l129.267 57.214c1.579.699 3.275 1.048 4.97 1.048s3.391-.35 4.971-1.048l48.706-21.557c3.788-1.677 5.499-6.106 3.823-9.894-1.677-3.788-6.106-5.498-9.894-3.823l-47.605 21.07-208.316-92.201 59.078-26.148v21.466c0 4.142 3.358 7.5 7.5 7.5s7.5-3.358 7.5-7.5v-28.106l45.553-20.162 83.714 37.052c1.579.699 3.274 1.048 4.97 1.048 1.695 0 3.391-.35 4.971-1.048l83.714-37.052 46.553 20.604v27.662c0 4.142 3.358 7.5 7.5 7.5s7.5-3.358 7.5-7.5v-21.023l58.078 25.706-130.854 57.917c-3.788 1.677-5.499 6.106-3.823 9.894 1.24 2.801 3.985 4.466 6.862 4.466 1.014 0 2.045-.207 3.032-.644l51.706-22.885v51.084l-14.841-10.918c-3.337-2.454-8.031-1.74-10.486 1.597s-1.739 8.031 1.597 10.486l26.786 19.704c1.322.972 2.883 1.458 4.444 1.458s3.123-.486 4.444-1.458l26.786-19.704c3.336-2.455 4.052-7.149 1.597-10.486-2.455-3.336-7.149-4.051-10.486-1.597l-14.841 10.918v-57.723l69.766-30.879c4.441-1.966 7.311-6.374 7.311-11.23s-2.87-9.265-7.311-11.23l-69.766-30.879v-38.083zm-84.766-79.472v19.493l-22.02-9.746zm-269.474.443 21.02 9.304-21.02 9.304zm0 140.909v-23.92l27.022 11.96zm134.237 19.091-70.153-31.05 15.565-6.889c3.788-1.677 5.499-6.106 3.823-9.894-1.677-3.788-6.107-5.498-9.894-3.823l-28.024 12.404-50.106-22.177c-.014-.006-.027-.012-.041-.018l-69.483-30.754 59.078-26.148v25.658c0 4.142 3.358 7.5 7.5 7.5s7.5-3.358 7.5-7.5v-32.297l39.551-17.506 89.715 39.708c1.579.699 3.274 1.048 4.97 1.048 1.695 0 3.391-.35 4.971-1.048l89.715-39.708 40.551 17.948v31.854c0 4.142 3.358 7.5 7.5 7.5s7.5-3.358 7.5-7.5v-25.215l58.078 25.706-119.63 52.949-28.024-12.404c-3.788-1.677-8.217.036-9.894 3.823-1.676 3.788.035 8.217 3.823 9.894l15.565 6.889zm135.237-18.648-28.022-12.403 28.022-12.403z"/><path d="m237.881 181.912 17.528-7.758 17.528 7.758c.987.437 2.017.644 3.032.644 2.877 0 5.623-1.666 6.862-4.466 1.676-3.788-.035-8.217-3.823-9.894l-18.629-8.245c-3.158-1.397-6.781-1.398-9.941 0l-18.628 8.245c-3.788 1.677-5.499 6.106-3.823 9.894 1.676 3.787 6.107 5.495 9.894 3.822z"/><path d="m279.008 290.497-18.626-8.244c-3.16-1.4-6.785-1.399-9.943-.001l-18.628 8.245c-3.788 1.676-5.5 6.106-3.823 9.894 1.677 3.789 6.107 5.5 9.894 3.823l17.528-7.758 17.528 7.758c.987.437 2.017.644 3.031.644 2.877 0 5.623-1.666 6.862-4.467 1.676-3.788-.035-8.218-3.823-9.894z"/></g></symbol><symbol id="location" viewBox="-119 -21 682 682.66669"><path d="m216.210938 0c-122.664063 0-222.460938 99.796875-222.460938 222.460938 0 154.175781 222.679688 417.539062 222.679688 417.539062s222.242187-270.945312 222.242187-417.539062c0-122.664063-99.792969-222.460938-222.460937-222.460938zm67.121093 287.597656c-18.507812 18.503906-42.8125 27.757813-67.121093 27.757813-24.304688 0-48.617188-9.253907-67.117188-27.757813-37.011719-37.007812-37.011719-97.226562 0-134.238281 17.921875-17.929687 41.761719-27.804687 67.117188-27.804687 25.355468 0 49.191406 9.878906 67.121093 27.804687 37.011719 37.011719 37.011719 97.230469 0 134.238281zm0 0"/></symbol><symbol id="navigation" viewBox="0 0 51.636 51.636">
<path d="M51.353,0.914c-0.295-0.305-0.75-0.39-1.135-0.213L0.583,23.481c-0.399,0.184-0.632,0.605-0.574,1.041
	s0.393,0.782,0.826,0.854l22.263,3.731l2.545,21.038c0.054,0.438,0.389,0.791,0.824,0.865c0.057,0.01,0.113,0.015,0.169,0.015
	c0.375,0,0.726-0.211,0.896-0.556l24-48.415C51.72,1.675,51.648,1.218,51.353,0.914z M27.226,46.582l-2.232-18.457
	c-0.054-0.44-0.391-0.793-0.828-0.866L4.374,23.941L48.485,3.697L27.226,46.582z"/>
<g>
</g>
<g>
</g>
<g>
</g>
<g>
</g>
<g>
</g>
<g>
</g>
<g>
</g>
<g>
</g>
<g>
</g>
<g>
</g>
<g>
</g>
<g>
</g>
<g>
</g>
<g>
</g>
<g>
</g>
</symbol><symbol id="pencil" viewBox="0 0 128 128"><path d="m122.922 23.474-18.4-18.4a1.75 1.75 0 0 0 -2.474 0l-85 85a1.649 1.649 0 0 0 -.119.146c-.026.032-.054.061-.078.095a1.746 1.746 0 0 0 -.191.349l-6.919 17.563v.006l-5.054 12.809a1.751 1.751 0 0 0 2.271 2.271l12.809-5.052 17.559-6.925a1.773 1.773 0 0 0 .349-.191c.034-.024.063-.052.1-.078a1.794 1.794 0 0 0 .145-.119l61.73-61.728 23.267-23.268a1.75 1.75 0 0 0 .005-2.478zm-24.507 22.032-15.921-15.921 4.982-4.985 15.92 15.92zm-61.726 61.726-3.5-3.5 59.248-59.254 3.5 3.5zm-9.944-9.944 59.255-59.251 3.963 3.963-59.251 59.255zm-5.977-5.977 59.251-59.251 3.5 3.5-59.248 59.254zm-8.757 20.7 3.977 3.977-6.567 2.59zm7.526 2.577-6.126-6.126 5.532-14.028 4.088 4.088 6.436 6.436 4.088 4.088zm86.334-76.538-15.921-15.921 13.339-13.338 15.921 15.92z"/></symbol><symbol id="plus" viewBox="0 0 448 448"><path d="m408 184h-136c-4.417969 0-8-3.582031-8-8v-136c0-22.089844-17.910156-40-40-40s-40 17.910156-40 40v136c0 4.417969-3.582031 8-8 8h-136c-22.089844 0-40 17.910156-40 40s17.910156 40 40 40h136c4.417969 0 8 3.582031 8 8v136c0 22.089844 17.910156 40 40 40s40-17.910156 40-40v-136c0-4.417969 3.582031-8 8-8h136c22.089844 0 40-17.910156 40-40s-17.910156-40-40-40zm0 0"/></symbol><symbol id="trash" viewBox="-47 0 512 512"><path d="m416.875 114.441406-11.304688-33.886718c-4.304687-12.90625-16.339843-21.578126-29.941406-21.578126h-95.011718v-30.933593c0-15.460938-12.570313-28.042969-28.027344-28.042969h-87.007813c-15.453125 0-28.027343 12.582031-28.027343 28.042969v30.933593h-95.007813c-13.605469 0-25.640625 8.671876-29.945313 21.578126l-11.304687 33.886718c-2.574219 7.714844-1.2695312 16.257813 3.484375 22.855469 4.753906 6.597656 12.445312 10.539063 20.578125 10.539063h11.816406l26.007813 321.605468c1.933594 23.863282 22.183594 42.558594 46.109375 42.558594h204.863281c23.921875 0 44.175781-18.695312 46.105469-42.5625l26.007812-321.601562h6.542969c8.132812 0 15.824219-3.941407 20.578125-10.535157 4.753906-6.597656 6.058594-15.144531 3.484375-22.859375zm-249.320312-84.441406h83.0625v28.976562h-83.0625zm162.804687 437.019531c-.679687 8.402344-7.796875 14.980469-16.203125 14.980469h-204.863281c-8.40625 0-15.523438-6.578125-16.203125-14.980469l-25.816406-319.183593h288.898437zm-298.566406-349.183593 9.269531-27.789063c.210938-.640625.808594-1.070313 1.484375-1.070313h333.082031c.675782 0 1.269532.429688 1.484375 1.070313l9.269531 27.789063zm0 0"/><path d="m282.515625 465.957031c.265625.015625.527344.019531.792969.019531 7.925781 0 14.550781-6.210937 14.964844-14.21875l14.085937-270.398437c.429687-8.273437-5.929687-15.332031-14.199219-15.761719-8.292968-.441406-15.328125 5.925782-15.761718 14.199219l-14.082032 270.398437c-.429687 8.273438 5.925782 15.332032 14.199219 15.761719zm0 0"/><path d="m120.566406 451.792969c.4375 7.996093 7.054688 14.183593 14.964844 14.183593.273438 0 .554688-.007812.832031-.023437 8.269531-.449219 14.609375-7.519531 14.160157-15.792969l-14.753907-270.398437c-.449219-8.273438-7.519531-14.613281-15.792969-14.160157-8.269531.449219-14.609374 7.519532-14.160156 15.792969zm0 0"/><path d="m209.253906 465.976562c8.285156 0 15-6.714843 15-15v-270.398437c0-8.285156-6.714844-15-15-15s-15 6.714844-15 15v270.398437c0 8.285157 6.714844 15 15 15zm0 0"/></symbol><symbol id="animals" viewBox="0 -32 512.00011 512"><path d="m342.382812 239.351562c-23.039062-35.941406-62.277343-57.402343-104.964843-57.402343s-81.925781 21.460937-104.960938 57.402343l-55.515625 86.605469c-9.210937 14.367188-13.460937 30.96875-12.292968 47.996094 1.167968 17.03125 7.648437 32.890625 18.738281 45.875 11.097656 12.972656 25.761719 21.839844 42.40625 25.644531 16.644531 3.804688 33.707031 2.179688 49.339843-4.691406l1.046876-.464844c39.335937-16.945312 84.285156-16.789062 123.519531.464844 10.121093 4.449219 20.84375 6.699219 31.664062 6.699219 5.882813 0 11.800781-.667969 17.664063-2.003907 16.644531-3.800781 31.308594-12.667968 42.410156-25.644531 11.09375-12.972656 17.578125-28.835937 18.75-45.871093 1.171875-17.035157-3.078125-33.632813-12.289062-48.007813zm0 0"/><path d="m91.894531 239.238281c16.515625-6.34375 29.0625-19.652343 35.328125-37.476562 5.964844-16.960938 5.476563-36.109375-1.378906-53.921875-6.859375-17.800782-19.335938-32.332032-35.132812-40.921875-16.59375-9.019531-34.824219-10.488281-51.3125-4.132813-33.171876 12.753906-48.394532 53.746094-33.929688 91.398438 11.554688 29.96875 38.503906 48.886718 65.75 48.886718 6.957031 0 13.933594-1.234374 20.675781-3.832031zm0 0"/><path d="m199.613281 171.386719c41.46875 0 75.207031-38.4375 75.207031-85.683594 0-47.257813-33.738281-85.703125-75.207031-85.703125-41.464843 0-75.199219 38.445312-75.199219 85.703125 0 47.246094 33.734376 85.683594 75.199219 85.683594zm0 0"/><path d="m329.496094 192.4375h.003906c6.378906 2.117188 12.886719 3.128906 19.367188 3.128906 30.242187 0 59.714843-22.011718 70.960937-55.839844 6.476563-19.472656 6.050781-40.0625-1.199219-57.972656-7.585937-18.75-21.644531-32.359375-39.589844-38.324218-17.949218-5.964844-37.359374-3.476563-54.660156 7-16.527344 10.007812-29.191406 26.246093-35.660156 45.71875-13.652344 41.078124 4.640625 84.273437 40.777344 96.289062zm0 0"/><path d="m487.875 182.4375-.011719-.011719c-28.597656-21.125-71.367187-11.96875-95.347656 20.421875-23.957031 32.40625-20.210937 75.972656 8.34375 97.113282 10.414063 7.714843 22.71875 11.402343 35.3125 11.402343 21.949219 0 44.785156-11.203125 60.050781-31.804687 23.953125-32.40625 20.210938-75.972656-8.347656-97.121094zm0 0"/></symbol><symbol id="bar" viewBox="0 0 512 512">
<g>
	<g>
		<path d="M416,106.667h-34.133c0-6.4,2.133-14.933,2.133-21.333C384,38.4,345.6,0,298.667,0c-19.2,0-38.4,6.4-53.333,19.2
			c-32-23.467-74.667-23.467-106.667,0C102.4-10.667,49.067-4.267,19.2,32C6.4,46.933,0,66.133,0,85.333V192
			c0,17.067,8.533,36.267,21.333,46.933V448c0,36.267,27.733,64,64,64h213.333c36.267,0,64-27.733,64-64v-21.333H416
			c53.333,0,96-42.667,96-96v-128C512,149.333,469.333,106.667,416,106.667z M42.667,192V85.333c0-23.467,19.2-42.667,42.667-42.667
			c14.933,0,27.733,6.4,36.267,19.2c8.533,10.667,27.733,10.667,36.267,0c10.667-19.2,38.4-25.6,57.6-12.8
			c4.267,2.133,8.533,6.4,12.8,12.8c8.533,10.667,27.733,10.667,36.267,0c12.8-19.2,38.4-25.6,59.733-12.8
			c21.333,12.8,25.6,38.4,12.8,59.733c-12.8,21.333-38.4,25.6-59.733,12.8c-4.267-2.133-8.533-6.4-12.8-12.8
			c-8.533-10.667-27.733-10.667-36.267,0c-12.8,19.2-40.533,25.6-59.733,12.8c-4.267-4.267-8.533-8.533-12.8-12.8
			C147.2,96,128,96,119.467,108.8c-4.267,8.533-12.8,12.8-21.333,17.067c-6.4,2.133-12.8,10.667-12.8,19.2V192
			c0,12.8-8.533,21.333-21.333,21.333S42.667,204.8,42.667,192z M469.333,330.667C469.333,360.533,445.867,384,416,384h-74.667
			c-12.8,0-21.333,8.533-21.333,21.333V448c0,12.8-8.533,21.333-21.333,21.333H85.333C72.533,469.333,64,460.8,64,448V256
			c36.267,0,64-27.733,64-64v-34.133c4.267-2.133,6.4-4.267,10.667-6.4c32,23.467,74.667,23.467,106.667,0
			c32,25.6,78.933,25.6,108.8-2.133H416c29.867,0,53.333,23.467,53.333,53.333V330.667z"/>
	</g>
</g>
<g>
	<g>
		<path d="M416,170.667h-74.667C328.533,170.667,320,179.2,320,192v149.333c0,12.8,8.533,21.333,21.333,21.333H416
			c17.067,0,32-14.933,32-32v-128C448,185.6,433.067,170.667,416,170.667z M405.333,320h-42.667V213.333h42.667V320z"/>
	</g>
</g>
<g>
	<g>
		<rect x="170.667" y="213.333" width="42.667" height="213.333"/>
	</g>
</g>
<g>
	<g>
		<rect x="234.667" y="213.333" width="42.667" height="213.333"/>
	</g>
</g>
<g>
	<g>
		<rect x="106.667" y="256" width="42.667" height="170.667"/>
	</g>
</g>
<g>
</g>
<g>
</g>
<g>
</g>
<g>
</g>
<g>
</g>
<g>
</g>
<g>
</g>
<g>
</g>
<g>
</g>
<g>
</g>
<g>
</g>
<g>
</g>
<g>
</g>
<g>
</g>
<g>
</g>
</symbol><symbol id="buddhism" viewBox="0 0 512 512">
<g>
	<g>
		<path d="M437.02,74.98C388.667,26.629,324.38,0,256,0S123.333,26.629,74.98,74.98C26.629,123.332,0,187.62,0,256
			s26.629,132.668,74.98,181.02C123.333,485.371,187.62,512,256,512s132.667-26.629,181.02-74.98
			C485.371,388.668,512,324.38,512,256S485.371,123.332,437.02,74.98z M481.504,241.217l-169.545-0.163l146.865-84.667
			C471.59,182.275,479.539,210.942,481.504,241.217z M443.804,130.417l-146.828,84.647l84.788-146.749
			C406.256,84.781,427.361,105.909,443.804,130.417z M271,30.51c30.271,1.994,58.93,9.971,84.807,22.762L271,200.054V30.51z
			 M241,30.51v169.112L156.97,52.886C182.643,40.318,211.032,32.484,241,30.51z M130.962,67.838l84.22,147.068L68.675,129.693
			C85.209,105.25,106.403,84.211,130.962,67.838z M53.563,155.609l146.535,85.23l-169.547-0.49
			C32.631,210.09,40.694,181.454,53.563,155.609z M30.468,270.349l169.544,0.49l-147.03,84.385
			C40.267,329.315,32.376,300.632,30.468,270.349z M67.957,381.22l146.987-84.361l-85.071,146.587
			C105.415,426.935,84.354,405.762,67.957,381.22z M240.566,481.462c-30.263-2.051-58.907-10.085-84.762-22.928l85.088-146.617
			L240.566,481.462z M229.98,256c0-14.348,11.673-26.02,26.02-26.02c14.348,0,26.021,11.672,26.021,26.02
			c0,14.348-11.673,26.021-26.021,26.021C241.652,282.021,229.98,270.348,229.98,256z M270.565,481.518l0.327-169.545
			l84.526,146.948C329.519,471.662,300.845,479.582,270.565,481.518z M381.4,443.924l-84.504-146.909l146.669,84.93
			C427.077,406.421,405.926,427.504,381.4,443.924z M458.631,356.002l-146.7-84.948l169.545,0.163
			C479.454,301.484,471.448,330.135,458.631,356.002z"/>
	</g>
</g>
<g>
</g>
<g>
</g>
<g>
</g>
<g>
</g>
<g>
</g>
<g>
</g>
<g>
</g>
<g>
</g>
<g>
</g>
<g>
</g>
<g>
</g>
<g>
</g>
<g>
</g>
<g>
</g>
<g>
</g>
</symbol><symbol id="building" viewBox="0 0 512 512"><g id="XMLID_2340_"><g id="XMLID_630_"><g id="XMLID_631_"><path id="XMLID_806_" d="m502 444h-20v-388c0-5.523-4.478-10-10-10h-73.667v-36c0-5.523-4.478-10-10-10h-264.666c-5.522 0-10 4.477-10 10v36h-73.667c-5.522 0-10 4.477-10 10v388h-20c-5.523 0-10 4.477-10 10v48c0 5.523 4.477 10 10 10h201.004c5.522 0 10-4.477 10-10s-4.478-10-10-10h-191.004v-28h472v28h-191.002c-5.522 0-10 4.477-10 10s4.478 10 10 10h201.002c5.522 0 10-4.477 10-10v-48c0-5.523-4.478-10-10-10zm-368.333-424h244.666v26h-244.666zm112.333 424h-52v-60c0-30.782 22.553-56.385 52-61.182zm20 0v-121.182c29.447 4.797 52 30.4 52 61.182v60zm72 0v-60c0-45.215-36.785-82-82-82s-82 36.785-82 82v60h-124v-378h412v378z"/><path id="XMLID_825_" d="m136 110h-48c-5.522 0-10 4.477-10 10v48c0 5.523 4.478 10 10 10h48c5.523 0 10-4.477 10-10v-48c0-5.523-4.477-10-10-10zm-10 48h-28v-28h28z"/><path id="XMLID_828_" d="m232 110h-48c-5.523 0-10 4.477-10 10v48c0 5.523 4.477 10 10 10h48c5.523 0 10-4.477 10-10v-48c0-5.523-4.477-10-10-10zm-10 48h-28v-28h28z"/><path id="XMLID_831_" d="m328 110h-48c-5.522 0-10 4.477-10 10v48c0 5.523 4.478 10 10 10h48c5.522 0 10-4.477 10-10v-48c0-5.523-4.478-10-10-10zm-10 48h-28v-28h28z"/><path id="XMLID_834_" d="m424 110h-48c-5.522 0-10 4.477-10 10v48c0 5.523 4.478 10 10 10h48c5.522 0 10-4.477 10-10v-48c0-5.523-4.478-10-10-10zm-10 48h-28v-28h28z"/><path id="XMLID_1471_" d="m136 206h-48c-5.522 0-10 4.477-10 10v48c0 5.523 4.478 10 10 10h48c5.523 0 10-4.477 10-10v-48c0-5.523-4.477-10-10-10zm-10 48h-28v-28h28z"/><path id="XMLID_1482_" d="m232 206h-48c-5.523 0-10 4.477-10 10v48c0 5.523 4.477 10 10 10h48c5.523 0 10-4.477 10-10v-48c0-5.523-4.477-10-10-10zm-10 48h-28v-28h28z"/><path id="XMLID_1487_" d="m328 206h-48c-5.522 0-10 4.477-10 10v48c0 5.523 4.478 10 10 10h48c5.522 0 10-4.477 10-10v-48c0-5.523-4.478-10-10-10zm-10 48h-28v-28h28z"/><path id="XMLID_1490_" d="m424 206h-48c-5.522 0-10 4.477-10 10v48c0 5.523 4.478 10 10 10h48c5.522 0 10-4.477 10-10v-48c0-5.523-4.478-10-10-10zm-10 48h-28v-28h28z"/><path id="XMLID_632_" d="m136 302h-48c-5.522 0-10 4.477-10 10v48c0 5.523 4.478 10 10 10h48c5.523 0 10-4.477 10-10v-48c0-5.523-4.477-10-10-10zm-10 48h-28v-28h28z"/><path id="XMLID_1513_" d="m424 302h-48c-5.522 0-10 4.477-10 10v48c0 5.523 4.478 10 10 10h48c5.522 0 10-4.477 10-10v-48c0-5.523-4.478-10-10-10zm-10 48h-28v-28h28z"/><path id="XMLID_1522_" d="m256 492c-2.63 0-5.21 1.07-7.07 2.93s-2.93 4.44-2.93 7.07 1.069 5.21 2.93 7.07c1.86 1.86 4.44 2.93 7.07 2.93s5.21-1.07 7.069-2.93c1.86-1.86 2.931-4.44 2.931-7.07s-1.07-5.21-2.931-7.07c-1.859-1.86-4.439-2.93-7.069-2.93z"/></g></g></g></symbol><symbol id="christianity" viewBox="0 0 511.094 511.094"><g><path d="m285.334 511.094h-59.574c-8.284 0-15-6.716-15-15v-294.26h-111.26c-8.284 0-15-6.716-15-15v-59.574c0-8.284 6.716-15 15-15h111.26v-97.26c0-8.284 6.716-15 15-15h59.574c8.284 0 15 6.716 15 15v97.26h111.26c8.284 0 15 6.716 15 15v59.574c0 8.284-6.716 15-15 15h-111.26v294.26c0 8.284-6.716 15-15 15zm-44.574-30h29.574v-294.26c0-8.284 6.716-15 15-15h111.26v-29.574h-111.26c-8.284 0-15-6.716-15-15v-97.26h-29.574v97.26c0 8.284-6.716 15-15 15h-111.26v29.574h111.26c8.284 0 15 6.716 15 15z"/></g></symbol><symbol id="entertainment" viewBox="0 0 64 64"><g id="Layer_18" data-name="Layer 18"><path d="m62 21h-51v-1.07l51.17-8.83a1 1 0 0 0 .83-1.16l-1.42-8.11a1 1 0 0 0 -1.16-.83l-58.59 10.12a1.08 1.08 0 0 0 -.65.41 1.05 1.05 0 0 0 -.17.75l.2 1.13a1 1 0 0 0 -.21.59v48a1 1 0 0 0 1 1h60a1 1 0 0 0 1-1v-40a1 1 0 0 0 -1-1zm-59-6h6v10h-6zm1.59 12-1.59 1.59v-1.59zm-1.59 8h58v2h-58zm0-2v-2h58v2zm42.41-4 6-6h7.18l-6 6zm-2.82 0h-7.18l6-6h7.18zm-10 0h-7.18l6-6h7.18zm-10 0h-7.18l6-6h7.18zm32.82 0 5.59-5.59v5.59zm-36.82-6-6 6h-7.18l2-2h2.59a1 1 0 0 0 1-1v-3zm-8.26-9.93 1.08-1.57 7.05-1.22-5 7.19-2.46.43v-3.9a1 1 0 0 0 -.67-.93zm32.53-.67-7 1.21 5-7.19 6.87-1.18zm7.58-7.63 7-1.22-4.85 7.17-7 1.21zm-17.33 9.31-7 1.22 5-7.18 7-1.22zm-9.81 1.7-7 1.21 5-7.18 7.05-1.22zm32.06-5.53 4.5-6.65 1 5.7zm-46.71 1.75-.71 1h-4.77v-.07zm-5.65 49v-22h58v22z"/><path d="m5 17.1h2v2h-2z"/><path d="m5 21h2v2h-2z"/><path d="m15 49.61 1.14 1.9a1 1 0 0 0 1.72 0l1.14-1.9v5.39h2v-9a1 1 0 0 0 -1.86-.51l-2.14 3.57-2.14-3.57a1 1 0 0 0 -1.86.51v9h2z"/><path d="m26.5 55a3.5 3.5 0 0 0 3.5-3.5v-3a3.5 3.5 0 0 0 -7 0v3a3.5 3.5 0 0 0 3.5 3.5zm-1.5-6.5a1.5 1.5 0 0 1 3 0v3a1.5 1.5 0 0 1 -3 0z"/><path d="m45 55h5v-2h-4v-2h4v-2h-4v-2h4v-2h-5a1 1 0 0 0 -1 1v8a1 1 0 0 0 1 1z"/><path d="m34.17 54.55a1 1 0 0 0 1.66 0l2-3a1 1 0 0 0 .17-.55v-6h-2v5.7l-1 1.5-1-1.5v-5.7h-2v6a1 1 0 0 0 .17.55z"/><path d="m40 45h2v10h-2z"/><path d="m54 41h-44a1 1 0 0 0 -1 1v16a1 1 0 0 0 1 1h44a1 1 0 0 0 1-1v-16a1 1 0 0 0 -1-1zm-1 16h-42v-14h42z"/></g></symbol><symbol id="exchange" viewBox="0 0 477.88 477.88">
<g>
	<g>
		<path d="M472.897,124.269c-0.01-0.01-0.02-0.02-0.03-0.031l-0.017,0.017l-68.267-68.267c-6.78-6.548-17.584-6.36-24.132,0.42
			c-6.388,6.614-6.388,17.099,0,23.713l39.151,39.151h-95.334c-65.948,0.075-119.391,53.518-119.467,119.467
			c-0.056,47.105-38.228,85.277-85.333,85.333h-102.4C7.641,324.072,0,331.713,0,341.139s7.641,17.067,17.067,17.067h102.4
			c65.948-0.075,119.391-53.518,119.467-119.467c0.056-47.105,38.228-85.277,85.333-85.333h95.334l-39.134,39.134
			c-6.78,6.548-6.968,17.353-0.419,24.132c6.548,6.78,17.353,6.968,24.132,0.419c0.142-0.137,0.282-0.277,0.419-0.419l68.267-68.267
			C479.54,141.748,479.553,130.942,472.897,124.269z"/>
	</g>
</g>
<g>
	<g>
		<path d="M472.897,329.069c-0.01-0.01-0.02-0.02-0.03-0.03l-0.017,0.017l-68.267-68.267c-6.78-6.548-17.584-6.36-24.132,0.42
			c-6.388,6.614-6.388,17.099,0,23.712l39.151,39.151h-95.334c-20.996,0.015-41.258-7.721-56.9-21.726
			c-7.081-6.222-17.864-5.525-24.086,1.555c-6.14,6.988-5.553,17.605,1.319,23.874c21.898,19.614,50.269,30.451,79.667,30.43h95.334
			l-39.134,39.134c-6.78,6.548-6.968,17.352-0.42,24.132c6.548,6.78,17.352,6.968,24.132,0.42c0.142-0.138,0.282-0.277,0.42-0.42
			l68.267-68.267C479.54,346.548,479.553,335.742,472.897,329.069z"/>
	</g>
</g>
<g>
	<g>
		<path d="M199.134,149.702c-21.898-19.614-50.269-30.451-79.667-30.43h-102.4C7.641,119.272,0,126.913,0,136.339
			c0,9.426,7.641,17.067,17.067,17.067h102.4c20.996-0.015,41.258,7.721,56.9,21.726c7.081,6.222,17.864,5.525,24.086-1.555
			C206.593,166.588,206.006,155.971,199.134,149.702z"/>
	</g>
</g>
<g>
</g>
<g>
</g>
<g>
</g>
<g>
</g>
<g>
</g>
<g>
</g>
<g>
</g>
<g>
</g>
<g>
</g>
<g>
</g>
<g>
</g>
<g>
</g>
<g>
</g>
<g>
</g>
<g>
</g>
</symbol><symbol id="finish" viewBox="0 0 512 512">
<g>
	<g>
		<path d="M105,271c-24.813,0-45,20.187-45,45s20.187,45,45,45s45-20.187,45-45S129.813,271,105,271z M105,331
			c-8.271,0-15-6.729-15-15s6.729-15,15-15s15,6.729,15,15S113.271,331,105,331z"/>
	</g>
</g>
<g>
	<g>
		<path d="M437,331h-17.58c-6.192-17.458-22.865-30-42.42-30c-19.555,0-36.228,12.542-42.42,30H302c-16.542,0-30-13.458-30-30
			s13.458-30,30-30h105c4.734,0,9.276-2.322,12.044-6.059l71.998-96.989C504.753,149.675,512,127.906,512,105
			C512,47.103,464.897,0,407,0c-57.897,0-105,47.103-105,105c0,22.892,7.238,44.648,20.933,62.919L377.184,241H302
			c-33.084,0-60,26.916-60,60s26.916,60,60,60h32.58c6.192,17.458,22.865,30,42.42,30s36.228-12.542,42.42-30H437
			c24.813,0,45,20.187,45,45c0,24.935-20.607,46-45,46H329.42c-6.192-17.458-22.865-30-42.42-30c-19.555,0-36.228,12.542-42.42,30
			H134.816l54.226-73.048C202.753,360.675,210,338.906,210,316c0-57.897-47.103-105-105-105C47.103,211,0,258.103,0,316
			c0,22.906,7.247,44.675,20.913,62.892l71.835,96.769c2.707,3.83,7.212,6.34,12.24,6.34c0.056,0,0.111,0,0.168-0.001H244.58
			c6.192,17.458,22.865,30,42.42,30s36.228-12.542,42.42-30H437c20.037,0,38.914-8.022,53.153-22.588
			C504.241,444.999,512,426.03,512,406C512,364.645,478.355,331,437,331z M347.001,150.01c-0.015-0.02-0.029-0.04-0.045-0.06
			C337.172,136.907,332,121.363,332,105c0-41.355,33.645-75,75-75c41.355,0,75,33.645,75,75c0,16.363-5.172,31.907-15.001,45.01
			L407,230.834L347.001,150.01z M377,361c-8.271,0-15-6.729-15-15s6.729-15,15-15s15,6.729,15,15S385.271,361,377,361z M105,441.834
			L44.956,360.95C35.172,347.907,30,332.363,30,316c0-41.355,33.645-75,75-75s75,33.645,75,75c0,16.363-5.172,31.907-15.001,45.01
			L105,441.834z M287,482c-8.271,0-15-6.729-15-15s6.729-15,15-15s15,6.729,15,15S295.271,482,287,482z"/>
	</g>
</g>
<g>
	<g>
		<path d="M407,60c-24.813,0-45,20.187-45,45s20.187,45,45,45s45-20.187,45-45S431.813,60,407,60z M407,120c-8.271,0-15-6.729-15-15
			s6.729-15,15-15s15,6.729,15,15S415.271,120,407,120z"/>
	</g>
</g>
<g>
</g>
<g>
</g>
<g>
</g>
<g>
</g>
<g>
</g>
<g>
</g>
<g>
</g>
<g>
</g>
<g>
</g>
<g>
</g>
<g>
</g>
<g>
</g>
<g>
</g>
<g>
</g>
<g>
</g>
</symbol><symbol id="food" viewBox="0 0 511.756 511.756"><g><path d="m159.283 0c-4.143 0-7.5 3.358-7.5 7.5v105.003h-19.825v-105.003c0-4.142-3.357-7.5-7.5-7.5s-7.5 3.358-7.5 7.5v105.003h-19.383v-105.003c0-4.142-3.357-7.5-7.5-7.5s-7.5 3.358-7.5 7.5v105.003h-19.864v-105.003c0-4.142-3.357-7.5-7.5-7.5s-7.5 3.358-7.5 7.5v154.408c0 15.952 8.596 30.792 22.432 38.729l12.432 7.132v45.998c-5.009 5.856-7.828 13.395-7.828 21.151v7.679c0 4.653 1.612 8.936 4.305 12.321-2.694 3.385-4.305 7.668-4.305 12.321v117.326c0 4.142 3.357 7.5 7.5 7.5s7.5-3.358 7.5-7.5v-117.327c0-2.658 2.163-4.821 4.821-4.821h25.358c2.658 0 4.82 2.163 4.82 4.821v172.018c0 9.649-7.851 17.5-17.5 17.5s-17.5-7.851-17.5-17.5v-19.771c0-4.142-3.357-7.5-7.5-7.5s-7.5 3.358-7.5 7.5v19.771c0 17.92 14.579 32.5 32.5 32.5s32.5-14.58 32.5-32.5v-172.018c0-4.653-1.612-8.936-4.305-12.321 2.694-3.385 4.305-7.668 4.305-12.321v-7.679c0-7.734-2.806-15.257-7.789-21.106v-46.045l12.412-7.128c13.824-7.94 22.412-22.776 22.412-38.718l.002-154.42c0-4.142-3.358-7.5-7.5-7.5zm-7.501 161.92c0 10.586-5.703 20.438-14.883 25.71l-16.177 9.291c-2.329 1.338-3.765 3.818-3.765 6.504v53.359c0 2.057.845 4.023 2.336 5.439 3.517 3.339 5.453 7.847 5.453 12.694v7.679c0 2.658-2.162 4.821-4.82 4.821h-25.358c-2.658 0-4.821-2.163-4.821-4.821v-7.679c0-4.86 1.946-9.377 5.48-12.719 1.499-1.417 2.348-3.388 2.348-5.45v-53.323c0-2.687-1.438-5.168-3.768-6.505l-16.2-9.294c-9.188-5.27-14.896-15.125-14.896-25.717v-34.405h89.07v34.416z"/><path d="m302.75 125.741c0 15.26-3.349 27.141-9.429 33.454-5.8 6.022-14.661 7.287-21.073 7.287s-15.273-1.264-21.073-7.288c-6.079-6.312-9.428-18.192-9.428-33.453 0-4.142-3.357-7.5-7.5-7.5s-7.5 3.358-7.5 7.5c0 19.439 4.711 34.605 13.624 43.858 9.456 9.821 22.555 11.882 31.877 11.882s22.42-2.062 31.878-11.881c8.913-9.255 13.624-24.421 13.624-43.859 0-4.142-3.357-7.5-7.5-7.5s-7.5 3.358-7.5 7.5z"/><path d="m272.249 0c-20.384 0-39.804 15.168-54.684 42.709-13.036 24.13-20.818 55.17-20.818 83.032 0 42.681 18.429 72.276 50.829 82.195v45.831c-5.008 5.856-7.827 13.395-7.827 21.15v7.679c0 4.652 1.611 8.935 4.305 12.32-2.694 3.385-4.306 7.668-4.306 12.321v172.018c0 17.92 14.58 32.5 32.501 32.5 17.92 0 32.499-14.58 32.499-32.5v-111.112c0-4.142-3.357-7.5-7.5-7.5s-7.5 3.358-7.5 7.5v111.113c0 9.649-7.851 17.5-17.5 17.5s-17.5-7.851-17.5-17.5v-172.018c0-2.658 2.163-4.821 4.821-4.821h25.358c2.658 0 4.82 2.163 4.82 4.821v26.324c0 4.142 3.357 7.5 7.5 7.5s7.5-3.358 7.5-7.5v-26.324c0-4.652-1.611-8.935-4.305-12.32 2.694-3.385 4.306-7.668 4.306-12.321v-7.679c0-7.734-2.806-15.256-7.79-21.106v-45.887c32.375-9.93 50.79-39.521 50.79-82.183 0-27.862-7.782-58.902-20.818-83.032-14.879-27.542-34.298-42.71-54.681-42.71zm15.576 194.834c-3.429.766-5.866 3.808-5.866 7.32v54.631c0 2.057.845 4.023 2.336 5.439 3.518 3.339 5.454 7.847 5.454 12.694v7.679c0 2.658-2.163 4.821-4.821 4.821h-25.358c-2.658 0-4.82-2.163-4.82-4.821v-7.679c0-4.86 1.946-9.377 5.48-12.72 1.498-1.417 2.347-3.388 2.347-5.449v-54.586c0-3.514-2.439-6.557-5.869-7.321-28.993-6.457-44.96-30.997-44.96-69.1 0-25.488 7.108-53.862 19.016-75.902 11.96-22.142 27.081-34.84 41.485-34.84s29.523 12.698 41.484 34.839c11.907 22.04 19.016 50.415 19.016 75.902 0 38.087-15.955 62.625-44.924 69.093z"/><path d="m464.044 314.917c0-7.735-2.806-15.257-7.79-21.106v-186.318c0-4.142-3.357-7.5-7.5-7.5s-7.5 3.358-7.5 7.5v189.291c0 2.057.845 4.023 2.337 5.439 3.517 3.338 5.453 7.846 5.453 12.693v7.679c0 2.658-2.162 4.821-4.82 4.821h-25.358c-2.658 0-4.821-2.163-4.821-4.821v-7.679c0-4.86 1.946-9.377 5.48-12.719 1.499-1.417 2.348-3.388 2.348-5.45v-35.332c0-4.142-3.357-7.5-7.5-7.5h-17.552v-176.145c0-28.205 18.224-52.496 44.434-60.771v56.237c0 4.142 3.357 7.5 7.5 7.5s7.5-3.358 7.5-7.5v-65.736c0-2.207-.972-4.301-2.656-5.727-1.686-1.425-3.914-2.036-6.088-1.669-38.063 6.404-65.689 39.067-65.689 77.666v183.647c0 4.142 3.357 7.5 7.5 7.5h17.552v24.85c-5.009 5.856-7.828 13.395-7.828 21.151v7.679c0 4.653 1.612 8.936 4.305 12.321-2.694 3.385-4.305 7.668-4.305 12.321v132.018c0 17.92 14.579 32.5 32.5 32.5s32.5-14.58 32.5-32.5v-132.019c0-4.653-1.612-8.936-4.305-12.321 2.694-3.385 4.305-7.668 4.305-12.321v-7.679zm-15 164.339c0 9.649-7.851 17.5-17.5 17.5s-17.5-7.851-17.5-17.5v-132.018c0-2.658 2.162-4.821 4.82-4.821h25.359c2.658 0 4.82 2.163 4.82 4.821v132.018z"/></g></symbol><symbol id="gas" viewBox="0 0 477.3 477.3">
<g>
	<g>
		<path d="M255.6,73.65h-177c-5.5,0-10,4.5-10,10v117c0,5.5,4.5,10,10,10h177c5.5,0,10-4.5,10-10v-117
			C265.6,78.15,261.1,73.65,255.6,73.65z M245.6,190.65h-157v-97h157V190.65z"/>
	</g>
</g>
<g>
	<g>
		<path d="M467.2,432.65H299.6v-160h16.3c14.8,0,26.8,12.1,26.7,26.9c0,0.1,0,0.1,0,0.2v27.7c0,29.3,23.7,53,53,53s53-23.7,53-53
			v-158.2c0-16.4-6.1-32.2-17.3-44.3l-78.2-89.1l-15,13.2l60.6,69.1c-21.9,3.7-36.7,24.4-33,46.3c3.2,19.4,20,33.6,39.7,33.6
			c8.3-0.1,16.4-2.6,23.2-7.4v136.8c0,18.2-14.8,33-33,33s-33-14.8-33-33v-27.7c0.1-25.9-20.8-47-46.6-47.1h-0.1h-16.3V66.35
			c0-22.8-18.4-41.7-41.2-41.7H72.6c-22.8,0-41,19-41,41.7v366.3H10c-5.5,0-10,4.5-10,10s4.5,10,10,10h457.3c5.5,0,10-4.5,10-10
			S472.8,432.65,467.2,432.65z M405.4,177.95c-11.2,0-20.2-9.1-20.2-20.2c0-11.1,9.1-20.2,20.2-20.2c11.2,0,20.2,9.1,20.2,20.2
			C425.6,168.85,416.5,177.95,405.4,177.95z M279.6,432.65h-228V66.35c0-11.8,9.2-21.7,21-21.7h185.8c11.8,0,21.2,10,21.2,21.7
			V432.65z"/>
	</g>
</g>
<g>
</g>
<g>
</g>
<g>
</g>
<g>
</g>
<g>
</g>
<g>
</g>
<g>
</g>
<g>
</g>
<g>
</g>
<g>
</g>
<g>
</g>
<g>
</g>
<g>
</g>
<g>
</g>
<g>
</g>
</symbol><symbol id="hotel" viewBox="0 0 512 512"><g><circle cx="45" cy="256" r="45"/><path d="m0 331h512v60h-512z"/><path d="m437 211h-272c-41.355 0-75 33.645-75 75v15h422v-15c0-41.355-33.645-75-75-75z"/><path d="m0 481h30v-30h452v30h30v-60h-512z"/><path d="m246.729 121h84.271v-30h-35.729l30-60h-84.271v30h35.729z"/><path d="m126.729 181h84.271v-30h-35.729l30-60h-84.271v30h35.729z"/></g></symbol><symbol id="islam" viewBox="0 0 512 512"><g><path d="m304.468 3.651c-14.977-2.457-28.541-3.651-41.469-3.651-140.607 0-255 114.841-255 256s114.393 256 255 256c108.486 0 205.021-70.172 240.215-174.616 2.324-6.897-.639-14.468-7.027-17.956-6.389-3.487-14.359-1.885-18.903 3.799-34.434 43.071-85.201 67.773-139.285 67.773-99.252 0-180-80.748-180-180 0-87.148 61.735-161.925 146.792-177.801 7.161-1.337 12.327-7.625 12.247-14.91-.08-7.284-5.382-13.458-12.57-14.638zm-176.469 207.349c0 115.794 94.206 210 210 210 35.991 0 70.703-9.326 101.339-26.621-41.649 54.233-106.169 87.621-176.339 87.621-124.065 0-225-101.383-225-226 0-111.679 81.073-204.7 187.202-222.811-62.071 39.847-97.202 107.831-97.202 177.811z"/><path d="m427.719 176.963c-1.757-5.403-6.415-9.35-12.033-10.196l-54.583-8.216-24.687-49.386c-2.54-5.083-7.735-8.293-13.417-8.293s-10.877 3.21-13.417 8.293l-24.687 49.386-54.583 8.216c-5.618.846-10.276 4.792-12.033 10.196-1.756 5.403-.31 11.334 3.737 15.322l39.321 38.743-9.063 54.457c-.933 5.604 1.382 11.255 5.978 14.596 4.596 3.34 10.686 3.799 15.728 1.181l49.02-25.434 49.02 25.434c5.043 2.616 11.131 2.16 15.728-1.181 4.596-3.341 6.91-8.991 5.978-14.596l-9.063-54.457 39.321-38.743c4.044-3.987 5.491-9.919 3.735-15.322zm-69.661 38.162c-3.479 3.426-5.07 8.331-4.27 13.147l5.417 32.544-29.298-15.201c-2.166-1.124-4.537-1.686-6.908-1.686s-4.742.562-6.908 1.686l-29.298 15.201 5.417-32.544c.801-4.816-.791-9.721-4.27-13.147l-23.501-23.156 32.623-4.91c4.829-.727 9.001-3.758 11.185-8.126l14.752-29.512 14.752 29.512c2.184 4.368 6.355 7.399 11.185 8.126l32.623 4.91z"/></g></symbol><symbol id="judaism" viewBox="0 0 512 512"><g><path d="m413.949 256 65.883-112.942c2.706-4.639 2.726-10.372.05-15.029-2.675-4.658-7.636-7.529-13.007-7.529h-131.967l-65.951-113.058c-2.689-4.609-7.622-7.442-12.957-7.442s-10.269 2.833-12.957 7.442l-65.95 113.058h-131.968c-5.371 0-10.332 2.872-13.007 7.529s-2.656 10.39.051 15.029l65.882 112.942-65.883 112.942c-2.707 4.639-2.726 10.372-.051 15.029 2.675 4.658 7.636 7.529 13.007 7.529h131.968l65.951 113.058c2.688 4.609 7.622 7.442 12.957 7.442s10.269-2.833 12.957-7.442l65.951-113.058h131.967c5.371 0 10.332-2.872 13.007-7.529 2.676-4.657 2.656-10.39-.05-15.029zm26.811-105.5-44.176 75.73-44.176-75.73zm-61.542 105.5-61.542 105.5h-123.352l-61.542-105.5 61.542-105.5h123.352zm-123.218-211.23 44.176 75.73h-88.352zm-184.759 105.73h88.352l-44.176 75.73zm0 211 44.176-75.73 44.176 75.73zm184.759 105.73-44.176-75.73h88.352zm96.408-105.73 44.176-75.73 44.176 75.73z"/></g></symbol><symbol id="medecine" viewBox="0 0 64 64"><g id="insurance-clipboard-document-report-security"><path d="m24 5a3 3 0 1 0 3 3 3 3 0 0 0 -3-3zm0 4a1 1 0 1 1 1-1 1 1 0 0 1 -1 1z"/><path d="m11 33h4v2h-4z"/><path d="m17 33h15v2h-15z"/><path d="m11 39h4v2h-4z"/><path d="m11 45h4v2h-4z"/><path d="m11 51h4v2h-4z"/><path d="m61 35h-1a15.113 15.113 0 0 1 -9-3l-2.4-1.8a.99.99 0 0 0 -1.2 0l-1.4 1.05v-20.25a3.009 3.009 0 0 0 -3-3h-8.18a3.01 3.01 0 0 0 -2.82-2h-2.34a6 6 0 0 0 -11.32 0h-2.34a3.01 3.01 0 0 0 -2.82 2h-8.18a3.009 3.009 0 0 0 -3 3v48a3.009 3.009 0 0 0 3 3h38a3.016 3.016 0 0 0 2.35-1.15l2.22 1.05a.975.975 0 0 0 .86 0l8.78-4.17a8.961 8.961 0 0 0 4.79-7.95v-13.78a1 1 0 0 0 -1-1zm-26-25h8a1 1 0 0 1 1 1v21.69a15.237 15.237 0 0 1 -2 1.05v-20.74a1 1 0 0 0 -1-1h-6zm-20-1a1 1 0 0 1 1-1h3.1a.988.988 0 0 0 .98-.8 4 4 0 0 1 7.84 0 .988.988 0 0 0 .98.8h3.1a1 1 0 0 1 1 1v4h-18zm-1 6h20a1 1 0 0 0 1-1h5v20.44a15.03 15.03 0 0 1 -4 .56h-1a1 1 0 0 0 -1 1v3h-17v2h17v4h-17v2h17v2.78a9.867 9.867 0 0 0 .08 1.22h-17.08v2h17.61a9.027 9.027 0 0 0 1.91 3h-28.52v-42h5a1 1 0 0 0 1 1zm29 45h-38a1 1 0 0 1 -1-1v-48a1 1 0 0 1 1-1h8v2h-6a1 1 0 0 0 -1 1v44a1 1 0 0 0 1 1h32.36l4.02 1.91a1.007 1.007 0 0 1 -.38.09zm17-10.22a6.953 6.953 0 0 1 -3.69 6.16l-8.31 3.95-8.29-3.94a6.975 6.975 0 0 1 -3.71-6.17v-12.78a17.1 17.1 0 0 0 10.2-3.4l1.8-1.35 1.8 1.35a17.1 17.1 0 0 0 10.2 3.4z"/><path d="m30 21h-3v-3a1 1 0 0 0 -1-1h-4a1 1 0 0 0 -1 1v3h-3a1 1 0 0 0 -1 1v4a1 1 0 0 0 1 1h3v3a1 1 0 0 0 1 1h4a1 1 0 0 0 1-1v-3h3a1 1 0 0 0 1-1v-4a1 1 0 0 0 -1-1zm-1 4h-3a1 1 0 0 0 -1 1v3h-2v-3a1 1 0 0 0 -1-1h-3v-2h3a1 1 0 0 0 1-1v-3h2v3a1 1 0 0 0 1 1h3z"/><path d="m57.15 38.78a19.042 19.042 0 0 1 -8.55-3.58.99.99 0 0 0 -1.2 0 19.042 19.042 0 0 1 -8.55 3.58 1.008 1.008 0 0 0 -.85.99v10.01a4.994 4.994 0 0 0 2.58 4.37l.06.03 6.93 3.29a.975.975 0 0 0 .86 0l6.99-3.32a5.006 5.006 0 0 0 2.58-4.37v-10.01a1.008 1.008 0 0 0 -.85-.99zm-1.15 11a2.959 2.959 0 0 1 -1.5 2.59l-6.5 3.09-6.48-3.07a3 3 0 0 1 -1.52-2.61v-9.17a21.108 21.108 0 0 0 8-3.38 21.108 21.108 0 0 0 8 3.38z"/><path d="m43.707 47.293-1.414 1.414 3 3a1 1 0 0 0 1.414 0l8-8-1.414-1.414-7.293 7.293z"/></g></symbol><symbol id="mountain" viewBox="0 0 512 512">
<path d="M504.5,376.829h-11.786L382.295,192.798c-6.287-10.478-19.773-14.405-30.703-8.94l-13.951,6.975l-63.769-63.769  c-4.704-4.703-11.221-7.209-17.853-6.861c-6.642,0.343-12.857,3.5-17.051,8.662L150.23,238.082l-0.144-0.062  c-9.83-4.213-21.28-1.259-27.845,7.183L19.864,376.829H7.5c-4.142,0-7.5,3.358-7.5,7.5s3.358,7.5,7.5,7.5h497  c4.142,0,7.5-3.358,7.5-7.5S508.642,376.829,504.5,376.829z M250.611,138.323c1.543-1.899,3.738-3.014,6.182-3.14  c2.437-0.127,4.743,0.757,6.473,2.487l64.449,64.449l-3.556,12.159c-1.163,3.976,1.117,8.141,5.093,9.304  c0.703,0.206,1.412,0.304,2.109,0.304c3.246,0,6.238-2.124,7.195-5.396l3.885-13.285l15.86-7.93  c3.962-1.98,8.853-0.557,11.132,3.242l105.788,176.313h-48.078l-107.548-93.52l9.752-33.341c1.163-3.976-1.117-8.141-5.093-9.304  c-3.976-1.162-8.141,1.117-9.304,5.093l-7.815,26.718l-51.949-45.173c-8.76-7.618-21.59-7.751-30.506-0.32l-34.081,28.4  l-26.035-11.158L250.611,138.323z M252.76,376.829l-51.65-110.679l33.174-27.645c3.233-2.695,7.885-2.646,11.061,0.116  l158.939,138.208H252.76z M134.081,254.411c2.381-3.061,6.534-4.132,10.096-2.604l42.108,18.046l49.922,106.976h-135.8l33.89-61.003  c2.012-3.621,0.707-8.187-2.914-10.198s-8.187-0.707-10.198,2.914l-37.938,68.287H38.867L134.081,254.411z"/>















</symbol><symbol id="museum" viewBox="0 0 512 512"><g><path d="m112.5 442.382c-4.142 0-7.5 3.357-7.5 7.5v54.618c0 4.143 3.358 7.5 7.5 7.5s7.5-3.357 7.5-7.5v-54.618c0-4.143-3.358-7.5-7.5-7.5zm287 0c-4.142 0-7.5 3.357-7.5 7.5v54.618c0 4.143 3.358 7.5 7.5 7.5s7.5-3.357 7.5-7.5v-54.618c0-4.143-3.358-7.5-7.5-7.5zm36.915-113.886-47.025-16.142c-.445-11.137 3.516-21.837 11.403-29.761 7.39-7.425 17.23-11.514 27.757-11.514 7.148 0 12.774-6.902 11.121-13.876l-32.023-139.727c-.001-.005-.002-.01-.003-.015l-10.022-43.731c-1.479-6.481-4.701-12.453-9.317-17.271-33.729-35.2-83.931-56.459-132.306-56.459-49.087 0-98.3 20.986-132.304 56.46-4.565 4.762-7.849 10.831-9.316 17.265l-10.025 43.741c0 .001-.001.003-.001.005l-32.022 139.724c-1.666 7.01 3.938 13.885 11.168 13.885 22.253 0 40.341 18.943 39.11 41.274l-47.025 16.142c-27.266 9.358-45.585 35.016-45.585 63.844v112.16c0 4.143 3.358 7.5 7.5 7.5s7.5-3.357 7.5-7.5v-112.16c0-13.353 5.055-25.83 13.622-35.277 14.855 18.589 32.281 35.002 51.914 48.855 8.14 5.743 16.622 11.006 25.234 15.678 14.224 21.478 38.598 35.674 66.229 35.674 5.438 0 10.675-3.535 12.667-8.647 13.582 2.232 27.446 3.377 41.334 3.377 13.89 0 27.757-1.146 41.34-3.379 1.988 5.055 6.907 8.648 12.66 8.648 21.201 0 41.136-8.259 56.133-23.256 3.848-3.849 7.245-8.026 10.18-12.463 8.583-4.661 17.037-9.908 25.15-15.632 19.633-13.853 37.06-30.266 51.914-48.855 8.568 9.447 13.623 21.924 13.623 35.277v112.16c0 4.143 3.358 7.5 7.5 7.5s7.5-3.357 7.5-7.5v-112.16c0-28.828-18.319-54.486-45.585-63.844zm-24.214 7.548c-7.028 8.033-14.642 15.525-22.811 22.387 0-.058-.004-30.184 0-30.217zm1.599-124.574h-38.533c-4.142 0-7.5 3.357-7.5 7.5s3.358 7.5 7.5 7.5h41.971l6.827 29.788c-1.887.238-110.6.343-112.674.212v-29.551c.124-.151.254-.297.378-.449h28.499c4.142 0 7.5-3.357 7.5-7.5s-3.358-7.5-7.5-7.5h-19.108c2.264-4.845 4.005-9.945 5.143-15.217l3.191-14.783h77.433zm-10.313-45h-70.757l6.652-30.819 55.22-7.952zm-26.012-99.631c2.738 2.857 4.647 6.396 5.524 10.237l8.239 35.951-51.194 7.372c-.392-1.727-.956-3.412-1.679-5.038l31.653-55.809c2.554 2.349 5.047 4.772 7.457 7.287zm-56.222-38.585c13.184 5.552 25.669 12.761 37.087 21.485l-30.369 53.544c-5.243-3.385-11.823-4.689-18.161-4.283zm-72.753-13.08v17.666c0 4.143 3.358 7.5 7.5 7.5s7.5-3.357 7.5-7.5v-17.66c14.813.671 29.414 3.32 43.414 7.782l-12.298 76.038h-31.116v-31.16c0-4.143-3.358-7.5-7.5-7.5s-7.5 3.357-7.5 7.5v31.16h-31.263l-14.005-75.509c14.646-4.85 29.8-7.637 45.268-8.317zm-59.515 13.756 12.996 70.07c-6.27-.324-12.694.959-17.952 4.283l-30.389-53.579c10.839-8.316 22.662-15.264 35.345-20.774zm-59.984 48.142c.87-3.819 2.817-7.409 5.523-10.232 2.415-2.52 4.904-4.945 7.451-7.296l31.658 55.817c-.723 1.626-1.286 3.312-1.679 5.038l-51.194-7.372zm-11.602 50.626 55.22 7.952 6.652 30.819h-70.757zm-12.323 53.772h77.433l3.191 14.783c1.138 5.271 2.879 10.372 5.143 15.217h-92.643zm17.534 146.744c-.002.053-.002 30.163 0 30.225-8.165-6.861-15.78-14.356-22.812-22.395zm-3.426 65.448c-18.542-13.083-34.988-28.589-48.993-46.152 4.421-2.59 9.445-4.614 14.364-6.234 11.223 13.56 23.993 25.73 38.056 36.281v.313c0 6.859.888 13.511 2.534 19.862-2.006-1.326-3.995-2.683-5.961-4.07zm81.426 48.593c-24.652-.524-45.923-14.982-56.279-35.79h56.279c-.094 2.267.09 33.691 0 35.79zm0-50.79h-61.541c-.946-4.385-1.459-8.93-1.459-13.595v-16.405h63zm0-45h-63v-29.995h63zm0-44.995h-63.716c-1.9-11.665-7.538-22.091-15.655-30h79.371zm0-45c-1.954.079-110.912.046-112.676-.206l6.828-29.794h105.47c.123.151.253.298.378.449zm95.78 177.113c-26.509 4.521-54.272 4.521-80.78 0v-15.269c13.259 2.434 26.801 3.686 40.39 3.686s27.131-1.252 40.39-3.686zm0-30.519c-26.462 5.213-54.318 5.213-80.78 0v-77.889c4.684 1.843 9.491 3.357 14.39 4.546v48.779c0 7.444 6.056 13.5 13.5 13.5h25c7.444 0 13.5-6.056 13.5-13.5v-48.78c4.91-1.191 9.716-2.704 14.39-4.542zm-80.78-94.224v-68.26c4.506 3.054 9.341 5.569 14.39 7.527v66.109c-4.932-1.403-9.741-3.2-14.39-5.376zm29.39 68.16v-124.869c3.628.565 7.304.869 11 .869s7.372-.304 11-.869v124.869zm51.39-68.157c-4.635 2.17-9.444 3.966-14.39 5.372v-66.107c5.049-1.958 9.885-4.473 14.39-7.527zm-40.39-70.843c-26.623 0-50.022-18.888-55.639-44.911l-13.803-63.951c-1.706-7.665 4.393-15.185 12.219-15.138h114.446c7.794 0 13.925 7.492 12.219 15.138l-13.803 63.951c-5.617 26.023-29.016 44.911-55.639 44.911zm99.527 185.406c-11.836 11.836-27.462 18.498-44.137 18.849.147-2.054-.144-33.55 0-35.79h56.319c-3.074 6.189-7.153 11.912-12.182 16.941zm18.863-45.536c0 4.627-.501 9.175-1.446 13.595h-61.554v-30h63zm0-31.405h-63v-29.995h63zm.71-44.995h-63.71v-30h79.335c-.187.183-.379.356-.564.542-8.091 8.13-13.272 18.371-15.061 29.458zm17.716 92.192c-1.954 1.378-3.929 2.726-5.92 4.043 1.64-6.403 2.494-13.053 2.494-19.835v-.323c14.071-10.556 26.841-22.723 38.056-36.271 4.914 1.535 10.057 3.585 14.364 6.234-14.005 17.563-30.452 33.069-48.994 46.152z"/></g></symbol><symbol id="none" viewBox="0 0 426.667 426.667">
<g>
	<g>
		<g>
			<path d="M213.333,0C95.68,0,0,95.68,0,213.333s95.68,213.333,213.333,213.333s213.333-95.68,213.333-213.333S330.987,0,213.333,0
				z M213.333,384c-94.08,0-170.667-76.587-170.667-170.667S119.253,42.667,213.333,42.667S384,119.253,384,213.333
				S307.413,384,213.333,384z"/>
			<path d="M213.333,149.333c-35.307,0-64,28.693-64,64s28.693,64,64,64s64-28.693,64-64S248.64,149.333,213.333,149.333z"/>
		</g>
	</g>
</g>
<g>
</g>
<g>
</g>
<g>
</g>
<g>
</g>
<g>
</g>
<g>
</g>
<g>
</g>
<g>
</g>
<g>
</g>
<g>
</g>
<g>
</g>
<g>
</g>
<g>
</g>
<g>
</g>
<g>
</g>
</symbol><symbol id="park" viewBox="0 0 128 128"><g><path d="M121.693,119.943H102.356V92.991a9.677,9.677,0,0,0,1.12.071,9.8,9.8,0,0,0,9.783-9.784v-.094A9.788,9.788,0,0,0,120.13,68.12a9.776,9.776,0,0,0-1.016-15.453,9.772,9.772,0,0,0-4.783-11.961,9.571,9.571,0,0,0,.146-1.663,9.792,9.792,0,0,0-8-9.61,9.783,9.783,0,0,0-19.554-.013,9.662,9.662,0,0,0-1.65.479l0,0a11.506,11.506,0,0,0,.229-2.278,11.659,11.659,0,0,0-9.851-11.5,11.648,11.648,0,0,0-23.3-.013A11.667,11.667,0,0,0,42.5,27.619,11.506,11.506,0,0,0,42.73,29.9l0,0a9.507,9.507,0,0,0-1.65-.475,9.783,9.783,0,0,0-19.553,0,9.8,9.8,0,0,0-8,9.621,9.571,9.571,0,0,0,.146,1.663A9.772,9.772,0,0,0,8.886,52.667,9.776,9.776,0,0,0,7.87,68.12a9.788,9.788,0,0,0,6.871,15.064v.094a9.8,9.8,0,0,0,9.783,9.784,9.677,9.677,0,0,0,1.12-.071v26.952H6.307a1.75,1.75,0,0,0,0,3.5H121.693a1.75,1.75,0,0,0,0-3.5ZM90.1,32.151a1.751,1.751,0,0,0,.4-1.406,6.136,6.136,0,0,1-.084-.966,6.283,6.283,0,1,1,12.566,0,6.136,6.136,0,0,1-.084.966,1.767,1.767,0,0,0,.434,1.4,1.817,1.817,0,0,0,1.361.61,6.264,6.264,0,0,1,5.91,8.4,1.751,1.751,0,0,0,1.132,2.264,6.272,6.272,0,0,1,3.6,9.126,1.749,1.749,0,0,0,.821,2.477,6.279,6.279,0,0,1,.585,11.237,1.75,1.75,0,0,0-.371,2.767,6.281,6.281,0,0,1-4.423,10.744c-.171,0-.339-.013-.506-.027a1.749,1.749,0,0,0-1.845,2.132,6.385,6.385,0,0,1,.163,1.4,6.278,6.278,0,0,1-11.583,3.364,1.751,1.751,0,0,0-2.953,0,6.265,6.265,0,0,1-11.457-2.2A11.656,11.656,0,0,0,84,82.126c0-.158,0-.316-.011-.476a11.651,11.651,0,0,0,8.342-18.273,11.639,11.639,0,0,0-1.2-18.806,11.655,11.655,0,0,0-2.1-11.836A1.819,1.819,0,0,0,90.1,32.151ZM72.349,93.774a11.635,11.635,0,0,0,9.522-4.96,9.828,9.828,0,0,0,8.053,4.248,9.659,9.659,0,0,0,1.119-.071v26.952H70.563V93.623A11.633,11.633,0,0,0,72.349,93.774ZM46.4,31.735a1.749,1.749,0,0,0,.083-1.373,8.131,8.131,0,0,1,7.578-10.894,1.843,1.843,0,0,0,1.5-.605,1.753,1.753,0,0,0,.4-1.407,8.02,8.02,0,0,1-.108-1.251,8.148,8.148,0,1,1,16.3,0,8.02,8.02,0,0,1-.108,1.251,1.772,1.772,0,0,0,.441,1.405,1.835,1.835,0,0,0,1.37.61,8.128,8.128,0,0,1,7.664,10.891,1.752,1.752,0,0,0,1.132,2.263A8.135,8.135,0,0,1,87.315,44.46a1.751,1.751,0,0,0,.822,2.478A8.143,8.143,0,0,1,88.9,61.51a1.751,1.751,0,0,0-.372,2.767,8.146,8.146,0,0,1-5.734,13.934c-.223,0-.44-.017-.658-.034a1.75,1.75,0,0,0-1.845,2.134,8.139,8.139,0,0,1-14.809,6.178,1.75,1.75,0,0,0-2.954,0,8.135,8.135,0,0,1-14.809-6.178,1.75,1.75,0,0,0-1.845-2.134c-.218.017-.435.034-.658.034a8.145,8.145,0,0,1-5.734-13.934A1.751,1.751,0,0,0,39.1,61.51a8.143,8.143,0,0,1,.758-14.572,1.751,1.751,0,0,0,.822-2.478,8.135,8.135,0,0,1,4.668-11.835A1.751,1.751,0,0,0,46.4,31.735ZM38.076,93.062a9.828,9.828,0,0,0,8.053-4.248,11.483,11.483,0,0,0,11.308,4.809v26.32H36.957V92.991A9.659,9.659,0,0,0,38.076,93.062ZM18.241,83.278a6.385,6.385,0,0,1,.163-1.4,1.749,1.749,0,0,0-1.845-2.132c-.167.014-.335.027-.506.027A6.281,6.281,0,0,1,11.63,69.027a1.75,1.75,0,0,0-.371-2.767,6.279,6.279,0,0,1,.585-11.237,1.749,1.749,0,0,0,.821-2.477,6.272,6.272,0,0,1,3.6-9.126A1.751,1.751,0,0,0,17.4,41.156a6.267,6.267,0,0,1,5.824-8.4,1.834,1.834,0,0,0,1.48-.606,1.751,1.751,0,0,0,.4-1.406,6.136,6.136,0,0,1-.084-.966,6.283,6.283,0,0,1,12.566,0,6.136,6.136,0,0,1-.084.966,1.767,1.767,0,0,0,.434,1.4,1.788,1.788,0,0,0,1.05.577,11.653,11.653,0,0,0-2.111,11.844,11.639,11.639,0,0,0-1.2,18.806A11.65,11.65,0,0,0,44.013,81.65c-.007.16-.011.318-.011.476a11.656,11.656,0,0,0,.232,2.311,6.265,6.265,0,0,1-11.457,2.2,1.751,1.751,0,0,0-2.953,0,6.278,6.278,0,0,1-11.583-3.364Zm10.9,36.665V91.9A9.745,9.745,0,0,0,31.3,90.331,9.693,9.693,0,0,0,33.457,91.9v28.044Zm31.793,0V92.5A11.61,11.61,0,0,0,64,90.241,11.61,11.61,0,0,0,67.063,92.5v27.447Zm33.606,0V91.9A9.693,9.693,0,0,0,96.7,90.331,9.745,9.745,0,0,0,98.856,91.9v28.044Z"/><path d="M72.05,33.15a1.75,1.75,0,0,0,1.129,2.2,1.73,1.73,0,0,0,.537.085,1.752,1.752,0,0,0,1.666-1.214,5.408,5.408,0,0,0-1.613-5.989,1.75,1.75,0,0,0-2.393,2.555A1.966,1.966,0,0,1,72.05,33.15Z"/><path d="M75.441,71.371h-.007a1.75,1.75,0,0,0-1.743,1.757c.008,1.755-.17,1.946-1.024,2.862a1.75,1.75,0,0,0,2.561,2.386c1.459-1.565,1.975-2.6,1.963-5.263A1.75,1.75,0,0,0,75.441,71.371Z"/><path d="M75.418,39.083a1.75,1.75,0,0,0,.468,2.43c.025.017,2.494,1.752,2.743,4.205a6.975,6.975,0,0,1-1.9,5.385,1.751,1.751,0,0,0,2.4,2.548,10.56,10.56,0,0,0,2.977-8.286c-.417-4.1-4.106-6.644-4.262-6.75A1.75,1.75,0,0,0,75.418,39.083Z"/></g></symbol><symbol id="parking" viewBox="0 0 512 512"><g><path d="m61 512h180c8.284 0 15-6.716 15-15s-6.716-15-15-15h-45v-106c0-8.284-6.716-15-15-15h-15v-286c0-24.813 20.187-45 45-45h120v30h-90c-8.284 0-15 6.716-15 15v210c0 8.284 6.716 15 15 15h210c8.284 0 15-6.716 15-15v-210c0-8.284-6.716-15-15-15h-90v-30h60c8.284 0 15-6.716 15-15s-6.716-15-15-15h-210c-41.355 0-75 33.645-75 75v286h-15c-8.284 0-15 6.716-15 15v106h-45c-8.284 0-15 6.716-15 15s6.716 15 15 15zm375-242h-180v-180h180zm-300 121h30v91h-30z"/><path d="m316 120c-8.284 0-15 6.716-15 15v90c0 8.284 6.716 15 15 15s15-6.716 15-15v-15h15c24.813 0 45-20.187 45-45s-20.187-45-45-45zm45 45c0 8.271-6.729 15-15 15h-15v-30h15c8.271 0 15 6.729 15 15z"/></g></symbol><symbol id="shop" viewBox="0 0 450.391 450.391">
<g>
	<g>
		<g>
			<path d="M143.673,350.322c-25.969,0-47.02,21.052-47.02,47.02c0,25.969,21.052,47.02,47.02,47.02
				c25.969,0,47.02-21.052,47.02-47.02C190.694,371.374,169.642,350.322,143.673,350.322z M143.673,423.465
				c-14.427,0-26.122-11.695-26.122-26.122c0-14.427,11.695-26.122,26.122-26.122c14.427,0,26.122,11.695,26.122,26.122
				C169.796,411.77,158.1,423.465,143.673,423.465z"/>
			<path d="M342.204,350.322c-25.969,0-47.02,21.052-47.02,47.02c0,25.969,21.052,47.02,47.02,47.02s47.02-21.052,47.02-47.02
				C389.224,371.374,368.173,350.322,342.204,350.322z M342.204,423.465c-14.427,0-26.122-11.695-26.122-26.122
				c0-14.427,11.695-26.122,26.122-26.122s26.122,11.695,26.122,26.122C368.327,411.77,356.631,423.465,342.204,423.465z"/>
			<path d="M448.261,76.037c-2.176-2.377-5.153-3.865-8.359-4.18L99.788,67.155L90.384,38.42
				C83.759,19.211,65.771,6.243,45.453,6.028H10.449C4.678,6.028,0,10.706,0,16.477s4.678,10.449,10.449,10.449h35.004
				c11.361,0.251,21.365,7.546,25.078,18.286l66.351,200.098l-5.224,12.016c-5.827,15.026-4.077,31.938,4.702,45.453
				c8.695,13.274,23.323,21.466,39.184,21.943h203.233c5.771,0,10.449-4.678,10.449-10.449c0-5.771-4.678-10.449-10.449-10.449
				H175.543c-8.957-0.224-17.202-4.936-21.943-12.539c-4.688-7.51-5.651-16.762-2.612-25.078l4.18-9.404l219.951-22.988
				c24.16-2.661,44.034-20.233,49.633-43.886l25.078-105.012C450.96,81.893,450.36,78.492,448.261,76.037z M404.376,185.228
				c-3.392,15.226-16.319,26.457-31.869,27.69l-217.339,22.465L106.58,88.053l320.261,4.702L404.376,185.228z"/>
		</g>
	</g>
</g>
<g>
</g>
<g>
</g>
<g>
</g>
<g>
</g>
<g>
</g>
<g>
</g>
<g>
</g>
<g>
</g>
<g>
</g>
<g>
</g>
<g>
</g>
<g>
</g>
<g>
</g>
<g>
</g>
<g>
</g>
</symbol><symbol id="sights" viewBox="0 0 512 512"><g id="XMLID_1380_"><g id="XMLID_1365_"><path id="XMLID_1379_" d="m511.742 451.742-27.084-116.856c6.149-1.661 11.724-5.133 15.959-10.073 6.095-7.108 8.77-16.493 7.34-25.747l-22.855-147.918c-1.898-12.285-10.435-21.938-21.665-25.579v-41.517c0-12.835-8.09-23.81-19.437-28.11v-45.942c0-5.523-4.477-10-10-10h-72c-5.523 0-10 4.477-10 10v45.942c-11.346 4.299-19.437 15.275-19.437 28.11v41.518c-8.489 2.752-15.438 8.942-19.144 17.106h-114.838c-3.707-8.164-10.655-14.354-19.144-17.106v-41.518c0-12.835-8.09-23.81-19.437-28.11v-45.942c0-5.523-4.477-10-10-10h-72c-5.523 0-10 4.477-10 10v45.942c-11.346 4.299-19.437 15.275-19.437 28.11v41.518c-11.23 3.641-19.767 13.294-21.665 25.579l-22.855 147.917c-1.43 9.254 1.245 18.639 7.34 25.747 4.236 4.94 9.81 8.412 15.959 10.073l-27.084 116.856c-.172.74-.258 1.498-.258 2.258v48c0 5.522 4.477 10 10 10h208c5.523 0 10-4.478 10-10v-48c0-.76-.086-1.518-.258-2.258l-27.084-116.856c6.149-1.661 11.724-5.133 15.959-10.073 3.54-4.129 5.917-9.027 7.015-14.22h64.735c1.099 5.193 3.476 10.091 7.015 14.22 4.236 4.94 9.81 8.412 15.959 10.073l-27.084 116.856c-.171.74-.257 1.498-.257 2.258v48c0 5.522 4.477 10 10 10h208c5.523 0 10-4.478 10-10v-48c0-.76-.086-1.518-.258-2.258zm-22.325-7.742h-182.834l25.031-108h132.772zm-136.854-359.948c0-5.542 4.509-10.052 10.052-10.052h70.77c5.542 0 10.052 4.509 10.052 10.052v39.948h-90.873v-39.948zm19.437-64.052h52v34h-52zm-82.648 270.594h-66.704l-19.765-127.918h106.235zm-220.789-206.542c0-5.543 4.51-10.052 10.052-10.052h70.77c5.542 0 10.052 4.509 10.052 10.052v39.948h-90.874zm19.437-64.052h52v34h-52zm-68 472v-28h49c5.523 0 10-4.478 10-10s-4.477-10-10-10h-46.417l25.031-108h132.772l25.031 108h-46.417c-5.523 0-10 4.478-10 10s4.477 10 10 10h49v28zm181.433-180.204c-2.324 2.711-5.57 4.204-9.141 4.204h-156.584c-3.571 0-6.817-1.493-9.141-4.204-2.324-2.71-3.304-6.146-2.758-9.675l22.855-147.919c.913-5.911 5.918-10.202 11.899-10.202h110.873c5.982 0 10.986 4.291 11.899 10.202l22.855 147.919c.547 3.528-.433 6.965-2.757 9.675zm106.376-9.675 22.855-147.919c.913-5.912 5.917-10.202 11.899-10.202h110.873c5.982 0 10.986 4.291 11.899 10.202l22.855 147.919c.545 3.528-.434 6.965-2.758 9.675-2.324 2.711-5.57 4.204-9.141 4.204h-156.583c-3.571 0-6.817-1.493-9.141-4.204-2.324-2.71-3.304-6.147-2.758-9.675zm-3.809 189.879v-28h188v28z"/><path id="XMLID_1435_" d="m269.667 216.634h-27.079c-5.523 0-10 4.477-10 10s4.477 10 10 10h27.079c5.523 0 10-4.477 10-10s-4.478-10-10-10z"/><path id="XMLID_1438_" d="m114 444c-2.63 0-5.21 1.069-7.07 2.93-1.86 1.86-2.93 4.44-2.93 7.07s1.07 5.21 2.93 7.069c1.86 1.86 4.44 2.931 7.07 2.931s5.21-1.07 7.07-2.931c1.86-1.859 2.93-4.439 2.93-7.069s-1.07-5.21-2.93-7.07-4.44-2.93-7.07-2.93z"/></g></g></symbol><symbol id="sport" viewBox="0 0 512 512"><g><g><path d="m317.93 48.892c-3.076-2.771-7.818-2.524-10.593.553-2.771 3.078-2.523 7.82.554 10.592 6.511 5.864 12.521 12.181 18.023 18.867l-21.747 66.92-43.861 16.032-62.306-45.267v-48.106l56.844-41.288c9.905 3.9 19.475 8.695 28.575 14.387 3.511 2.197 8.14 1.13 10.335-2.382 2.196-3.512 1.13-8.14-2.382-10.336-30.192-18.883-65.073-28.864-100.872-28.864-33.135 0-65.759 8.63-94.344 24.958-27.684 15.813-51.171 38.532-67.92 65.703-2.173 3.526-1.077 8.146 2.449 10.32 1.227.756 2.586 1.117 3.929 1.117 2.516 0 4.974-1.266 6.392-3.565 1.009-1.637 2.048-3.254 3.109-4.855l17.897 55.072-46.839 34.02c.845-19.584 4.899-38.671 12.094-56.841 1.525-3.852-.36-8.209-4.211-9.735-3.85-1.523-8.21.36-9.734 4.212-8.841 22.319-13.322 45.902-13.322 70.094 0 105.042 85.458 190.5 190.5 190.5s190.5-85.458 190.5-190.5c0-53.894-22.988-105.508-63.07-141.608zm20.525 235.905-70.426-.186-26.767-35.083 23.87-73.465 43.861-16.032 56.67 41.16c-1.848 30.633-11.582 59.174-27.208 83.606zm-1.589-191.062c17.396 26.344 27.532 57.112 28.948 89.026l-46.826-34.011zm-109.4 149.715h-73.932l-22.847-70.314 59.813-43.456 59.812 43.456zm9.891-222.093-46.857 34.035-46.846-34.027c15.181-4.19 30.946-6.365 46.846-6.365 15.951 0 31.698 2.17 46.857 6.357zm-182.272 57.544c13.543-16.41 30.001-30.346 48.51-40.919 7.259-4.146 14.81-7.733 22.567-10.783l56.838 41.284v48.106l-62.305 45.268-43.861-16.032zm16.92 81.129 43.861 16.032 23.87 73.465-26.915 35.278h-70.271c-15.629-24.434-25.364-52.978-27.215-83.615zm-18.704 139.775h57.783l17.892 55.055c-29.957-11.25-56.044-30.465-75.675-55.055zm196.01 56.047 4.563-14.04c1.28-3.939-.875-8.17-4.814-9.451-3.938-1.281-8.17.875-9.451 4.815l-7.765 23.892c-13.264 3.215-27.106 4.932-41.344 4.932-15.169 0-29.893-1.936-43.942-5.571l-21.677-66.701 26.915-35.278h77.407l25.239 33.08-4.911 15.112c-1.28 3.939.876 8.17 4.815 9.451.77.25 1.551.369 2.319.369 3.161 0 6.101-2.015 7.131-5.184l3.792-11.669 60.14.159c-20.224 25.348-47.308 44.986-78.417 56.084z"/><path d="m144.761 388.03c-2.93-2.929-7.678-2.929-10.607 0s-2.929 7.678 0 10.606l66.903 66.903c1.465 1.464 3.385 2.197 5.304 2.197s3.839-.732 5.304-2.197c2.929-2.929 2.929-7.678 0-10.606z"/><path d="m247.658 389.329c-2.93-2.929-7.678-2.929-10.607 0s-2.929 7.678 0 10.606l65.006 65.005c1.465 1.464 3.385 2.197 5.304 2.197s3.839-.732 5.304-2.197c2.929-2.929 2.929-7.678 0-10.606z"/><path d="m476.486 330.795c1.919 0 3.839-.732 5.304-2.197 2.929-2.929 2.929-7.678 0-10.606l-65.006-65.006c-2.93-2.929-7.678-2.929-10.607 0s-2.929 7.678 0 10.606l65.006 65.006c1.464 1.465 3.384 2.197 5.303 2.197z"/><path d="m480.147 233.773c1.465 1.465 3.384 2.197 5.304 2.197 1.919 0 3.839-.732 5.304-2.197 2.929-2.929 2.929-7.678 0-10.606l-82.935-82.936c-2.929-2.929-7.677-2.93-10.607 0-2.929 2.929-2.929 7.678 0 10.606z"/><path d="m474.382 411.581c1.465 1.465 3.384 2.197 5.304 2.197 1.919 0 3.839-.732 5.304-2.197 2.929-2.929 2.929-7.678 0-10.606l-39.642-39.642c-2.929-2.929-7.677-2.93-10.607 0-2.929 2.929-2.929 7.678 0 10.606z"/><path d="m347.874 414.875c-2.93-2.929-7.678-2.929-10.607 0s-2.929 7.678 0 10.606l39.643 39.643c1.465 1.464 3.385 2.197 5.304 2.197s3.839-.732 5.304-2.197c2.929-2.929 2.929-7.678 0-10.606z"/><path d="m509.803 499.197-154.73-154.731c-2.929-2.929-7.677-2.929-10.607 0-2.929 2.929-2.929 7.678 0 10.606l154.73 154.731c1.465 1.464 3.384 2.197 5.304 2.197 1.919 0 3.839-.732 5.304-2.197 2.928-2.928 2.928-7.678-.001-10.606z"/></g></g></symbol><symbol id="swim" viewBox="0 0 512 512"><g><path d="m19.105 365.835c194.577-55.312 265.697 56.463 481.68.085 8.016-2.092 12.817-10.287 10.725-18.302s-10.287-12.816-18.302-10.725c-42.403 11.069-79.157 15.166-112.44 15.21l-43.487-70.09c25.706 31.941 73.481 33.782 101.473 4.016 12.307-13.086 18.781-30.182 18.231-48.138-1.846-60.194-75.597-87.203-116.214-44.014-19.566 20.806-23.115 50.389-12.099 74.259l-59.504-95.904 88.302-25.481c27.423-7.913 40.383-39.303 26.45-64.27-10.117-18.128-31.115-26.77-51.059-21.014l-133.683 38.577c-34.661 10.003-50.183 50.295-31.151 80.971l40.406 65.123c-29.127 18.08-121.51 75.368-122.491 76.048-23.189 2.451-48.023 7.112-75.038 14.792-7.968 2.265-12.592 10.561-10.327 18.53 2.264 7.97 10.563 12.592 18.528 10.327zm343.519-151.404c14.12-15.014 37.69-15.695 52.661-1.616 14.998 14.105 15.723 37.661 1.616 52.662-14.103 14.996-37.661 15.723-52.661 1.616-14.999-14.106-15.723-37.662-1.616-52.662zm-120.793 28.638-48.313-77.869c-8.533-13.753-1.586-31.84 13.976-36.331l133.683-38.577c6.467-1.868 13.267.935 16.546 6.809 4.524 8.107.296 18.267-8.571 20.826l-107.331 30.973c-9.553 2.757-13.82 13.887-8.587 22.32l111.286 179.362c-69.987-5.875-126.854-26.983-198.86-30.189l91.334-56.671c7.039-4.367 9.205-13.614 4.837-20.653z"/><path d="m493.208 406.893c-206.643 53.942-279.154-57.666-482.306.085-7.968 2.265-12.592 10.561-10.327 18.53s10.564 12.593 18.53 10.327c194.577-55.312 265.697 56.463 481.68.085 8.016-2.092 12.817-10.287 10.725-18.302-2.092-8.016-10.287-12.816-18.302-10.725z"/></g></symbol><symbol id="transport" viewBox="0 0 512 512"><g><path d="m403.594 220.649c2.665 3.228 7.432 3.658 10.627 1.015l16.014-13.219c2.09.927 4.398 1.452 6.832 1.452 9.323 0 16.88-7.558 16.88-16.88 0-6.606-3.803-12.31-9.332-15.083v-14.134c0-4.169-3.379-7.549-7.549-7.549-4.169 0-7.549 3.38-7.549 7.549v14.134c-5.528 2.773-9.332 8.477-9.332 15.083 0 1.302.162 2.565.441 3.782l-16.017 13.222c-3.214 2.655-3.669 7.413-1.015 10.628z"/><path d="m498.412 435.846h-10.771v-18.61c0-7.492-6.095-13.588-13.588-13.588h-4.389v-17.151c0-7.492-6.095-13.588-13.588-13.588h-11.464v-105.338c37.79-3.797 67.388-35.783 67.388-74.554 0-4.26-.362-8.535-1.074-12.707-.702-4.109-4.607-6.873-8.711-6.17-4.109.702-6.872 4.602-6.17 8.712.569 3.335.858 6.755.858 10.165 0 32.994-26.843 59.837-59.837 59.837s-59.837-26.843-59.837-59.837 26.843-59.837 59.837-59.837c16.677 0 32.158 6.693 43.59 18.845 2.858 3.037 7.636 3.182 10.67.325 3.037-2.856 3.183-7.634.326-10.67-14.108-14.997-34.005-23.597-54.587-23.597-41.319 0-74.934 33.615-74.934 74.934 0 38.771 29.598 70.757 67.385 74.555v105.338h-11.464c-7.493 0-13.588 6.095-13.588 13.588v17.151h-4.389c-7.493 0-13.588 6.095-13.588 13.588v18.61h-27.165c5.939-9.344 9.198-20.287 9.198-31.511 0-11.804-3.506-23.205-10.14-32.97l-55.056-81.049c-13.487-19.854-30.421-36.602-49.694-49.7v-189.452c0-18.037-14.674-32.711-32.711-32.711h-207.331c-7.493.001-13.588 6.096-13.588 13.588v77.486c0 4.169 3.38 7.549 7.549 7.549s7.549-3.38 7.549-7.549v-5.631c63.349 5.303 117.442 45.632 140.72 104.501-2.488-.099-4.981-.167-7.484-.167h-133.237v-61.368c0-4.169-3.38-7.549-7.549-7.549s-7.548 3.38-7.548 7.549v333.095c0 7.492 6.095 13.588 13.588 13.588h377.465c4.169 0 7.549-3.38 7.549-7.549s-3.379-7.549-7.549-7.549h-375.956v-27.505h481.805v27.505h-69.125c-4.169 0-7.549 3.38-7.549 7.549s3.379 7.549 7.549 7.549h70.635c7.493 0 13.588-6.095 13.588-13.588v-30.525c0-7.492-6.095-13.587-13.588-13.587zm-78.848-47.839h35.005v15.641h-35.005zm-17.977 30.739h70.957v17.1h-70.957zm-64.038-51.185h-34.9c-7.175 0-13.912-3.512-18.02-9.394l-35.992-51.527c-2.055-2.942-.992-5.726-.439-6.787.553-1.06 2.226-3.527 5.815-3.527h35.091c.58.824 48.445 71.235 48.445 71.235zm-225.453-241.407c-28.133-21.786-61.608-34.683-96.999-37.408v-55.194h205.826c9.712 0 17.613 7.901 17.613 17.613v180.205c-20.337-11.17-42.729-18.557-66.117-21.579-11.596-33.125-32.402-62.015-60.323-83.637zm55.056 170.173c5.272 0 9.562 4.289 9.562 9.562v52.111c0 5.272-4.289 9.562-9.562 9.562h-66.717v-71.235zm-81.815 71.235h-70.24v-71.235h70.24zm-70.24 15.097h152.054c13.597 0 24.659-11.062 24.659-24.659v-52.112c0-13.597-11.062-24.659-24.659-24.659h-152.054v-57.902h133.236c49.643 0 96.365 21.312 128.824 57.902h-23.144c-8.101 0-15.458 4.462-19.203 11.645-3.744 7.183-3.189 15.771 1.45 22.411l35.992 51.527c6.93 9.922 18.294 15.846 30.397 15.846h45.004c3.786 6.591 5.773 14.019 5.773 21.676 0 11.872-4.916 23.315-13.494 31.511h-324.835z"/></g></symbol><symbol id="viewpoint" viewBox="0 0 64 64"><g><path d="m56.802 29h2.198c2.206 0 4-1.794 4-4 0-1.862-1.284-3.417-3.01-3.861.001-.046.01-.093.01-.139 0-3.924-2.842-7.19-6.574-7.865-4.51-7.494-12.668-12.135-21.426-12.135-11.551 0-21.702 8.086-24.327 19.281-2.206 1.426-3.673 3.902-3.673 6.719 0 .046.009.093.01.139-1.726.444-3.01 1.999-3.01 3.861 0 2.206 1.794 4 4 4h3.696c.83 2.15 1.934 4.162 3.317 6h-11.013v2h62v-2h-11.001c2.648-3.514 4.28-7.613 4.803-12zm1.198-8c0 .048-.009.097-.01.145-1.715.451-2.99 2.001-2.99 3.855h2c0-1.103.897-2 2-2s2 .897 2 2-.897 2-2 2h-20c-1.103 0-2-.897-2-2s.897-2 2-2 2 .897 2 2h2c0-1.383-.706-2.603-1.776-3.322.549-1.586 2.04-2.678 3.776-2.678.133 0 .261.021.39.039l.86.114.309-.667c.98-2.118 3.116-3.486 5.441-3.486 3.309 0 6 2.691 6 6zm-53 12c-1.103 0-2-.897-2-2s.897-2 2-2 2 .897 2 2h2c0-1.854-1.275-3.404-2.99-3.855-.001-.048-.01-.097-.01-.145 0-3.309 2.691-6 6-6 2.325 0 4.461 1.368 5.441 3.486l.309.667.862-.114c.128-.018.255-.039.388-.039 1.736 0 3.227 1.092 3.776 2.678-1.07.719-1.776 1.939-1.776 3.322h2c0-1.103.897-2 2-2s2 .897 2 2-.897 2-2 2zm9.586 8c-1.56-1.808-2.805-3.821-3.732-6h14.146c2.206 0 4-1.794 4-4s-1.794-4-4-4c-.114 0-.221.024-.332.034-.82-2.388-3.059-4.034-5.668-4.034-.026 0-.053 0-.079.001-1.419-2.452-4.063-4.001-6.921-4.001-.689 0-1.355.097-1.993.262 2.922-9.528 11.879-16.262 21.993-16.262 7.622 0 14.752 3.819 19.014 10.066-2.47.311-4.681 1.768-5.935 3.935-.026-.001-.053-.001-.079-.001-2.609 0-4.848 1.646-5.668 4.034-.111-.01-.218-.034-.332-.034-2.206 0-4 1.794-4 4s1.794 4 4 4h15.788c-.578 4.456-2.415 8.576-5.369 12z"/><path d="m19.433 11.75c3.47-3.063 7.934-4.75 12.567-4.75v-2c-5.121 0-10.054 1.864-13.891 5.25z"/><path d="m14.459 14.449 1.67 1.101c.434-.658.916-1.297 1.432-1.9l-1.52-1.301c-.57.667-1.102 1.373-1.582 2.1z"/><path d="m50.402 30.751c-.135.524-.343 1.104-.619 1.725l1.828.813c.32-.722.565-1.408.728-2.039z"/><path d="m47.906 35.817 1.669 1.103c.398-.603.763-1.195 1.084-1.762l-1.739-.988c-.299.528-.641 1.082-1.014 1.647z"/><path d="m45.585 38.941 1.54 1.276c.407-.492.837-1.036 1.268-1.615l-1.604-1.193c-.41.549-.817 1.066-1.204 1.532z"/><path d="m5 45h54v2h-54z"/><path d="m9 49h46v2h-46z"/><path d="m13 53h38v2h-38z"/><path d="m17 57h30v2h-30z"/><path d="m21 61h22v2h-22z"/></g></symbol><symbol id="water" viewBox="0 0 294.465 294.465">
<g>
	<g>
		<path d="M174.432,32.465c-6.8-10-12.8-19.2-18.4-27.6c-0.8-1.2-2-2.4-3.2-3.2c-4.8-3.2-11.2-1.6-14.4,3.2
			c-5.2,8.4-11.2,17.2-18.4,27.6c-31.6,46.4-78.8,116.4-78.8,156.4c0,29.2,12,55.6,31.2,74.8c19.2,18.8,45.6,30.8,74.8,30.8
			s55.6-12,74.8-31.2c19.2-19.2,31.2-45.6,31.2-74.8C253.232,148.465,206.032,78.865,174.432,32.465z M207.632,248.865
			c-15.6,15.6-36.8,24.8-60.4,24.8c-23.6,0-44.8-9.6-60.4-24.8c-15.6-15.6-24.8-36.8-24.8-60.4c0-33.6,45.2-100.4,75.2-144.8
			c3.6-5.2,6.8-10.4,10-14.8c3.2,4.4,6.4,9.6,10,14.8c30,44.8,75.2,111.2,75.2,144.8
			C232.432,212.065,222.832,233.265,207.632,248.865z"/>
	</g>
</g>
<g>
	<g>
		<path d="M209.232,181.265c-5.6-0.4-10.4,4-10.8,9.6c-0.4,8.8-3.2,17.2-7.6,24.4c-4.4,7.2-10.8,13.6-18.4,17.6
			c-4.8,2.8-6.8,9.2-4,14c3.2,5.6,9.6,7.2,14.4,4.4c10.8-6,19.6-14.8,25.6-24.8c6.4-10,10-22,10.4-34.4
			C219.232,186.465,214.832,181.665,209.232,181.265z"/>
	</g>
</g>
<g>
</g>
<g>
</g>
<g>
</g>
<g>
</g>
<g>
</g>
<g>
</g>
<g>
</g>
<g>
</g>
<g>
</g>
<g>
</g>
<g>
</g>
<g>
</g>
<g>
</g>
<g>
</g>
<g>
</g>
</symbol></svg>
