<?xml version="1.0" encoding="UTF-8"?><!DOCTYPE svg PUBLIC "-//W3C//DTD SVG 1.1//EN" "http://www.w3.org/Graphics/SVG/1.1/DTD/svg11.dtd"><svg xmlns="http://www.w3.org/2000/svg" xmlns:xlink="http://www.w3.org/1999/xlink"><defs/><symbol id="_sprite"/><symbol id="click-location" viewBox="0 0 511.998 511.998">
<g transform="translate(0 -1)">
	<g>
		<g>
			<path d="M167.974,351.473c21.086,29.73,42.138,56.32,56.09,73.446c2.031,2.492,3.934,4.804,5.777,7.031h-42.103
				c-4.713,0-8.533,3.82-8.533,8.533s3.82,8.533,8.533,8.533H324.27c4.713,0,8.533-3.82,8.533-8.533s-3.82-8.533-8.533-8.533
				h-42.103c1.843-2.227,3.746-4.54,5.786-7.031c13.943-17.067,34.987-43.716,56.081-73.446
				c20.929-28.905,39.767-59.267,56.371-90.854c17.425-34.219,26.266-62.626,26.266-84.437
				c0.058-45.321-17.926-88.801-49.98-120.841c-2.141-2.22-5.313-3.112-8.297-2.333c-2.984,0.779-5.316,3.107-6.099,6.09
				c-0.783,2.983,0.104,6.156,2.321,8.3c28.852,28.844,45.039,67.985,44.988,108.783c0,19.098-8.209,44.902-24.405,76.689
				c-16.229,30.855-34.64,60.513-55.091,88.747c-20.804,29.346-41.6,55.637-55.381,72.533c-4.582,5.615-8.704,10.581-12.22,14.78
				c-1.641,1.874-4.011,2.948-6.502,2.948c-2.491,0-4.861-1.075-6.502-2.948c-3.516-4.198-7.637-9.165-12.22-14.78
				c-13.781-16.887-34.577-43.179-55.381-72.533c-20.451-28.234-38.862-57.892-55.091-88.747
				c-16.213-31.787-24.405-57.591-24.405-76.689c-0.005-61.809,36.959-117.627,93.867-141.747
				c38.238-16.034,81.314-16.034,119.552,0c2.808,1.19,6.037,0.793,8.472-1.044c2.435-1.836,3.705-4.832,3.332-7.859
				c-0.373-3.027-2.332-5.625-5.14-6.815c-86.898-36.652-187.056,4.062-223.735,90.948c-8.895,21.046-13.457,43.669-13.414,66.517
				c0,21.811,8.841,50.219,26.266,84.48C128.208,292.234,147.047,322.582,167.974,351.473z"/>
			<path d="M256.003,99.151c4.713,0,8.533-3.82,8.533-8.533s-3.82-8.533-8.533-8.533c-40.71-0.001-75.752,28.757-83.695,68.685
				c-7.943,39.928,13.426,79.906,51.037,95.486c37.611,15.58,80.99,2.421,103.608-31.428
				c22.618-33.849,18.175-78.962-10.611-107.749c-2.143-2.218-5.315-3.108-8.299-2.327c-2.983,0.781-5.313,3.111-6.094,6.094
				c-0.781,2.984,0.109,6.156,2.327,8.299c23.03,23.029,26.585,59.118,8.492,86.198c-18.093,27.08-52.796,37.608-82.885,25.146
				c-30.089-12.462-47.185-44.444-40.833-76.387S223.435,99.152,256.003,99.151z"/>
			<path d="M508.786,470.957l-52.48-93.867c-4.745-8.34-13.624-13.466-23.219-13.406H372.27c-4.713,0-8.533,3.82-8.533,8.533
				s3.82,8.533,8.533,8.533h60.817c3.416-0.066,6.603,1.715,8.337,4.659l52.463,93.867c1.429,2.442,1.399,5.471-0.077,7.885
				c-1.743,2.88-4.895,4.605-8.26,4.523H26.457c-3.362,0.08-6.51-1.646-8.252-4.523c-1.476-2.414-1.505-5.443-0.077-7.885
				l52.463-93.867c1.731-2.943,4.915-4.724,8.328-4.659h60.817c4.713,0,8.533-3.82,8.533-8.533s-3.82-8.533-8.533-8.533H78.92
				c-9.6-0.063-18.486,5.063-23.236,13.406L3.212,470.957c-4.375,7.728-4.274,17.208,0.265,24.841
				c4.782,8.128,13.551,13.071,22.98,12.954H485.55c9.426,0.114,18.192-4.828,22.972-12.954
				C513.061,488.164,513.162,478.685,508.786,470.957z"/>
			<path d="M418.137,406.351h-34.133c-1.685,0.003-3.332,0.501-4.736,1.434l-25.6,17.067c-3.921,2.616-4.979,7.915-2.364,11.836
				c2.616,3.921,7.915,4.979,11.836,2.364l23.424-15.633h31.573c4.713,0,8.533-3.821,8.533-8.533
				C426.67,410.171,422.85,406.351,418.137,406.351z"/>
			<path d="M366.937,466.084c0,4.713,3.82,8.533,8.533,8.533h68.267c4.713,0,8.533-3.82,8.533-8.533s-3.82-8.533-8.533-8.533H375.47
				C370.757,457.551,366.937,461.371,366.937,466.084z"/>
			<path d="M153.603,440.484c3.762,0.005,7.083-2.455,8.176-6.055c1.093-3.6-0.301-7.491-3.431-9.578l-25.6-17.067
				c-1.406-0.934-3.057-1.433-4.745-1.434H93.87c-4.713,0-8.533,3.821-8.533,8.533c0,4.713,3.821,8.533,8.533,8.533h31.573
				l23.45,15.633C150.288,439.981,151.927,440.48,153.603,440.484z"/>
			<path d="M68.27,457.551c-4.713,0-8.533,3.82-8.533,8.533s3.82,8.533,8.533,8.533h68.267c4.713,0,8.533-3.82,8.533-8.533
				s-3.82-8.533-8.533-8.533H68.27z"/>
		</g>
	</g>
</g>
<g>
</g>
<g>
</g>
<g>
</g>
<g>
</g>
<g>
</g>
<g>
</g>
<g>
</g>
<g>
</g>
<g>
</g>
<g>
</g>
<g>
</g>
<g>
</g>
<g>
</g>
<g>
</g>
<g>
</g>
</symbol><symbol id="close" viewBox="0 0 492 492">
<g>
	<g>
		<path d="M300.188,246L484.14,62.04c5.06-5.064,7.852-11.82,7.86-19.024c0-7.208-2.792-13.972-7.86-19.028L468.02,7.872
			c-5.068-5.076-11.824-7.856-19.036-7.856c-7.2,0-13.956,2.78-19.024,7.856L246.008,191.82L62.048,7.872
			c-5.06-5.076-11.82-7.856-19.028-7.856c-7.2,0-13.96,2.78-19.02,7.856L7.872,23.988c-10.496,10.496-10.496,27.568,0,38.052
			L191.828,246L7.872,429.952c-5.064,5.072-7.852,11.828-7.852,19.032c0,7.204,2.788,13.96,7.852,19.028l16.124,16.116
			c5.06,5.072,11.824,7.856,19.02,7.856c7.208,0,13.968-2.784,19.028-7.856l183.96-183.952l183.952,183.952
			c5.068,5.072,11.824,7.856,19.024,7.856h0.008c7.204,0,13.96-2.784,19.028-7.856l16.12-16.116
			c5.06-5.064,7.852-11.824,7.852-19.028c0-7.204-2.792-13.96-7.852-19.028L300.188,246z"/>
	</g>
</g>
<g>
</g>
<g>
</g>
<g>
</g>
<g>
</g>
<g>
</g>
<g>
</g>
<g>
</g>
<g>
</g>
<g>
</g>
<g>
</g>
<g>
</g>
<g>
</g>
<g>
</g>
<g>
</g>
<g>
</g>
</symbol><symbol id="confirm" viewBox="0 -46 417.81333 417"><path d="m159.988281 318.582031c-3.988281 4.011719-9.429687 6.25-15.082031 6.25s-11.09375-2.238281-15.082031-6.25l-120.449219-120.46875c-12.5-12.5-12.5-32.769531 0-45.246093l15.082031-15.085938c12.503907-12.5 32.75-12.5 45.25 0l75.199219 75.203125 203.199219-203.203125c12.503906-12.5 32.769531-12.5 45.25 0l15.082031 15.085938c12.5 12.5 12.5 32.765624 0 45.246093zm0 0"/></symbol><symbol id="duplicate" viewBox="0 0 55.699 55.699">
<g>
	<path style="fill:#010002;" d="M51.51,18.001c-0.006-0.085-0.022-0.167-0.05-0.248c-0.012-0.034-0.02-0.067-0.035-0.1
		c-0.049-0.106-0.109-0.206-0.194-0.291v-0.001l0,0c0,0-0.001-0.001-0.001-0.002L34.161,0.293c-0.086-0.087-0.188-0.148-0.295-0.197
		c-0.027-0.013-0.057-0.02-0.086-0.03c-0.086-0.029-0.174-0.048-0.265-0.053C33.494,0.011,33.475,0,33.453,0H22.177
		c-3.678,0-6.669,2.992-6.669,6.67v1.674h-4.663c-3.678,0-6.67,2.992-6.67,6.67V49.03c0,3.678,2.992,6.669,6.67,6.669h22.677
		c3.677,0,6.669-2.991,6.669-6.669v-1.675h4.664c3.678,0,6.669-2.991,6.669-6.669V18.069C51.524,18.045,51.512,18.025,51.51,18.001z
		 M34.454,3.414l13.655,13.655h-8.985c-2.575,0-4.67-2.095-4.67-4.67V3.414z M38.191,49.029c0,2.574-2.095,4.669-4.669,4.669H10.845
		c-2.575,0-4.67-2.095-4.67-4.669V15.014c0-2.575,2.095-4.67,4.67-4.67h5.663h4.614v10.399c0,3.678,2.991,6.669,6.668,6.669h10.4
		v18.942L38.191,49.029L38.191,49.029z M36.777,25.412h-8.986c-2.574,0-4.668-2.094-4.668-4.669v-8.985L36.777,25.412z
		 M44.855,45.355h-4.664V26.412c0-0.023-0.012-0.044-0.014-0.067c-0.006-0.085-0.021-0.167-0.049-0.249
		c-0.012-0.033-0.021-0.066-0.036-0.1c-0.048-0.105-0.109-0.205-0.194-0.29l0,0l0,0c0-0.001-0.001-0.002-0.001-0.002L22.829,8.637
		c-0.087-0.086-0.188-0.147-0.295-0.196c-0.029-0.013-0.058-0.021-0.088-0.031c-0.086-0.03-0.172-0.048-0.263-0.053
		c-0.021-0.002-0.04-0.013-0.062-0.013h-4.614V6.67c0-2.575,2.095-4.67,4.669-4.67h10.277v10.4c0,3.678,2.992,6.67,6.67,6.67h10.399
		v21.616C49.524,43.26,47.429,45.355,44.855,45.355z"/>
</g>
<g>
</g>
<g>
</g>
<g>
</g>
<g>
</g>
<g>
</g>
<g>
</g>
<g>
</g>
<g>
</g>
<g>
</g>
<g>
</g>
<g>
</g>
<g>
</g>
<g>
</g>
<g>
</g>
<g>
</g>
</symbol><symbol id="earth" viewBox="-2 0 402 402.77333"><path d="m317.273438 204.800781c0 67.863281-55.015626 122.878907-122.878907 122.878907s-122.878906-55.015626-122.878906-122.878907c0-67.867187 55.015625-122.878906 122.878906-122.878906s122.878907 55.011719 122.878907 122.878906zm0 0" fill="#94c1ff" fill-rule="evenodd"/><path d="m194.394531 334.507812c-71.519531 0-129.707031-58.1875-129.707031-129.707031s58.1875-129.707031 129.707031-129.707031 129.707031 58.1875 129.707031 129.707031-58.1875 129.707031-129.707031 129.707031zm0-245.761718c-63.992187 0-116.054687 52.0625-116.054687 116.054687 0 63.992188 52.0625 116.050781 116.054687 116.050781 63.992188 0 116.054688-52.058593 116.054688-116.050781 0-63.992187-52.0625-116.054687-116.054688-116.054687zm0 0" fill="#0e65e5"/><path d="m163.898438 121.027344c-2.851563 0-5.511719-1.800782-6.46875-4.65625-1.203126-3.574219.71875-7.441406 4.292968-8.644532 17.445313-5.867187 36.605469-6.894531 54.613282-2.96875 3.683593.804688 6.015624 4.441407 5.214843 8.125-.808593 3.683594-4.464843 6.011719-8.128906 5.214844-15.59375-3.402344-32.230469-2.515625-47.347656 2.570313-.71875.242187-1.457031.359375-2.175781.359375zm0 0" fill="#fff"/><path d="m76.390625 170.542969c10.582031 2.242187 20.5 5.679687 23.121094 10.925781 6.222656 12.441406 18.667969 12.441406 31.109375 0 12.445312-12.445312 31.109375-24.886719 12.445312-43.554688-9.316406-9.3125-12.378906-24.683593-13.109375-37.742187-25.636719 15.820313-44.996093 40.796875-53.566406 70.371094zm0 0" fill="#d7e9ff" fill-rule="evenodd"/><path d="m112.695312 197.625c-1.089843 0-2.167968-.085938-3.230468-.257812-6.765625-1.097657-12.46875-5.660157-16.0625-12.847657-.015625-.035156-2.089844-3.839843-18.425782-7.292969-1.855468-.394531-3.464843-1.542968-4.445312-3.171874-.972656-1.625-1.230469-3.585938-.699219-5.410157 8.964844-30.929687 29.046875-57.3125 56.539063-74.28125 2.046875-1.269531 4.609375-1.355469 6.746094-.242187 2.132812 1.109375 3.523437 3.269531 3.65625 5.671875.597656 10.714843 3.015624 25.191406 11.117187 33.300781 6.671875 6.667969 10 13.605469 9.894531 20.617188-.175781 11.632812-9.457031 20.371093-17.648437 28.085937-1.601563 1.507813-3.191407 3.003906-4.6875 4.5-7.390625 7.390625-15.355469 11.328125-22.753907 11.328125zm-27.550781-31.972656c11.144531 3.140625 17.722657 7.265625 20.472657 12.761718 1.621093 3.25 3.652343 5.089844 6.03125 5.476563 3.746093.625 8.925781-2.03125 14.144531-7.25 1.589843-1.589844 3.28125-3.183594 4.984375-4.789063 6.523437-6.144531 13.269531-12.492187 13.355468-18.347656.046876-3.179687-1.9375-6.800781-5.894531-10.761718-7.015625-7.015626-11.652343-17.246094-13.839843-30.503907-18.027344 13.628907-31.648438 32.144531-39.253907 53.414063zm0 0" fill="#0e65e5"/><path d="m161.730469 299.683594s12.441406-37.332032 0-43.554688c-12.445313-6.222656-24.886719 0-31.109375-18.664062-6.222656-18.667969 0-24.886719 18.664062-31.109375 18.664063-6.222657 43.550782 0 49.773438 24.886719 6.222656 24.886718-6.222656 37.328124-12.441406 62.21875-4.527344 18.109374-24.886719 6.222656-24.886719 6.222656zm0 0" fill="#d7e9ff" fill-rule="evenodd"/><path d="m174.808594 310.328125c-8.078125 0-15.472656-4.136719-16.519532-4.746094-2.789062-1.628906-4.054687-4.992187-3.035156-8.054687 5.582032-16.789063 6.5625-33.722656 3.421875-35.292969-3.140625-1.566406-6.476562-2.160156-10.007812-2.78125-8.476563-1.492187-19.03125-3.351563-24.523438-19.832031-2.582031-7.75-4.828125-17.730469.796875-26.164063 4.660156-6.988281 13.417969-10.652343 22.191406-13.578125 12.894532-4.300781 27.265626-3.203125 38.433594 2.925782 10.175782 5.582031 17.128906 14.84375 20.117188 26.78125 4.757812 19.03125-.289063 31.863281-5.632813 45.453124-2.421875 6.15625-4.925781 12.527344-6.808593 20.078126-2.128907 8.5-7.058594 12.171874-10.820313 13.757812-2.488281 1.050781-5.085937 1.453125-7.613281 1.453125zm-13.078125-10.644531h.066406zm8.316406-3.832032c2.59375.796876 5.347656 1.175782 7.085937.4375.480469-.203124 1.949219-.832031 2.859376-4.484374 2.105468-8.40625 4.890624-15.5 7.351562-21.761719 5.101562-12.976563 8.789062-22.355469 5.09375-37.144531-2.066406-8.269532-6.589844-14.363282-13.441406-18.125-7.898438-4.335938-18.210938-5.0625-27.550782-1.941407-8.605468 2.867188-13.277343 5.398438-15.144531 8.199219-1.132812 1.699219-2.285156 5.027344.796875 14.273438 2.917969 8.761718 6.371094 9.371093 13.9375 10.703124 4.136719.726563 8.828125 1.554688 13.75 4.015626 13.976563 6.988281 9.105469 32.210937 5.261719 45.828124zm0 0" fill="#0e65e5"/><path d="m257.976562 99.632812c-18.570312 18.160157-38.753906 40.855469-27.808593 44.503907 18.667969 6.222656 31.109375 12.445312 31.109375 12.445312s-6.222656 18.664063-24.886719 18.664063-43.550781 0-43.550781 6.222656 37.328125 31.109375 37.328125 37.332031c0 6.21875 8.046875 32.929688 12.445312 37.328125 6.222657 6.222656 24.886719 12.445313 31.109375-12.441406s0-43.554688 12.441406-49.777344c6.957032-3.476562 15.855469-20.40625 22.351563-34.664062-9.960937-24.933594-27.828125-45.851563-50.539063-59.613282zm0 0" fill="#d7e9ff" fill-rule="evenodd"/><path d="m256.203125 268.519531c-7.414063 0-14.382813-3.527343-18.417969-7.5625-5.765625-5.769531-13.558594-31.925781-14.371094-40.828125-2.0625-2.902344-10.558593-9.984375-16.28125-14.753906-15.648437-13.035156-21.125-18.117188-21.125-23.910156 0-12.441406 18.203126-13.046875 50.382813-13.046875 7.882813 0 12.800781-4.667969 15.550781-8.621094-5.308594-2.328125-13.679687-5.769531-23.929687-9.1875-3.878907-1.292969-6.601563-4.183594-7.464844-7.933594-1.484375-6.453125 1.230469-17.199219 32.65625-47.925781 2.222656-2.179688 5.644531-2.570312 8.3125-.957031 23.992187 14.539062 42.9375 36.882812 53.34375 62.917969.6875 1.730468.640625 3.667968-.132813 5.367187-13.324218 29.238281-20.941406 35.65625-25.507812 37.941406-3.828125 1.90625-4.484375 6.636719-5.265625 18.660157-.480469 7.375-1.082031 16.558593-3.609375 26.664062-3.84375 15.390625-12.039062 20.667969-18.234375 22.382812-1.96875.550782-3.953125.792969-5.90625.792969zm-53.523437-85.0625c3.558593 3.402344 9.089843 8.007813 13.191406 11.433594 15.648437 13.035156 21.125 18.113281 21.125 23.910156 0 4.894531 7.402344 28.867188 10.523437 32.585938 1.917969 1.914062 6.796875 4.320312 10.941407 3.1875 4.882812-1.355469 7.390624-7.566407 8.636718-12.546875 2.230469-8.910156 2.757813-17.050782 3.230469-24.238282.816406-12.539062 1.589844-24.386718 12.78125-29.980468.625-.316406 6.289063-3.714844 17.957031-28.707032-8.816406-20.53125-23.609375-38.328124-42.164062-50.78125-18.328125 18.375-23.21875 26.824219-24.527344 30.03125 17.765625 6.0625 29.449219 11.871094 29.953125 12.125 3.039063 1.519532 4.5 5.042969 3.425781 8.261719-.316406.953125-8.042968 23.335938-31.363281 23.335938-8.835937 0-25.328125 0-33.710937 1.382812zm0 0" fill="#0e65e5"/><path d="m31.71875 398.792969c-9.5625 0-17.40625-2.601563-23.058594-8.261719-31.953125-31.949219 37.433594-126.996094 59.460938-155.367188 2.316406-2.980468 6.597656-3.515624 9.578125-1.207031 2.976562 2.3125 3.515625 6.601563 1.207031 9.578125-59.441406 76.558594-73.078125 124.859375-60.59375 137.34375 17.53125 17.546875 105.65625-19.746094 219.039062-133.117187 113.378907-113.378907 150.675782-201.480469 133.121094-219.042969-12.460937-12.445312-60.640625 1.113281-137.007812 60.332031-2.96875 2.3125-7.273438 1.777344-9.574219-1.210937-2.3125-2.980469-1.769531-7.265625 1.210937-9.574219 28.304688-21.949219 123.144532-91.070313 155.027344-59.199219 34.171875 34.171875-43.082031 148.304688-133.121094 238.347656-75.140624 75.136719-167.0625 141.378907-215.289062 141.378907zm0 0" fill="#0e65e5"/><path d="m357.066406 398.792969c-48.21875.007812-140.140625-66.234375-215.285156-141.378907-90.042969-90.042968-167.292969-204.175781-133.121094-238.347656 31.882813-31.890625 126.722656 37.246094 155.027344 59.199219 2.980469 2.308594 3.519531 6.59375 1.207031 9.574219-2.308593 2.988281-6.597656 3.523437-9.574219 1.210937-76.363281-59.21875-124.542968-72.777343-137.007812-60.332031-17.554688 17.5625 19.746094 105.664062 133.121094 219.042969 113.386718 113.378906 201.484375 150.660156 219.039062 133.117187 12.484375-12.480468-1.152344-60.785156-60.589844-137.34375-2.3125-2.976562-1.773437-7.265625 1.203126-9.578125 2.972656-2.3125 7.269531-1.773437 9.582031 1.207031 22.023437 28.371094 91.410156 123.417969 59.460937 155.367188-5.65625 5.65625-13.503906 8.257812-23.0625 8.261719zm0 0" fill="#0e65e5"/><path d="m392.367188 88.746094c0 15.082031-12.226563 27.308594-27.304688 27.308594-15.082031 0-27.308594-12.226563-27.308594-27.308594 0-15.082032 12.226563-27.304688 27.308594-27.304688 15.078125 0 27.304688 12.222656 27.304688 27.304688zm0 0" fill="#94c1ff" fill-rule="evenodd"/><path d="m365.0625 122.878906c-18.820312 0-34.136719-15.3125-34.136719-34.132812 0-18.820313 15.316407-34.132813 34.136719-34.132813 18.816406 0 34.132812 15.3125 34.132812 34.132813 0 18.820312-15.316406 34.132812-34.132812 34.132812zm0-54.613281c-11.292969 0-20.480469 9.1875-20.480469 20.480469 0 11.292968 9.1875 20.480468 20.480469 20.480468s20.476562-9.1875 20.476562-20.480468c0-11.292969-9.183593-20.480469-20.476562-20.480469zm0 0" fill="#0e65e5"/><path d="m160.261719 238.933594c0 15.082031-12.226563 27.304687-27.308594 27.304687-15.078125 0-27.304687-12.222656-27.304687-27.304687 0-15.082032 12.226562-27.308594 27.304687-27.308594 15.082031 0 27.308594 12.226562 27.308594 27.308594zm0 0" fill="#d7e9ff" fill-rule="evenodd"/><g fill="#0e65e5"><path d="m132.953125 273.066406c-18.816406 0-34.132813-15.3125-34.132813-34.132812 0-18.820313 15.316407-34.132813 34.132813-34.132813 18.820313 0 34.132813 15.3125 34.132813 34.132813 0 18.820312-15.3125 34.132812-34.132813 34.132812zm0-54.613281c-11.292969 0-20.480469 9.1875-20.480469 20.480469 0 11.292968 9.1875 20.480468 20.480469 20.480468s20.480469-9.1875 20.480469-20.480468c0-11.292969-9.1875-20.480469-20.480469-20.480469zm0 0"/><path d="m119.300781 40.960938c0 15.082031-12.226562 27.304687-27.304687 27.304687-15.082032 0-27.308594-12.222656-27.308594-27.304687 0-15.082032 12.226562-27.308594 27.308594-27.308594 15.078125 0 27.304687 12.226562 27.304687 27.308594zm0 0" fill-rule="evenodd"/><path d="m91.996094 75.09375c-18.820313 0-34.136719-15.3125-34.136719-34.132812 0-18.820313 15.316406-34.132813 34.136719-34.132813 18.816406 0 34.132812 15.3125 34.132812 34.132813 0 18.820312-15.316406 34.132812-34.132812 34.132812zm0-54.613281c-11.292969 0-20.480469 9.1875-20.480469 20.480469 0 11.292968 9.1875 20.480468 20.480469 20.480468 11.292968 0 20.476562-9.1875 20.476562-20.480468 0-11.292969-9.183594-20.480469-20.476562-20.480469zm0 0"/><path d="m324.101562 368.640625c0 15.082031-12.226562 27.304687-27.308593 27.304687-15.078125 0-27.304688-12.222656-27.304688-27.304687s12.226563-27.308594 27.304688-27.308594c15.082031 0 27.308593 12.226563 27.308593 27.308594zm0 0" fill-rule="evenodd"/><path d="m296.792969 402.773438c-18.816407 0-34.132813-15.3125-34.132813-34.132813s15.316406-34.132813 34.132813-34.132813c18.820312 0 34.132812 15.3125 34.132812 34.132813s-15.3125 34.132813-34.132812 34.132813zm0-54.613282c-11.292969 0-20.480469 9.1875-20.480469 20.480469s9.1875 20.480469 20.480469 20.480469 20.480469-9.1875 20.480469-20.480469-9.1875-20.480469-20.480469-20.480469zm0 0"/><path d="m228.527344 40.960938c-3.769532 0-6.828125-3.058594-6.828125-6.828126v-27.304687c0-3.773437 3.058593-6.828125 6.828125-6.828125 3.769531 0 6.828125 3.054688 6.828125 6.828125v27.304687c0 3.769532-3.058594 6.828126-6.828125 6.828126zm0 0"/><path d="m242.179688 27.308594h-27.304688c-3.769531 0-6.828125-3.058594-6.828125-6.828125s3.058594-6.828125 6.828125-6.828125h27.304688c3.769531 0 6.828124 3.058594 6.828124 6.828125s-3.058593 6.828125-6.828124 6.828125zm0 0"/><path d="m64.6875 361.8125c-3.769531 0-6.828125-3.054688-6.828125-6.824219v-27.308593c0-3.769532 3.058594-6.828126 6.828125-6.828126s6.828125 3.058594 6.828125 6.828126v27.308593c0 3.769531-3.058594 6.824219-6.828125 6.824219zm0 0"/><path d="m78.339844 348.160156h-27.304688c-3.769531 0-6.828125-3.058594-6.828125-6.828125s3.058594-6.824219 6.828125-6.824219h27.304688c3.769531 0 6.828125 3.054688 6.828125 6.824219s-3.058594 6.828125-6.828125 6.828125zm0 0"/></g></symbol><symbol id="ellipsis" viewBox="0 0 408 408">
<g>
	<g id="keyboard-control">
		<path d="M51,153c-28.05,0-51,22.95-51,51s22.95,51,51,51s51-22.95,51-51S79.05,153,51,153z M357,153c-28.05,0-51,22.95-51,51
			s22.95,51,51,51s51-22.95,51-51S385.05,153,357,153z M204,153c-28.05,0-51,22.95-51,51s22.95,51,51,51s51-22.95,51-51
			S232.05,153,204,153z"/>
	</g>
</g>
<g>
</g>
<g>
</g>
<g>
</g>
<g>
</g>
<g>
</g>
<g>
</g>
<g>
</g>
<g>
</g>
<g>
</g>
<g>
</g>
<g>
</g>
<g>
</g>
<g>
</g>
<g>
</g>
<g>
</g>
</symbol><symbol id="expand" viewBox="0 0 490.667 490.667">
<g>
	<g>
		<path d="M423.531,67.136c-4.16-4.16-10.923-4.16-15.083,0L259.115,216.469c-4.16,4.16-4.16,10.923,0,15.083
			c2.091,2.069,4.821,3.115,7.552,3.115c2.731,0,5.461-1.045,7.531-3.115L423.531,82.219
			C427.691,78.059,427.691,71.296,423.531,67.136z"/>
	</g>
</g>
<g>
	<g>
		<path d="M416,64c-5.888,0-10.667,4.779-10.667,10.667v128c0,5.888,4.779,10.667,10.667,10.667c5.888,0,10.667-4.779,10.667-10.667
			v-128C426.667,68.779,421.888,64,416,64z"/>
	</g>
</g>
<g>
	<g>
		<path d="M416,64H288c-5.888,0-10.667,4.779-10.667,10.667S282.112,85.333,288,85.333h128c5.888,0,10.667-4.779,10.667-10.667
			S421.888,64,416,64z"/>
	</g>
</g>
<g>
	<g>
		<path d="M231.531,259.136c-4.16-4.16-10.923-4.16-15.083,0L67.115,408.469c-4.16,4.16-4.16,10.923,0,15.083
			c2.091,2.069,4.821,3.115,7.552,3.115c2.731,0,5.461-1.045,7.531-3.115l149.333-149.333
			C235.691,270.059,235.691,263.296,231.531,259.136z"/>
	</g>
</g>
<g>
	<g>
		<path d="M74.667,277.333C68.779,277.333,64,282.112,64,288v128c0,5.888,4.779,10.667,10.667,10.667S85.333,421.888,85.333,416V288
			C85.333,282.112,80.555,277.333,74.667,277.333z"/>
	</g>
</g>
<g>
	<g>
		<path d="M202.667,405.333h-128C68.779,405.333,64,410.112,64,416c0,5.888,4.779,10.667,10.667,10.667h128
			c5.888,0,10.667-4.779,10.667-10.667C213.333,410.112,208.555,405.333,202.667,405.333z"/>
	</g>
</g>
<g>
	<g>
		<path d="M458.667,0H32C14.357,0,0,14.357,0,32v426.667c0,17.643,14.357,32,32,32h426.667c17.643,0,32-14.357,32-32V32
			C490.667,14.357,476.309,0,458.667,0z M469.333,458.667c0,5.867-4.8,10.667-10.667,10.667H32c-5.867,0-10.667-4.8-10.667-10.667
			V32c0-5.867,4.8-10.667,10.667-10.667h426.667c5.867,0,10.667,4.8,10.667,10.667V458.667z"/>
	</g>
</g>
<g>
</g>
<g>
</g>
<g>
</g>
<g>
</g>
<g>
</g>
<g>
</g>
<g>
</g>
<g>
</g>
<g>
</g>
<g>
</g>
<g>
</g>
<g>
</g>
<g>
</g>
<g>
</g>
<g>
</g>
</symbol><symbol id="home" viewBox="0 0 512.001 512.001">
<g>
	<g>
		<path d="M503.402,228.885L273.684,19.567c-10.083-9.189-25.288-9.188-35.367-0.001L8.598,228.886
			c-8.077,7.36-10.745,18.7-6.799,28.889c3.947,10.189,13.557,16.772,24.484,16.772h36.69v209.721
			c0,8.315,6.742,15.057,15.057,15.057h125.914c8.315,0,15.057-6.741,15.057-15.057V356.932h74.002v127.337
			c0,8.315,6.742,15.057,15.057,15.057h125.908c8.315,0,15.057-6.741,15.057-15.057V274.547h36.697
			c10.926,0,20.537-6.584,24.484-16.772C514.147,247.585,511.479,236.246,503.402,228.885z"/>
	</g>
</g>
<g>
	<g>
		<path d="M445.092,42.73H343.973l116.176,105.636v-90.58C460.149,49.471,453.408,42.73,445.092,42.73z"/>
	</g>
</g>
<g>
</g>
<g>
</g>
<g>
</g>
<g>
</g>
<g>
</g>
<g>
</g>
<g>
</g>
<g>
</g>
<g>
</g>
<g>
</g>
<g>
</g>
<g>
</g>
<g>
</g>
<g>
</g>
<g>
</g>
</symbol><symbol id="kmz" viewBox="0 0 550.801 550.801">
<g>
	<g>
		<path d="M475.095,132c-0.031-2.529-0.828-5.023-2.562-6.995L366.325,3.694c-0.021-0.031-0.053-0.042-0.085-0.074
			c-0.633-0.709-1.36-1.292-2.141-1.803c-0.232-0.153-0.464-0.288-0.707-0.422c-0.686-0.369-1.392-0.67-2.13-0.892
			c-0.2-0.061-0.38-0.14-0.58-0.195C359.87,0.119,359.048,0,358.204,0H97.2c-11.907,0-21.6,9.695-21.6,21.601v507.6
			c0,11.913,9.692,21.601,21.6,21.601h356.4c11.918,0,21.6-9.688,21.6-21.601V133.21C475.2,132.804,475.137,132.398,475.095,132z
			 M169.494,512.947l-27.383-48.283l-9.621,11.781v36.508h-25.057v-111.85h25.057v49.449h0.501
			c2.489-4.314,5.142-8.301,7.636-12.277l25.387-37.172h31.031l-37.006,47.624l38.995,64.22H169.494z M305.554,512.947l-1.655-42.82
			c-0.496-13.431-1.002-29.699-1.002-45.952H302.4c-3.491,14.265-8.126,30.185-12.445,43.306l-13.605,43.643h-19.746l-11.944-43.316
			c-3.652-13.109-7.465-29.035-10.125-43.632h-0.335c-0.665,15.093-1.163,32.342-1.988,46.285l-1.993,42.482h-23.398l7.14-111.845
			h33.684l10.95,37.336c3.483,12.941,6.966,26.885,9.458,39.983h0.496c3.153-12.936,6.971-27.706,10.62-40.151l11.947-37.173h33.022
			l6.138,111.845h-24.722V512.947z M429.49,512.947h-86.948v-13.615l53.262-76.655v-0.664H347.52v-20.909h81.143v14.602
			l-52.106,75.669v0.664h52.935V512.947z M97.2,366.758V21.605h250.204v110.519c0,5.961,4.83,10.8,10.8,10.8h95.396l0.011,223.834
			H97.2z"/>
		<g>
			<path d="M275.292,64.505c72.449-0.276,132.889,59.034,132.746,132.92c-0.138,72.101-59.537,133.046-133.854,132.492
				C201.346,329.353,142.523,268.3,142.76,196.6C143.003,124.137,202.743,64.299,275.292,64.505z M157.724,161.196
				c0.433,0.309,0.865,0.606,1.295,0.912c1.312-0.794,2.734-1.463,3.91-2.418c2.618-2.138,5.07-4.498,7.673-6.657
				c15.617-12.968,32.616-16.757,51.371-7.317c6.344,3.19,12.696,6.516,18.602,10.437c26.109,17.328,51.674,35.521,78.205,52.165
				c20.999,13.181,43.875,22.61,68.46,27.382c3.797,0.741,5.506-0.253,6.223-3.644c0.991-4.617,1.571-9.337,2.821-13.877
				c0.828-2.987-0.274-4.095-2.811-4.688c-13.078-3.082-25.07-8.878-35.495-17.01c-19.074-14.881-37.605-30.478-56.083-46.105
				c-12.794-10.826-24.943-22.409-37.689-33.302c-17.305-14.769-37.589-17.497-59.173-13.176
				c-5.329,1.062-11.588,2.252-15.325,5.664c-12.852,11.752-23.042,25.716-29.133,42.282
				C159.456,154.895,158.662,158.08,157.724,161.196z M376.777,266.599c-0.496-0.529-0.981-1.046-1.477-1.576
				c-1.566,0.396-3.144,0.757-4.699,1.184c-16.675,4.567-33.597,8.564-50.904,7.699c-14.935-0.751-29.916-2.787-44.621-5.579
				c-25.423-4.831-48.977-15.414-72.792-25.196c-7.538-3.093-15.704-5.762-23.738-6.308c-10.747-0.732-16.648,10.136-11.541,19.42
				c12.01,21.821,29.049,38.586,51.073,50.229c1.767,0.928,3.786,1.371,6.692,2.399c-0.583-2.896-0.838-4.52-1.237-6.097
				c-2.916-11.585,1.814-16.437,13.688-13.99c1.653,0.343,3.312,0.675,4.954,1.107c28.569,7.372,57.431,10.821,86.867,6.381
				c15.567-2.352,30.786-5.374,40.531-19.723C371.873,273.154,374.372,269.903,376.777,266.599z M240.197,79.748
				c0.087,0.707,0.172,1.405,0.259,2.112c1.236,0.206,2.463,0.546,3.699,0.604c6.415,0.358,12.83,0.585,19.24,0.973
				c23.453,1.421,44.146,9.851,60.057,27.108c12.351,13.387,22.739,28.582,34.383,42.654c5.136,6.225,10.811,12.139,16.948,17.378
				c4.62,3.937,10.173,3.375,14.075,0.192c4.267-3.478,4.952-6.787,2.769-13.239c-7.688-22.805-21.146-41.7-40.136-56.252
				c-27.527-21.12-58.726-30.048-93.377-25.444C252.084,76.631,246.165,78.419,240.197,79.748z"/>
		</g>
	</g>
</g>
<g>
</g>
<g>
</g>
<g>
</g>
<g>
</g>
<g>
</g>
<g>
</g>
<g>
</g>
<g>
</g>
<g>
</g>
<g>
</g>
<g>
</g>
<g>
</g>
<g>
</g>
<g>
</g>
<g>
</g>
</symbol><symbol id="location" viewBox="-119 -21 682 682.66669"><path d="m216.210938 0c-122.664063 0-222.460938 99.796875-222.460938 222.460938 0 154.175781 222.679688 417.539062 222.679688 417.539062s222.242187-270.945312 222.242187-417.539062c0-122.664063-99.792969-222.460938-222.460937-222.460938zm67.121093 287.597656c-18.507812 18.503906-42.8125 27.757813-67.121093 27.757813-24.304688 0-48.617188-9.253907-67.117188-27.757813-37.011719-37.007812-37.011719-97.226562 0-134.238281 17.921875-17.929687 41.761719-27.804687 67.117188-27.804687 25.355468 0 49.191406 9.878906 67.121093 27.804687 37.011719 37.011719 37.011719 97.230469 0 134.238281zm0 0"/></symbol><symbol id="navigation" viewBox="0 0 51.636 51.636">
<path d="M51.353,0.914c-0.295-0.305-0.75-0.39-1.135-0.213L0.583,23.481c-0.399,0.184-0.632,0.605-0.574,1.041
	s0.393,0.782,0.826,0.854l22.263,3.731l2.545,21.038c0.054,0.438,0.389,0.791,0.824,0.865c0.057,0.01,0.113,0.015,0.169,0.015
	c0.375,0,0.726-0.211,0.896-0.556l24-48.415C51.72,1.675,51.648,1.218,51.353,0.914z M27.226,46.582l-2.232-18.457
	c-0.054-0.44-0.391-0.793-0.828-0.866L4.374,23.941L48.485,3.697L27.226,46.582z"/>
<g>
</g>
<g>
</g>
<g>
</g>
<g>
</g>
<g>
</g>
<g>
</g>
<g>
</g>
<g>
</g>
<g>
</g>
<g>
</g>
<g>
</g>
<g>
</g>
<g>
</g>
<g>
</g>
<g>
</g>
</symbol><symbol id="pencil" viewBox="0 0 128 128"><path d="m122.922 23.474-18.4-18.4a1.75 1.75 0 0 0 -2.474 0l-85 85a1.649 1.649 0 0 0 -.119.146c-.026.032-.054.061-.078.095a1.746 1.746 0 0 0 -.191.349l-6.919 17.563v.006l-5.054 12.809a1.751 1.751 0 0 0 2.271 2.271l12.809-5.052 17.559-6.925a1.773 1.773 0 0 0 .349-.191c.034-.024.063-.052.1-.078a1.794 1.794 0 0 0 .145-.119l61.73-61.728 23.267-23.268a1.75 1.75 0 0 0 .005-2.478zm-24.507 22.032-15.921-15.921 4.982-4.985 15.92 15.92zm-61.726 61.726-3.5-3.5 59.248-59.254 3.5 3.5zm-9.944-9.944 59.255-59.251 3.963 3.963-59.251 59.255zm-5.977-5.977 59.251-59.251 3.5 3.5-59.248 59.254zm-8.757 20.7 3.977 3.977-6.567 2.59zm7.526 2.577-6.126-6.126 5.532-14.028 4.088 4.088 6.436 6.436 4.088 4.088zm86.334-76.538-15.921-15.921 13.339-13.338 15.921 15.92z"/></symbol><symbol id="plus" viewBox="0 0 448 448"><path d="m408 184h-136c-4.417969 0-8-3.582031-8-8v-136c0-22.089844-17.910156-40-40-40s-40 17.910156-40 40v136c0 4.417969-3.582031 8-8 8h-136c-22.089844 0-40 17.910156-40 40s17.910156 40 40 40h136c4.417969 0 8 3.582031 8 8v136c0 22.089844 17.910156 40 40 40s40-17.910156 40-40v-136c0-4.417969 3.582031-8 8-8h136c22.089844 0 40-17.910156 40-40s-17.910156-40-40-40zm0 0"/></symbol><symbol id="trash" viewBox="-47 0 512 512"><path d="m416.875 114.441406-11.304688-33.886718c-4.304687-12.90625-16.339843-21.578126-29.941406-21.578126h-95.011718v-30.933593c0-15.460938-12.570313-28.042969-28.027344-28.042969h-87.007813c-15.453125 0-28.027343 12.582031-28.027343 28.042969v30.933593h-95.007813c-13.605469 0-25.640625 8.671876-29.945313 21.578126l-11.304687 33.886718c-2.574219 7.714844-1.2695312 16.257813 3.484375 22.855469 4.753906 6.597656 12.445312 10.539063 20.578125 10.539063h11.816406l26.007813 321.605468c1.933594 23.863282 22.183594 42.558594 46.109375 42.558594h204.863281c23.921875 0 44.175781-18.695312 46.105469-42.5625l26.007812-321.601562h6.542969c8.132812 0 15.824219-3.941407 20.578125-10.535157 4.753906-6.597656 6.058594-15.144531 3.484375-22.859375zm-249.320312-84.441406h83.0625v28.976562h-83.0625zm162.804687 437.019531c-.679687 8.402344-7.796875 14.980469-16.203125 14.980469h-204.863281c-8.40625 0-15.523438-6.578125-16.203125-14.980469l-25.816406-319.183593h288.898437zm-298.566406-349.183593 9.269531-27.789063c.210938-.640625.808594-1.070313 1.484375-1.070313h333.082031c.675782 0 1.269532.429688 1.484375 1.070313l9.269531 27.789063zm0 0"/><path d="m282.515625 465.957031c.265625.015625.527344.019531.792969.019531 7.925781 0 14.550781-6.210937 14.964844-14.21875l14.085937-270.398437c.429687-8.273437-5.929687-15.332031-14.199219-15.761719-8.292968-.441406-15.328125 5.925782-15.761718 14.199219l-14.082032 270.398437c-.429687 8.273438 5.925782 15.332032 14.199219 15.761719zm0 0"/><path d="m120.566406 451.792969c.4375 7.996093 7.054688 14.183593 14.964844 14.183593.273438 0 .554688-.007812.832031-.023437 8.269531-.449219 14.609375-7.519531 14.160157-15.792969l-14.753907-270.398437c-.449219-8.273438-7.519531-14.613281-15.792969-14.160157-8.269531.449219-14.609374 7.519532-14.160156 15.792969zm0 0"/><path d="m209.253906 465.976562c8.285156 0 15-6.714843 15-15v-270.398437c0-8.285156-6.714844-15-15-15s-15 6.714844-15 15v270.398437c0 8.285157 6.714844 15 15 15zm0 0"/></symbol></svg>
