<?xml version="1.0" encoding="iso-8859-1"?>
<!-- Generator: Adobe Illustrator 19.0.0, SVG Export Plug-In . SVG Version: 6.00 Build 0)  -->
<svg version="1.1" id="Capa_1" xmlns="http://www.w3.org/2000/svg" xmlns:xlink="http://www.w3.org/1999/xlink" x="0px" y="0px"
	 viewBox="0 0 512 512" style="enable-background:new 0 0 512 512;" xml:space="preserve">
<g>
	<g>
		<path d="M416,106.667h-34.133c0-6.4,2.133-14.933,2.133-21.333C384,38.4,345.6,0,298.667,0c-19.2,0-38.4,6.4-53.333,19.2
			c-32-23.467-74.667-23.467-106.667,0C102.4-10.667,49.067-4.267,19.2,32C6.4,46.933,0,66.133,0,85.333V192
			c0,17.067,8.533,36.267,21.333,46.933V448c0,36.267,27.733,64,64,64h213.333c36.267,0,64-27.733,64-64v-21.333H416
			c53.333,0,96-42.667,96-96v-128C512,149.333,469.333,106.667,416,106.667z M42.667,192V85.333c0-23.467,19.2-42.667,42.667-42.667
			c14.933,0,27.733,6.4,36.267,19.2c8.533,10.667,27.733,10.667,36.267,0c10.667-19.2,38.4-25.6,57.6-12.8
			c4.267,2.133,8.533,6.4,12.8,12.8c8.533,10.667,27.733,10.667,36.267,0c12.8-19.2,38.4-25.6,59.733-12.8
			c21.333,12.8,25.6,38.4,12.8,59.733c-12.8,21.333-38.4,25.6-59.733,12.8c-4.267-2.133-8.533-6.4-12.8-12.8
			c-8.533-10.667-27.733-10.667-36.267,0c-12.8,19.2-40.533,25.6-59.733,12.8c-4.267-4.267-8.533-8.533-12.8-12.8
			C147.2,96,128,96,119.467,108.8c-4.267,8.533-12.8,12.8-21.333,17.067c-6.4,2.133-12.8,10.667-12.8,19.2V192
			c0,12.8-8.533,21.333-21.333,21.333S42.667,204.8,42.667,192z M469.333,330.667C469.333,360.533,445.867,384,416,384h-74.667
			c-12.8,0-21.333,8.533-21.333,21.333V448c0,12.8-8.533,21.333-21.333,21.333H85.333C72.533,469.333,64,460.8,64,448V256
			c36.267,0,64-27.733,64-64v-34.133c4.267-2.133,6.4-4.267,10.667-6.4c32,23.467,74.667,23.467,106.667,0
			c32,25.6,78.933,25.6,108.8-2.133H416c29.867,0,53.333,23.467,53.333,53.333V330.667z"/>
	</g>
</g>
<g>
	<g>
		<path d="M416,170.667h-74.667C328.533,170.667,320,179.2,320,192v149.333c0,12.8,8.533,21.333,21.333,21.333H416
			c17.067,0,32-14.933,32-32v-128C448,185.6,433.067,170.667,416,170.667z M405.333,320h-42.667V213.333h42.667V320z"/>
	</g>
</g>
<g>
	<g>
		<rect x="170.667" y="213.333" width="42.667" height="213.333"/>
	</g>
</g>
<g>
	<g>
		<rect x="234.667" y="213.333" width="42.667" height="213.333"/>
	</g>
</g>
<g>
	<g>
		<rect x="106.667" y="256" width="42.667" height="170.667"/>
	</g>
</g>
<g>
</g>
<g>
</g>
<g>
</g>
<g>
</g>
<g>
</g>
<g>
</g>
<g>
</g>
<g>
</g>
<g>
</g>
<g>
</g>
<g>
</g>
<g>
</g>
<g>
</g>
<g>
</g>
<g>
</g>
</svg>
