<svg id="Capa_1" enable-background="new 0 0 511.094 511.094" height="512" viewBox="0 0 511.094 511.094" width="512" xmlns="http://www.w3.org/2000/svg"><g><path d="m285.334 511.094h-59.574c-8.284 0-15-6.716-15-15v-294.26h-111.26c-8.284 0-15-6.716-15-15v-59.574c0-8.284 6.716-15 15-15h111.26v-97.26c0-8.284 6.716-15 15-15h59.574c8.284 0 15 6.716 15 15v97.26h111.26c8.284 0 15 6.716 15 15v59.574c0 8.284-6.716 15-15 15h-111.26v294.26c0 8.284-6.716 15-15 15zm-44.574-30h29.574v-294.26c0-8.284 6.716-15 15-15h111.26v-29.574h-111.26c-8.284 0-15-6.716-15-15v-97.26h-29.574v97.26c0 8.284-6.716 15-15 15h-111.26v29.574h111.26c8.284 0 15 6.716 15 15z"/></g></svg>