<svg id="Layer_1" enable-background="new 0 0 512 512" height="512" viewBox="0 0 512 512" width="512" xmlns="http://www.w3.org/2000/svg"><g><path d="m413.949 256 65.883-112.942c2.706-4.639 2.726-10.372.05-15.029-2.675-4.658-7.636-7.529-13.007-7.529h-131.967l-65.951-113.058c-2.689-4.609-7.622-7.442-12.957-7.442s-10.269 2.833-12.957 7.442l-65.95 113.058h-131.968c-5.371 0-10.332 2.872-13.007 7.529s-2.656 10.39.051 15.029l65.882 112.942-65.883 112.942c-2.707 4.639-2.726 10.372-.051 15.029 2.675 4.658 7.636 7.529 13.007 7.529h131.968l65.951 113.058c2.688 4.609 7.622 7.442 12.957 7.442s10.269-2.833 12.957-7.442l65.951-113.058h131.967c5.371 0 10.332-2.872 13.007-7.529 2.676-4.657 2.656-10.39-.05-15.029zm26.811-105.5-44.176 75.73-44.176-75.73zm-61.542 105.5-61.542 105.5h-123.352l-61.542-105.5 61.542-105.5h123.352zm-123.218-211.23 44.176 75.73h-88.352zm-184.759 105.73h88.352l-44.176 75.73zm0 211 44.176-75.73 44.176 75.73zm184.759 105.73-44.176-75.73h88.352zm96.408-105.73 44.176-75.73 44.176 75.73z"/></g></svg>