<svg id="Layer_1" enable-background="new 0 0 512 512" height="512" viewBox="0 0 512 512" width="512" xmlns="http://www.w3.org/2000/svg"><g><path d="m466.647 120.683h-95.775l61.036 104.633 47.786-81.918c5.874-10.07-1.39-22.715-13.047-22.715z"/><path d="m32.306 143.398 47.786 81.919 61.037-104.634h-95.776c-11.657 0-18.921 12.645-13.047 22.715z"/><path d="m269.047 504.506 47.989-82.268h-122.073l47.99 82.268c5.828 9.992 20.265 9.992 26.094 0z"/><path d="m45.353 391.317h95.775l-61.036-104.633-47.786 81.918c-5.874 10.07 1.39 22.715 13.047 22.715z"/><path d="m370.871 391.317h95.776c11.657 0 18.921-12.646 13.047-22.715l-47.786-81.918z"/><path d="m176.926 391.317h158.147l78.936-135.317-78.935-135.317h-158.148l-78.935 135.318z"/><path d="m242.953 7.494-47.989 82.268h122.073l-47.99-82.268c-5.829-9.992-20.266-9.992-26.094 0z"/></g></svg>