<svg id="Capa_1" enable-background="new 0 0 512 512" height="512" viewBox="0 0 512 512" width="512" xmlns="http://www.w3.org/2000/svg"><g><path d="m220.146 90.76 32.955 28.813 33.93-31.02 37.989 28.722 25.139-18.79-94.159-98.485-96.302 100.666 25.243 19.427z"/><path d="m279.49 343.988h-46.98l-18.947 27.092h84.874z"/><path d="m296.536 401.08h-81.072l-19.623 31.276h120.318z"/><path d="m210.226 512v-49.644h-68.621l38.443-61.276h-24.074l39.928-57.092h-23.214l83.312-112.402 83.312 112.402h-23.214l39.928 57.092h-24.074l38.443 61.276h-68.621v49.644h210.226v-248.838l-140.62-143.085-46.463 34.731-36.067-27.27-35.303 32.275-33.87-29.613-33.992 28.321-47.17-36.302-138.515 140.943v248.838z"/><path d="m240.226 462.356h31.547v49.644h-31.547z"/><path d="m256 281.967-23.733 32.021h47.466z"/></g></svg>