<svg id="Capa_1" enable-background="new 0 0 512 512" height="512" viewBox="0 0 512 512" width="512" xmlns="http://www.w3.org/2000/svg"><g><path d="m112.5 442.382c-4.142 0-7.5 3.357-7.5 7.5v54.618c0 4.143 3.358 7.5 7.5 7.5s7.5-3.357 7.5-7.5v-54.618c0-4.143-3.358-7.5-7.5-7.5zm287 0c-4.142 0-7.5 3.357-7.5 7.5v54.618c0 4.143 3.358 7.5 7.5 7.5s7.5-3.357 7.5-7.5v-54.618c0-4.143-3.358-7.5-7.5-7.5zm36.915-113.886-47.025-16.142c-.445-11.137 3.516-21.837 11.403-29.761 7.39-7.425 17.23-11.514 27.757-11.514 7.148 0 12.774-6.902 11.121-13.876l-32.023-139.727c-.001-.005-.002-.01-.003-.015l-10.022-43.731c-1.479-6.481-4.701-12.453-9.317-17.271-33.729-35.2-83.931-56.459-132.306-56.459-49.087 0-98.3 20.986-132.304 56.46-4.565 4.762-7.849 10.831-9.316 17.265l-10.025 43.741c0 .001-.001.003-.001.005l-32.022 139.724c-1.666 7.01 3.938 13.885 11.168 13.885 22.253 0 40.341 18.943 39.11 41.274l-47.025 16.142c-27.266 9.358-45.585 35.016-45.585 63.844v112.16c0 4.143 3.358 7.5 7.5 7.5s7.5-3.357 7.5-7.5v-112.16c0-13.353 5.055-25.83 13.622-35.277 14.855 18.589 32.281 35.002 51.914 48.855 8.14 5.743 16.622 11.006 25.234 15.678 14.224 21.478 38.598 35.674 66.229 35.674 5.438 0 10.675-3.535 12.667-8.647 13.582 2.232 27.446 3.377 41.334 3.377 13.89 0 27.757-1.146 41.34-3.379 1.988 5.055 6.907 8.648 12.66 8.648 21.201 0 41.136-8.259 56.133-23.256 3.848-3.849 7.245-8.026 10.18-12.463 8.583-4.661 17.037-9.908 25.15-15.632 19.633-13.853 37.06-30.266 51.914-48.855 8.568 9.447 13.623 21.924 13.623 35.277v112.16c0 4.143 3.358 7.5 7.5 7.5s7.5-3.357 7.5-7.5v-112.16c0-28.828-18.319-54.486-45.585-63.844zm-24.214 7.548c-7.028 8.033-14.642 15.525-22.811 22.387 0-.058-.004-30.184 0-30.217zm1.599-124.574h-38.533c-4.142 0-7.5 3.357-7.5 7.5s3.358 7.5 7.5 7.5h41.971l6.827 29.788c-1.887.238-110.6.343-112.674.212v-29.551c.124-.151.254-.297.378-.449h28.499c4.142 0 7.5-3.357 7.5-7.5s-3.358-7.5-7.5-7.5h-19.108c2.264-4.845 4.005-9.945 5.143-15.217l3.191-14.783h77.433zm-10.313-45h-70.757l6.652-30.819 55.22-7.952zm-26.012-99.631c2.738 2.857 4.647 6.396 5.524 10.237l8.239 35.951-51.194 7.372c-.392-1.727-.956-3.412-1.679-5.038l31.653-55.809c2.554 2.349 5.047 4.772 7.457 7.287zm-56.222-38.585c13.184 5.552 25.669 12.761 37.087 21.485l-30.369 53.544c-5.243-3.385-11.823-4.689-18.161-4.283zm-72.753-13.08v17.666c0 4.143 3.358 7.5 7.5 7.5s7.5-3.357 7.5-7.5v-17.66c14.813.671 29.414 3.32 43.414 7.782l-12.298 76.038h-31.116v-31.16c0-4.143-3.358-7.5-7.5-7.5s-7.5 3.357-7.5 7.5v31.16h-31.263l-14.005-75.509c14.646-4.85 29.8-7.637 45.268-8.317zm-59.515 13.756 12.996 70.07c-6.27-.324-12.694.959-17.952 4.283l-30.389-53.579c10.839-8.316 22.662-15.264 35.345-20.774zm-59.984 48.142c.87-3.819 2.817-7.409 5.523-10.232 2.415-2.52 4.904-4.945 7.451-7.296l31.658 55.817c-.723 1.626-1.286 3.312-1.679 5.038l-51.194-7.372zm-11.602 50.626 55.22 7.952 6.652 30.819h-70.757zm-12.323 53.772h77.433l3.191 14.783c1.138 5.271 2.879 10.372 5.143 15.217h-92.643zm17.534 146.744c-.002.053-.002 30.163 0 30.225-8.165-6.861-15.78-14.356-22.812-22.395zm-3.426 65.448c-18.542-13.083-34.988-28.589-48.993-46.152 4.421-2.59 9.445-4.614 14.364-6.234 11.223 13.56 23.993 25.73 38.056 36.281v.313c0 6.859.888 13.511 2.534 19.862-2.006-1.326-3.995-2.683-5.961-4.07zm81.426 48.593c-24.652-.524-45.923-14.982-56.279-35.79h56.279c-.094 2.267.09 33.691 0 35.79zm0-50.79h-61.541c-.946-4.385-1.459-8.93-1.459-13.595v-16.405h63zm0-45h-63v-29.995h63zm0-44.995h-63.716c-1.9-11.665-7.538-22.091-15.655-30h79.371zm0-45c-1.954.079-110.912.046-112.676-.206l6.828-29.794h105.47c.123.151.253.298.378.449zm95.78 177.113c-26.509 4.521-54.272 4.521-80.78 0v-15.269c13.259 2.434 26.801 3.686 40.39 3.686s27.131-1.252 40.39-3.686zm0-30.519c-26.462 5.213-54.318 5.213-80.78 0v-77.889c4.684 1.843 9.491 3.357 14.39 4.546v48.779c0 7.444 6.056 13.5 13.5 13.5h25c7.444 0 13.5-6.056 13.5-13.5v-48.78c4.91-1.191 9.716-2.704 14.39-4.542zm-80.78-94.224v-68.26c4.506 3.054 9.341 5.569 14.39 7.527v66.109c-4.932-1.403-9.741-3.2-14.39-5.376zm29.39 68.16v-124.869c3.628.565 7.304.869 11 .869s7.372-.304 11-.869v124.869zm51.39-68.157c-4.635 2.17-9.444 3.966-14.39 5.372v-66.107c5.049-1.958 9.885-4.473 14.39-7.527zm-40.39-70.843c-26.623 0-50.022-18.888-55.639-44.911l-13.803-63.951c-1.706-7.665 4.393-15.185 12.219-15.138h114.446c7.794 0 13.925 7.492 12.219 15.138l-13.803 63.951c-5.617 26.023-29.016 44.911-55.639 44.911zm99.527 185.406c-11.836 11.836-27.462 18.498-44.137 18.849.147-2.054-.144-33.55 0-35.79h56.319c-3.074 6.189-7.153 11.912-12.182 16.941zm18.863-45.536c0 4.627-.501 9.175-1.446 13.595h-61.554v-30h63zm0-31.405h-63v-29.995h63zm.71-44.995h-63.71v-30h79.335c-.187.183-.379.356-.564.542-8.091 8.13-13.272 18.371-15.061 29.458zm17.716 92.192c-1.954 1.378-3.929 2.726-5.92 4.043 1.64-6.403 2.494-13.053 2.494-19.835v-.323c14.071-10.556 26.841-22.723 38.056-36.271 4.914 1.535 10.057 3.585 14.364 6.234-14.005 17.563-30.452 33.069-48.994 46.152z"/></g></svg>