<svg id="Capa_1" enable-background="new 0 0 512 512" height="512" viewBox="0 0 512 512" width="512" xmlns="http://www.w3.org/2000/svg"><g><path d="m61 512h180c8.284 0 15-6.716 15-15s-6.716-15-15-15h-45v-106c0-8.284-6.716-15-15-15h-15v-286c0-24.813 20.187-45 45-45h120v30h-90c-8.284 0-15 6.716-15 15v210c0 8.284 6.716 15 15 15h210c8.284 0 15-6.716 15-15v-210c0-8.284-6.716-15-15-15h-90v-30h60c8.284 0 15-6.716 15-15s-6.716-15-15-15h-210c-41.355 0-75 33.645-75 75v286h-15c-8.284 0-15 6.716-15 15v106h-45c-8.284 0-15 6.716-15 15s6.716 15 15 15zm375-242h-180v-180h180zm-300 121h30v91h-30z"/><path d="m316 120c-8.284 0-15 6.716-15 15v90c0 8.284 6.716 15 15 15s15-6.716 15-15v-15h15c24.813 0 45-20.187 45-45s-20.187-45-45-45zm45 45c0 8.271-6.729 15-15 15h-15v-30h15c8.271 0 15 6.729 15 15z"/></g></svg>