<svg id="Capa_1" enable-background="new 0 0 512 512" height="512" viewBox="0 0 512 512" width="512" xmlns="http://www.w3.org/2000/svg"><g id="XMLID_1380_"><g id="XMLID_1365_"><path id="XMLID_1379_" d="m511.742 451.742-27.084-116.856c6.149-1.661 11.724-5.133 15.959-10.073 6.095-7.108 8.77-16.493 7.34-25.747l-22.855-147.918c-1.898-12.285-10.435-21.938-21.665-25.579v-41.517c0-12.835-8.09-23.81-19.437-28.11v-45.942c0-5.523-4.477-10-10-10h-72c-5.523 0-10 4.477-10 10v45.942c-11.346 4.299-19.437 15.275-19.437 28.11v41.518c-8.489 2.752-15.438 8.942-19.144 17.106h-114.838c-3.707-8.164-10.655-14.354-19.144-17.106v-41.518c0-12.835-8.09-23.81-19.437-28.11v-45.942c0-5.523-4.477-10-10-10h-72c-5.523 0-10 4.477-10 10v45.942c-11.346 4.299-19.437 15.275-19.437 28.11v41.518c-11.23 3.641-19.767 13.294-21.665 25.579l-22.855 147.917c-1.43 9.254 1.245 18.639 7.34 25.747 4.236 4.94 9.81 8.412 15.959 10.073l-27.084 116.856c-.172.74-.258 1.498-.258 2.258v48c0 5.522 4.477 10 10 10h208c5.523 0 10-4.478 10-10v-48c0-.76-.086-1.518-.258-2.258l-27.084-116.856c6.149-1.661 11.724-5.133 15.959-10.073 3.54-4.129 5.917-9.027 7.015-14.22h64.735c1.099 5.193 3.476 10.091 7.015 14.22 4.236 4.94 9.81 8.412 15.959 10.073l-27.084 116.856c-.171.74-.257 1.498-.257 2.258v48c0 5.522 4.477 10 10 10h208c5.523 0 10-4.478 10-10v-48c0-.76-.086-1.518-.258-2.258zm-22.325-7.742h-182.834l25.031-108h132.772zm-136.854-359.948c0-5.542 4.509-10.052 10.052-10.052h70.77c5.542 0 10.052 4.509 10.052 10.052v39.948h-90.873v-39.948zm19.437-64.052h52v34h-52zm-82.648 270.594h-66.704l-19.765-127.918h106.235zm-220.789-206.542c0-5.543 4.51-10.052 10.052-10.052h70.77c5.542 0 10.052 4.509 10.052 10.052v39.948h-90.874zm19.437-64.052h52v34h-52zm-68 472v-28h49c5.523 0 10-4.478 10-10s-4.477-10-10-10h-46.417l25.031-108h132.772l25.031 108h-46.417c-5.523 0-10 4.478-10 10s4.477 10 10 10h49v28zm181.433-180.204c-2.324 2.711-5.57 4.204-9.141 4.204h-156.584c-3.571 0-6.817-1.493-9.141-4.204-2.324-2.71-3.304-6.146-2.758-9.675l22.855-147.919c.913-5.911 5.918-10.202 11.899-10.202h110.873c5.982 0 10.986 4.291 11.899 10.202l22.855 147.919c.547 3.528-.433 6.965-2.757 9.675zm106.376-9.675 22.855-147.919c.913-5.912 5.917-10.202 11.899-10.202h110.873c5.982 0 10.986 4.291 11.899 10.202l22.855 147.919c.545 3.528-.434 6.965-2.758 9.675-2.324 2.711-5.57 4.204-9.141 4.204h-156.583c-3.571 0-6.817-1.493-9.141-4.204-2.324-2.71-3.304-6.147-2.758-9.675zm-3.809 189.879v-28h188v28z"/><path id="XMLID_1435_" d="m269.667 216.634h-27.079c-5.523 0-10 4.477-10 10s4.477 10 10 10h27.079c5.523 0 10-4.477 10-10s-4.478-10-10-10z"/><path id="XMLID_1438_" d="m114 444c-2.63 0-5.21 1.069-7.07 2.93-1.86 1.86-2.93 4.44-2.93 7.07s1.07 5.21 2.93 7.069c1.86 1.86 4.44 2.931 7.07 2.931s5.21-1.07 7.07-2.931c1.86-1.859 2.93-4.439 2.93-7.069s-1.07-5.21-2.93-7.07-4.44-2.93-7.07-2.93z"/></g></g></svg>