<svg id="Capa_1" enable-background="new 0 0 512 512" height="512" viewBox="0 0 512 512" width="512" xmlns="http://www.w3.org/2000/svg"><g><path d="m403.594 220.649c2.665 3.228 7.432 3.658 10.627 1.015l16.014-13.219c2.09.927 4.398 1.452 6.832 1.452 9.323 0 16.88-7.558 16.88-16.88 0-6.606-3.803-12.31-9.332-15.083v-14.134c0-4.169-3.379-7.549-7.549-7.549-4.169 0-7.549 3.38-7.549 7.549v14.134c-5.528 2.773-9.332 8.477-9.332 15.083 0 1.302.162 2.565.441 3.782l-16.017 13.222c-3.214 2.655-3.669 7.413-1.015 10.628z"/><path d="m498.412 435.846h-10.771v-18.61c0-7.492-6.095-13.588-13.588-13.588h-4.389v-17.151c0-7.492-6.095-13.588-13.588-13.588h-11.464v-105.338c37.79-3.797 67.388-35.783 67.388-74.554 0-4.26-.362-8.535-1.074-12.707-.702-4.109-4.607-6.873-8.711-6.17-4.109.702-6.872 4.602-6.17 8.712.569 3.335.858 6.755.858 10.165 0 32.994-26.843 59.837-59.837 59.837s-59.837-26.843-59.837-59.837 26.843-59.837 59.837-59.837c16.677 0 32.158 6.693 43.59 18.845 2.858 3.037 7.636 3.182 10.67.325 3.037-2.856 3.183-7.634.326-10.67-14.108-14.997-34.005-23.597-54.587-23.597-41.319 0-74.934 33.615-74.934 74.934 0 38.771 29.598 70.757 67.385 74.555v105.338h-11.464c-7.493 0-13.588 6.095-13.588 13.588v17.151h-4.389c-7.493 0-13.588 6.095-13.588 13.588v18.61h-27.165c5.939-9.344 9.198-20.287 9.198-31.511 0-11.804-3.506-23.205-10.14-32.97l-55.056-81.049c-13.487-19.854-30.421-36.602-49.694-49.7v-189.452c0-18.037-14.674-32.711-32.711-32.711h-207.331c-7.493.001-13.588 6.096-13.588 13.588v77.486c0 4.169 3.38 7.549 7.549 7.549s7.549-3.38 7.549-7.549v-5.631c63.349 5.303 117.442 45.632 140.72 104.501-2.488-.099-4.981-.167-7.484-.167h-133.237v-61.368c0-4.169-3.38-7.549-7.549-7.549s-7.548 3.38-7.548 7.549v333.095c0 7.492 6.095 13.588 13.588 13.588h377.465c4.169 0 7.549-3.38 7.549-7.549s-3.379-7.549-7.549-7.549h-375.956v-27.505h481.805v27.505h-69.125c-4.169 0-7.549 3.38-7.549 7.549s3.379 7.549 7.549 7.549h70.635c7.493 0 13.588-6.095 13.588-13.588v-30.525c0-7.492-6.095-13.587-13.588-13.587zm-78.848-47.839h35.005v15.641h-35.005zm-17.977 30.739h70.957v17.1h-70.957zm-64.038-51.185h-34.9c-7.175 0-13.912-3.512-18.02-9.394l-35.992-51.527c-2.055-2.942-.992-5.726-.439-6.787.553-1.06 2.226-3.527 5.815-3.527h35.091c.58.824 48.445 71.235 48.445 71.235zm-225.453-241.407c-28.133-21.786-61.608-34.683-96.999-37.408v-55.194h205.826c9.712 0 17.613 7.901 17.613 17.613v180.205c-20.337-11.17-42.729-18.557-66.117-21.579-11.596-33.125-32.402-62.015-60.323-83.637zm55.056 170.173c5.272 0 9.562 4.289 9.562 9.562v52.111c0 5.272-4.289 9.562-9.562 9.562h-66.717v-71.235zm-81.815 71.235h-70.24v-71.235h70.24zm-70.24 15.097h152.054c13.597 0 24.659-11.062 24.659-24.659v-52.112c0-13.597-11.062-24.659-24.659-24.659h-152.054v-57.902h133.236c49.643 0 96.365 21.312 128.824 57.902h-23.144c-8.101 0-15.458 4.462-19.203 11.645-3.744 7.183-3.189 15.771 1.45 22.411l35.992 51.527c6.93 9.922 18.294 15.846 30.397 15.846h45.004c3.786 6.591 5.773 14.019 5.773 21.676 0 11.872-4.916 23.315-13.494 31.511h-324.835z"/></g></svg>