<svg id="Layer_5" enable-background="new 0 0 64 64" height="512" viewBox="0 0 64 64" width="512" xmlns="http://www.w3.org/2000/svg"><g><path d="m56.802 29h2.198c2.206 0 4-1.794 4-4 0-1.862-1.284-3.417-3.01-3.861.001-.046.01-.093.01-.139 0-3.924-2.842-7.19-6.574-7.865-4.51-7.494-12.668-12.135-21.426-12.135-11.551 0-21.702 8.086-24.327 19.281-2.206 1.426-3.673 3.902-3.673 6.719 0 .046.009.093.01.139-1.726.444-3.01 1.999-3.01 3.861 0 2.206 1.794 4 4 4h3.696c.83 2.15 1.934 4.162 3.317 6h-11.013v2h62v-2h-11.001c2.648-3.514 4.28-7.613 4.803-12zm1.198-8c0 .048-.009.097-.01.145-1.715.451-2.99 2.001-2.99 3.855h2c0-1.103.897-2 2-2s2 .897 2 2-.897 2-2 2h-20c-1.103 0-2-.897-2-2s.897-2 2-2 2 .897 2 2h2c0-1.383-.706-2.603-1.776-3.322.549-1.586 2.04-2.678 3.776-2.678.133 0 .261.021.39.039l.86.114.309-.667c.98-2.118 3.116-3.486 5.441-3.486 3.309 0 6 2.691 6 6zm-53 12c-1.103 0-2-.897-2-2s.897-2 2-2 2 .897 2 2h2c0-1.854-1.275-3.404-2.99-3.855-.001-.048-.01-.097-.01-.145 0-3.309 2.691-6 6-6 2.325 0 4.461 1.368 5.441 3.486l.309.667.862-.114c.128-.018.255-.039.388-.039 1.736 0 3.227 1.092 3.776 2.678-1.07.719-1.776 1.939-1.776 3.322h2c0-1.103.897-2 2-2s2 .897 2 2-.897 2-2 2zm9.586 8c-1.56-1.808-2.805-3.821-3.732-6h14.146c2.206 0 4-1.794 4-4s-1.794-4-4-4c-.114 0-.221.024-.332.034-.82-2.388-3.059-4.034-5.668-4.034-.026 0-.053 0-.079.001-1.419-2.452-4.063-4.001-6.921-4.001-.689 0-1.355.097-1.993.262 2.922-9.528 11.879-16.262 21.993-16.262 7.622 0 14.752 3.819 19.014 10.066-2.47.311-4.681 1.768-5.935 3.935-.026-.001-.053-.001-.079-.001-2.609 0-4.848 1.646-5.668 4.034-.111-.01-.218-.034-.332-.034-2.206 0-4 1.794-4 4s1.794 4 4 4h15.788c-.578 4.456-2.415 8.576-5.369 12z"/><path d="m19.433 11.75c3.47-3.063 7.934-4.75 12.567-4.75v-2c-5.121 0-10.054 1.864-13.891 5.25z"/><path d="m14.459 14.449 1.67 1.101c.434-.658.916-1.297 1.432-1.9l-1.52-1.301c-.57.667-1.102 1.373-1.582 2.1z"/><path d="m50.402 30.751c-.135.524-.343 1.104-.619 1.725l1.828.813c.32-.722.565-1.408.728-2.039z"/><path d="m47.906 35.817 1.669 1.103c.398-.603.763-1.195 1.084-1.762l-1.739-.988c-.299.528-.641 1.082-1.014 1.647z"/><path d="m45.585 38.941 1.54 1.276c.407-.492.837-1.036 1.268-1.615l-1.604-1.193c-.41.549-.817 1.066-1.204 1.532z"/><path d="m5 45h54v2h-54z"/><path d="m9 49h46v2h-46z"/><path d="m13 53h38v2h-38z"/><path d="m17 57h30v2h-30z"/><path d="m21 61h22v2h-22z"/></g></svg>